%TF.GenerationSoftware,KiCad,Pcbnew,7.0.6*%
%TF.CreationDate,2023-11-02T18:38:28-04:00*%
%TF.ProjectId,FT2232_Board,46543232-3332-45f4-926f-6172642e6b69,rev?*%
%TF.SameCoordinates,Original*%
%TF.FileFunction,Soldermask,Bot*%
%TF.FilePolarity,Negative*%
%FSLAX46Y46*%
G04 Gerber Fmt 4.6, Leading zero omitted, Abs format (unit mm)*
G04 Created by KiCad (PCBNEW 7.0.6) date 2023-11-02 18:38:28*
%MOMM*%
%LPD*%
G01*
G04 APERTURE LIST*
G04 Aperture macros list*
%AMRoundRect*
0 Rectangle with rounded corners*
0 $1 Rounding radius*
0 $2 $3 $4 $5 $6 $7 $8 $9 X,Y pos of 4 corners*
0 Add a 4 corners polygon primitive as box body*
4,1,4,$2,$3,$4,$5,$6,$7,$8,$9,$2,$3,0*
0 Add four circle primitives for the rounded corners*
1,1,$1+$1,$2,$3*
1,1,$1+$1,$4,$5*
1,1,$1+$1,$6,$7*
1,1,$1+$1,$8,$9*
0 Add four rect primitives between the rounded corners*
20,1,$1+$1,$2,$3,$4,$5,0*
20,1,$1+$1,$4,$5,$6,$7,0*
20,1,$1+$1,$6,$7,$8,$9,0*
20,1,$1+$1,$8,$9,$2,$3,0*%
G04 Aperture macros list end*
%ADD10C,0.630000*%
%ADD11C,0.600000*%
%ADD12O,2.520000X1.362000*%
%ADD13O,2.604000X1.404000*%
%ADD14C,0.800000*%
%ADD15C,5.400000*%
%ADD16RoundRect,0.102000X0.600000X0.700000X-0.600000X0.700000X-0.600000X-0.700000X0.600000X-0.700000X0*%
%ADD17RoundRect,0.102000X1.650000X0.800000X-1.650000X0.800000X-1.650000X-0.800000X1.650000X-0.800000X0*%
%ADD18RoundRect,0.102000X0.600000X0.800000X-0.600000X0.800000X-0.600000X-0.800000X0.600000X-0.800000X0*%
%ADD19RoundRect,0.237500X0.250000X0.237500X-0.250000X0.237500X-0.250000X-0.237500X0.250000X-0.237500X0*%
%ADD20RoundRect,0.237500X-0.250000X-0.237500X0.250000X-0.237500X0.250000X0.237500X-0.250000X0.237500X0*%
%ADD21R,1.700000X1.700000*%
%ADD22O,1.700000X1.700000*%
%ADD23RoundRect,0.160000X-0.160000X0.197500X-0.160000X-0.197500X0.160000X-0.197500X0.160000X0.197500X0*%
%ADD24RoundRect,0.237500X-0.300000X-0.237500X0.300000X-0.237500X0.300000X0.237500X-0.300000X0.237500X0*%
%ADD25RoundRect,0.155000X-0.212500X-0.155000X0.212500X-0.155000X0.212500X0.155000X-0.212500X0.155000X0*%
%ADD26RoundRect,0.155000X0.212500X0.155000X-0.212500X0.155000X-0.212500X-0.155000X0.212500X-0.155000X0*%
%ADD27RoundRect,0.237500X0.300000X0.237500X-0.300000X0.237500X-0.300000X-0.237500X0.300000X-0.237500X0*%
%ADD28RoundRect,0.237500X-0.237500X0.300000X-0.237500X-0.300000X0.237500X-0.300000X0.237500X0.300000X0*%
G04 APERTURE END LIST*
D10*
%TO.C,J1*%
X111798500Y-84628000D03*
D11*
X111798500Y-90628000D03*
D10*
X111798500Y-90628000D03*
D12*
X112523500Y-83308000D03*
X112523500Y-91948000D03*
D13*
X108698500Y-83308000D03*
X108698500Y-91948000D03*
%TD*%
D14*
%TO.C,H2*%
X147107309Y-99475891D03*
D15*
X148539200Y-98044000D03*
D14*
X148539200Y-100069000D03*
X149971091Y-96612109D03*
X146514200Y-98044000D03*
X148539200Y-96019000D03*
X150564200Y-98044000D03*
X149971091Y-99475891D03*
X147107309Y-96612109D03*
%TD*%
%TO.C,H1*%
X112868109Y-80171891D03*
D15*
X114300000Y-78740000D03*
D14*
X114300000Y-80765000D03*
X115731891Y-77308109D03*
X112275000Y-78740000D03*
X114300000Y-76715000D03*
X116325000Y-78740000D03*
X115731891Y-80171891D03*
X112868109Y-77308109D03*
%TD*%
D16*
%TO.C,Y1*%
X126986400Y-83329600D03*
X126986400Y-85529600D03*
X125286400Y-85529600D03*
X125286400Y-83329600D03*
%TD*%
D17*
%TO.C,U3*%
X120650000Y-78678428D03*
D18*
X118350000Y-85078428D03*
X120650000Y-85078428D03*
X122950000Y-85078428D03*
%TD*%
D19*
%TO.C,R8*%
X110109000Y-88900000D03*
X108284000Y-88900000D03*
%TD*%
D20*
%TO.C,R9*%
X108307500Y-85852000D03*
X110132500Y-85852000D03*
%TD*%
D21*
%TO.C,J4*%
X147315000Y-76835000D03*
D22*
X149855000Y-76835000D03*
%TD*%
D21*
%TO.C,J3*%
X127000000Y-99060000D03*
D22*
X127000000Y-96520000D03*
X129540000Y-99060000D03*
X129540000Y-96520000D03*
X132080000Y-99060000D03*
X132080000Y-96520000D03*
X134620000Y-99060000D03*
X134620000Y-96520000D03*
X137160000Y-99060000D03*
X137160000Y-96520000D03*
X139700000Y-99060000D03*
X139700000Y-96520000D03*
X142240000Y-99060000D03*
X142240000Y-96520000D03*
%TD*%
D21*
%TO.C,J5*%
X149860000Y-92710000D03*
D22*
X147320000Y-92710000D03*
X149860000Y-90170000D03*
X147320000Y-90170000D03*
X149860000Y-87630000D03*
X147320000Y-87630000D03*
X149860000Y-85090000D03*
X147320000Y-85090000D03*
X149860000Y-82550000D03*
X147320000Y-82550000D03*
%TD*%
D21*
%TO.C,J2*%
X111760000Y-99060000D03*
D22*
X111760000Y-96520000D03*
X114300000Y-99060000D03*
X114300000Y-96520000D03*
X116840000Y-99060000D03*
X116840000Y-96520000D03*
X119380000Y-99060000D03*
X119380000Y-96520000D03*
X121920000Y-99060000D03*
X121920000Y-96520000D03*
%TD*%
D23*
%TO.C,FB1*%
X133781800Y-85382700D03*
X133781800Y-84187700D03*
%TD*%
D24*
%TO.C,C4*%
X120930500Y-88011000D03*
X122655500Y-88011000D03*
%TD*%
D25*
%TO.C,C5*%
X125586400Y-87529600D03*
X126721400Y-87529600D03*
%TD*%
D26*
%TO.C,C6*%
X126518900Y-81329600D03*
X125383900Y-81329600D03*
%TD*%
D24*
%TO.C,C7*%
X131217500Y-79806800D03*
X132942500Y-79806800D03*
%TD*%
D27*
%TO.C,C9*%
X131926500Y-90678000D03*
X130201500Y-90678000D03*
%TD*%
D28*
%TO.C,C8*%
X132461000Y-84481500D03*
X132461000Y-86206500D03*
%TD*%
M02*
