M48
; DRILL file {KiCad 7.0.6} date Thu Nov  2 18:38:12 2023
; FORMAT={-:-/ absolute / inch / decimal}
; #@! TF.CreationDate,2023-11-02T18:38:12-04:00
; #@! TF.GenerationSoftware,Kicad,Pcbnew,7.0.6
; #@! TF.FileFunction,MixedPlating,1,4
FMAT,2
INCH
; #@! TA.AperFunction,Plated,PTH,ViaDrill
T1C0.0118
; #@! TA.AperFunction,Plated,PTH,ComponentDrill
T2C0.0197
; #@! TA.AperFunction,Plated,PTH,ComponentDrill
T3C0.0256
; #@! TA.AperFunction,Plated,PTH,ComponentDrill
T4C0.0394
; #@! TA.AperFunction,Plated,PTH,ComponentDrill
T5C0.1063
; #@! TA.AperFunction,NonPlated,NPTH,ComponentDrill
T6C0.0236
; #@! TA.AperFunction,NonPlated,NPTH,ComponentDrill
T7C0.0248
%
G90
G05
T1
X4.262Y-3.942
X4.264Y-3.444
X4.265Y-3.206
X4.274Y-2.972
X4.395Y-3.38
X4.395Y-3.5
X4.52Y-3.532
X4.6Y-3.3574
X4.63Y-3.482
X4.644Y-3.228
X4.66Y-3.68
X4.746Y-3.676
X4.75Y-3.022
X4.75Y-3.27
X4.825Y-3.6809
X4.85Y-3.228
X4.8875Y-3.6075
X4.892Y-3.492
X5.008Y-3.08
X5.062Y-3.314
X5.066Y-3.36
X5.07Y-3.5118
X5.075Y-3.605
X5.09Y-3.178
X5.11Y-3.25
X5.165Y-3.34
X5.165Y-3.44
X5.2Y-3.016
X5.2085Y-3.68
X5.23Y-3.51
X5.25Y-3.7047
X5.26Y-3.56
X5.2971Y-3.66
X5.3Y-3.141
X5.3Y-3.44
X5.3069Y-3.32
X5.32Y-3.56
X5.345Y-3.205
X5.36Y-3.38
X5.36Y-3.51
X5.385Y-3.225
X5.42Y-3.51
X5.425Y-3.19
X5.425Y-3.68
X5.48Y-3.21
X5.526Y-3.684
X5.544Y-3.178
X5.55Y-3.275
X5.56Y-3.4134
X5.6Y-3.25
X5.6195Y-3.3
X5.65Y-3.25
X5.68Y-3.1
X5.928Y-3.146
T2
X4.4203Y-3.1
X4.4436Y-3.0436
X4.4436Y-3.1564
X4.5Y-3.0203
X4.5Y-3.1797
X4.5564Y-3.0436
X4.5564Y-3.1564
X4.5797Y-3.1
X5.7683Y-3.86
X5.7916Y-3.8036
X5.7916Y-3.9164
X5.848Y-3.7803
X5.848Y-3.9397
X5.9044Y-3.8036
X5.9044Y-3.9164
X5.9277Y-3.86
T4
X4.4Y-3.8
X4.4Y-3.9
X4.5Y-3.8
X4.5Y-3.9
X4.6Y-3.8
X4.6Y-3.9
X4.7Y-3.8
X4.7Y-3.9
X4.8Y-3.8
X4.8Y-3.9
X5.0Y-3.8
X5.0Y-3.9
X5.1Y-3.8
X5.1Y-3.9
X5.2Y-3.8
X5.2Y-3.9
X5.3Y-3.8
X5.3Y-3.9
X5.4Y-3.8
X5.4Y-3.9
X5.5Y-3.8
X5.5Y-3.9
X5.6Y-3.8
X5.6Y-3.9
X5.7998Y-3.025
X5.8Y-3.25
X5.8Y-3.35
X5.8Y-3.45
X5.8Y-3.55
X5.8Y-3.65
X5.8998Y-3.025
X5.9Y-3.25
X5.9Y-3.35
X5.9Y-3.45
X5.9Y-3.55
X5.9Y-3.65
T5
X4.5Y-3.1
X5.848Y-3.86
T6
X4.4015Y-3.568
T7
X4.4015Y-3.3318
X4.4015Y-3.568
T3
G00X4.3051Y-3.2798
M15
G01X4.2539Y-3.2798
M16
G05
G00X4.3051Y-3.62
M15
G01X4.2539Y-3.62
M16
G05
G00X4.4497Y-3.2798
M15
G01X4.4104Y-3.2798
M16
G05
G00X4.4497Y-3.62
M15
G01X4.4104Y-3.62
M16
G05
T0
M30
