%TF.GenerationSoftware,KiCad,Pcbnew,7.0.6*%
%TF.CreationDate,2023-11-01T23:53:57-04:00*%
%TF.ProjectId,FT2232_Board,46543232-3332-45f4-926f-6172642e6b69,rev?*%
%TF.SameCoordinates,Original*%
%TF.FileFunction,Legend,Bot*%
%TF.FilePolarity,Positive*%
%FSLAX46Y46*%
G04 Gerber Fmt 4.6, Leading zero omitted, Abs format (unit mm)*
G04 Created by KiCad (PCBNEW 7.0.6) date 2023-11-01 23:53:57*
%MOMM*%
%LPD*%
G01*
G04 APERTURE LIST*
%ADD10C,0.150000*%
%ADD11C,0.127000*%
%ADD12C,0.200000*%
%ADD13C,0.250000*%
%ADD14C,0.120000*%
G04 APERTURE END LIST*
D10*
X128558857Y-84956685D02*
X128844571Y-84956685D01*
X128244571Y-84756685D02*
X128558857Y-84956685D01*
X128558857Y-84956685D02*
X128244571Y-85156685D01*
X128844571Y-85670971D02*
X128844571Y-85328114D01*
X128844571Y-85499543D02*
X128244571Y-85499543D01*
X128244571Y-85499543D02*
X128330285Y-85442400D01*
X128330285Y-85442400D02*
X128387428Y-85385257D01*
X128387428Y-85385257D02*
X128416000Y-85328114D01*
X115874771Y-82092857D02*
X116360485Y-82092857D01*
X116360485Y-82092857D02*
X116417628Y-82121428D01*
X116417628Y-82121428D02*
X116446200Y-82150000D01*
X116446200Y-82150000D02*
X116474771Y-82207142D01*
X116474771Y-82207142D02*
X116474771Y-82321428D01*
X116474771Y-82321428D02*
X116446200Y-82378571D01*
X116446200Y-82378571D02*
X116417628Y-82407142D01*
X116417628Y-82407142D02*
X116360485Y-82435714D01*
X116360485Y-82435714D02*
X115874771Y-82435714D01*
X115874771Y-82664285D02*
X115874771Y-83035713D01*
X115874771Y-83035713D02*
X116103342Y-82835713D01*
X116103342Y-82835713D02*
X116103342Y-82921428D01*
X116103342Y-82921428D02*
X116131914Y-82978571D01*
X116131914Y-82978571D02*
X116160485Y-83007142D01*
X116160485Y-83007142D02*
X116217628Y-83035713D01*
X116217628Y-83035713D02*
X116360485Y-83035713D01*
X116360485Y-83035713D02*
X116417628Y-83007142D01*
X116417628Y-83007142D02*
X116446200Y-82978571D01*
X116446200Y-82978571D02*
X116474771Y-82921428D01*
X116474771Y-82921428D02*
X116474771Y-82749999D01*
X116474771Y-82749999D02*
X116446200Y-82692856D01*
X116446200Y-82692856D02*
X116417628Y-82664285D01*
X109296499Y-90439771D02*
X109496499Y-90154057D01*
X109639356Y-90439771D02*
X109639356Y-89839771D01*
X109639356Y-89839771D02*
X109410785Y-89839771D01*
X109410785Y-89839771D02*
X109353642Y-89868342D01*
X109353642Y-89868342D02*
X109325071Y-89896914D01*
X109325071Y-89896914D02*
X109296499Y-89954057D01*
X109296499Y-89954057D02*
X109296499Y-90039771D01*
X109296499Y-90039771D02*
X109325071Y-90096914D01*
X109325071Y-90096914D02*
X109353642Y-90125485D01*
X109353642Y-90125485D02*
X109410785Y-90154057D01*
X109410785Y-90154057D02*
X109639356Y-90154057D01*
X108953642Y-90096914D02*
X109010785Y-90068342D01*
X109010785Y-90068342D02*
X109039356Y-90039771D01*
X109039356Y-90039771D02*
X109067928Y-89982628D01*
X109067928Y-89982628D02*
X109067928Y-89954057D01*
X109067928Y-89954057D02*
X109039356Y-89896914D01*
X109039356Y-89896914D02*
X109010785Y-89868342D01*
X109010785Y-89868342D02*
X108953642Y-89839771D01*
X108953642Y-89839771D02*
X108839356Y-89839771D01*
X108839356Y-89839771D02*
X108782214Y-89868342D01*
X108782214Y-89868342D02*
X108753642Y-89896914D01*
X108753642Y-89896914D02*
X108725071Y-89954057D01*
X108725071Y-89954057D02*
X108725071Y-89982628D01*
X108725071Y-89982628D02*
X108753642Y-90039771D01*
X108753642Y-90039771D02*
X108782214Y-90068342D01*
X108782214Y-90068342D02*
X108839356Y-90096914D01*
X108839356Y-90096914D02*
X108953642Y-90096914D01*
X108953642Y-90096914D02*
X109010785Y-90125485D01*
X109010785Y-90125485D02*
X109039356Y-90154057D01*
X109039356Y-90154057D02*
X109067928Y-90211200D01*
X109067928Y-90211200D02*
X109067928Y-90325485D01*
X109067928Y-90325485D02*
X109039356Y-90382628D01*
X109039356Y-90382628D02*
X109010785Y-90411200D01*
X109010785Y-90411200D02*
X108953642Y-90439771D01*
X108953642Y-90439771D02*
X108839356Y-90439771D01*
X108839356Y-90439771D02*
X108782214Y-90411200D01*
X108782214Y-90411200D02*
X108753642Y-90382628D01*
X108753642Y-90382628D02*
X108725071Y-90325485D01*
X108725071Y-90325485D02*
X108725071Y-90211200D01*
X108725071Y-90211200D02*
X108753642Y-90154057D01*
X108753642Y-90154057D02*
X108782214Y-90125485D01*
X108782214Y-90125485D02*
X108839356Y-90096914D01*
X109169499Y-84851771D02*
X109369499Y-84566057D01*
X109512356Y-84851771D02*
X109512356Y-84251771D01*
X109512356Y-84251771D02*
X109283785Y-84251771D01*
X109283785Y-84251771D02*
X109226642Y-84280342D01*
X109226642Y-84280342D02*
X109198071Y-84308914D01*
X109198071Y-84308914D02*
X109169499Y-84366057D01*
X109169499Y-84366057D02*
X109169499Y-84451771D01*
X109169499Y-84451771D02*
X109198071Y-84508914D01*
X109198071Y-84508914D02*
X109226642Y-84537485D01*
X109226642Y-84537485D02*
X109283785Y-84566057D01*
X109283785Y-84566057D02*
X109512356Y-84566057D01*
X108883785Y-84851771D02*
X108769499Y-84851771D01*
X108769499Y-84851771D02*
X108712356Y-84823200D01*
X108712356Y-84823200D02*
X108683785Y-84794628D01*
X108683785Y-84794628D02*
X108626642Y-84708914D01*
X108626642Y-84708914D02*
X108598071Y-84594628D01*
X108598071Y-84594628D02*
X108598071Y-84366057D01*
X108598071Y-84366057D02*
X108626642Y-84308914D01*
X108626642Y-84308914D02*
X108655214Y-84280342D01*
X108655214Y-84280342D02*
X108712356Y-84251771D01*
X108712356Y-84251771D02*
X108826642Y-84251771D01*
X108826642Y-84251771D02*
X108883785Y-84280342D01*
X108883785Y-84280342D02*
X108912356Y-84308914D01*
X108912356Y-84308914D02*
X108940928Y-84366057D01*
X108940928Y-84366057D02*
X108940928Y-84508914D01*
X108940928Y-84508914D02*
X108912356Y-84566057D01*
X108912356Y-84566057D02*
X108883785Y-84594628D01*
X108883785Y-84594628D02*
X108826642Y-84623200D01*
X108826642Y-84623200D02*
X108712356Y-84623200D01*
X108712356Y-84623200D02*
X108655214Y-84594628D01*
X108655214Y-84594628D02*
X108626642Y-84566057D01*
X108626642Y-84566057D02*
X108598071Y-84508914D01*
X133737285Y-86989700D02*
X133737285Y-86789700D01*
X134051571Y-86789700D02*
X133451571Y-86789700D01*
X133451571Y-86789700D02*
X133451571Y-87075414D01*
X133737285Y-87503986D02*
X133765857Y-87589700D01*
X133765857Y-87589700D02*
X133794428Y-87618271D01*
X133794428Y-87618271D02*
X133851571Y-87646843D01*
X133851571Y-87646843D02*
X133937285Y-87646843D01*
X133937285Y-87646843D02*
X133994428Y-87618271D01*
X133994428Y-87618271D02*
X134023000Y-87589700D01*
X134023000Y-87589700D02*
X134051571Y-87532557D01*
X134051571Y-87532557D02*
X134051571Y-87303986D01*
X134051571Y-87303986D02*
X133451571Y-87303986D01*
X133451571Y-87303986D02*
X133451571Y-87503986D01*
X133451571Y-87503986D02*
X133480142Y-87561129D01*
X133480142Y-87561129D02*
X133508714Y-87589700D01*
X133508714Y-87589700D02*
X133565857Y-87618271D01*
X133565857Y-87618271D02*
X133623000Y-87618271D01*
X133623000Y-87618271D02*
X133680142Y-87589700D01*
X133680142Y-87589700D02*
X133708714Y-87561129D01*
X133708714Y-87561129D02*
X133737285Y-87503986D01*
X133737285Y-87503986D02*
X133737285Y-87303986D01*
X134051571Y-88218271D02*
X134051571Y-87875414D01*
X134051571Y-88046843D02*
X133451571Y-88046843D01*
X133451571Y-88046843D02*
X133537285Y-87989700D01*
X133537285Y-87989700D02*
X133594428Y-87932557D01*
X133594428Y-87932557D02*
X133623000Y-87875414D01*
X121892999Y-89747628D02*
X121921571Y-89776200D01*
X121921571Y-89776200D02*
X122007285Y-89804771D01*
X122007285Y-89804771D02*
X122064428Y-89804771D01*
X122064428Y-89804771D02*
X122150142Y-89776200D01*
X122150142Y-89776200D02*
X122207285Y-89719057D01*
X122207285Y-89719057D02*
X122235856Y-89661914D01*
X122235856Y-89661914D02*
X122264428Y-89547628D01*
X122264428Y-89547628D02*
X122264428Y-89461914D01*
X122264428Y-89461914D02*
X122235856Y-89347628D01*
X122235856Y-89347628D02*
X122207285Y-89290485D01*
X122207285Y-89290485D02*
X122150142Y-89233342D01*
X122150142Y-89233342D02*
X122064428Y-89204771D01*
X122064428Y-89204771D02*
X122007285Y-89204771D01*
X122007285Y-89204771D02*
X121921571Y-89233342D01*
X121921571Y-89233342D02*
X121892999Y-89261914D01*
X121378714Y-89404771D02*
X121378714Y-89804771D01*
X121521571Y-89176200D02*
X121664428Y-89604771D01*
X121664428Y-89604771D02*
X121292999Y-89604771D01*
X126051399Y-89162228D02*
X126079971Y-89190800D01*
X126079971Y-89190800D02*
X126165685Y-89219371D01*
X126165685Y-89219371D02*
X126222828Y-89219371D01*
X126222828Y-89219371D02*
X126308542Y-89190800D01*
X126308542Y-89190800D02*
X126365685Y-89133657D01*
X126365685Y-89133657D02*
X126394256Y-89076514D01*
X126394256Y-89076514D02*
X126422828Y-88962228D01*
X126422828Y-88962228D02*
X126422828Y-88876514D01*
X126422828Y-88876514D02*
X126394256Y-88762228D01*
X126394256Y-88762228D02*
X126365685Y-88705085D01*
X126365685Y-88705085D02*
X126308542Y-88647942D01*
X126308542Y-88647942D02*
X126222828Y-88619371D01*
X126222828Y-88619371D02*
X126165685Y-88619371D01*
X126165685Y-88619371D02*
X126079971Y-88647942D01*
X126079971Y-88647942D02*
X126051399Y-88676514D01*
X125508542Y-88619371D02*
X125794256Y-88619371D01*
X125794256Y-88619371D02*
X125822828Y-88905085D01*
X125822828Y-88905085D02*
X125794256Y-88876514D01*
X125794256Y-88876514D02*
X125737114Y-88847942D01*
X125737114Y-88847942D02*
X125594256Y-88847942D01*
X125594256Y-88847942D02*
X125537114Y-88876514D01*
X125537114Y-88876514D02*
X125508542Y-88905085D01*
X125508542Y-88905085D02*
X125479971Y-88962228D01*
X125479971Y-88962228D02*
X125479971Y-89105085D01*
X125479971Y-89105085D02*
X125508542Y-89162228D01*
X125508542Y-89162228D02*
X125537114Y-89190800D01*
X125537114Y-89190800D02*
X125594256Y-89219371D01*
X125594256Y-89219371D02*
X125737114Y-89219371D01*
X125737114Y-89219371D02*
X125794256Y-89190800D01*
X125794256Y-89190800D02*
X125822828Y-89162228D01*
X126051399Y-80526228D02*
X126079971Y-80554800D01*
X126079971Y-80554800D02*
X126165685Y-80583371D01*
X126165685Y-80583371D02*
X126222828Y-80583371D01*
X126222828Y-80583371D02*
X126308542Y-80554800D01*
X126308542Y-80554800D02*
X126365685Y-80497657D01*
X126365685Y-80497657D02*
X126394256Y-80440514D01*
X126394256Y-80440514D02*
X126422828Y-80326228D01*
X126422828Y-80326228D02*
X126422828Y-80240514D01*
X126422828Y-80240514D02*
X126394256Y-80126228D01*
X126394256Y-80126228D02*
X126365685Y-80069085D01*
X126365685Y-80069085D02*
X126308542Y-80011942D01*
X126308542Y-80011942D02*
X126222828Y-79983371D01*
X126222828Y-79983371D02*
X126165685Y-79983371D01*
X126165685Y-79983371D02*
X126079971Y-80011942D01*
X126079971Y-80011942D02*
X126051399Y-80040514D01*
X125537114Y-79983371D02*
X125651399Y-79983371D01*
X125651399Y-79983371D02*
X125708542Y-80011942D01*
X125708542Y-80011942D02*
X125737114Y-80040514D01*
X125737114Y-80040514D02*
X125794256Y-80126228D01*
X125794256Y-80126228D02*
X125822828Y-80240514D01*
X125822828Y-80240514D02*
X125822828Y-80469085D01*
X125822828Y-80469085D02*
X125794256Y-80526228D01*
X125794256Y-80526228D02*
X125765685Y-80554800D01*
X125765685Y-80554800D02*
X125708542Y-80583371D01*
X125708542Y-80583371D02*
X125594256Y-80583371D01*
X125594256Y-80583371D02*
X125537114Y-80554800D01*
X125537114Y-80554800D02*
X125508542Y-80526228D01*
X125508542Y-80526228D02*
X125479971Y-80469085D01*
X125479971Y-80469085D02*
X125479971Y-80326228D01*
X125479971Y-80326228D02*
X125508542Y-80269085D01*
X125508542Y-80269085D02*
X125537114Y-80240514D01*
X125537114Y-80240514D02*
X125594256Y-80211942D01*
X125594256Y-80211942D02*
X125708542Y-80211942D01*
X125708542Y-80211942D02*
X125765685Y-80240514D01*
X125765685Y-80240514D02*
X125794256Y-80269085D01*
X125794256Y-80269085D02*
X125822828Y-80326228D01*
X132179999Y-81449428D02*
X132208571Y-81478000D01*
X132208571Y-81478000D02*
X132294285Y-81506571D01*
X132294285Y-81506571D02*
X132351428Y-81506571D01*
X132351428Y-81506571D02*
X132437142Y-81478000D01*
X132437142Y-81478000D02*
X132494285Y-81420857D01*
X132494285Y-81420857D02*
X132522856Y-81363714D01*
X132522856Y-81363714D02*
X132551428Y-81249428D01*
X132551428Y-81249428D02*
X132551428Y-81163714D01*
X132551428Y-81163714D02*
X132522856Y-81049428D01*
X132522856Y-81049428D02*
X132494285Y-80992285D01*
X132494285Y-80992285D02*
X132437142Y-80935142D01*
X132437142Y-80935142D02*
X132351428Y-80906571D01*
X132351428Y-80906571D02*
X132294285Y-80906571D01*
X132294285Y-80906571D02*
X132208571Y-80935142D01*
X132208571Y-80935142D02*
X132179999Y-80963714D01*
X131979999Y-80906571D02*
X131579999Y-80906571D01*
X131579999Y-80906571D02*
X131837142Y-81506571D01*
X130909999Y-92160628D02*
X130938571Y-92189200D01*
X130938571Y-92189200D02*
X131024285Y-92217771D01*
X131024285Y-92217771D02*
X131081428Y-92217771D01*
X131081428Y-92217771D02*
X131167142Y-92189200D01*
X131167142Y-92189200D02*
X131224285Y-92132057D01*
X131224285Y-92132057D02*
X131252856Y-92074914D01*
X131252856Y-92074914D02*
X131281428Y-91960628D01*
X131281428Y-91960628D02*
X131281428Y-91874914D01*
X131281428Y-91874914D02*
X131252856Y-91760628D01*
X131252856Y-91760628D02*
X131224285Y-91703485D01*
X131224285Y-91703485D02*
X131167142Y-91646342D01*
X131167142Y-91646342D02*
X131081428Y-91617771D01*
X131081428Y-91617771D02*
X131024285Y-91617771D01*
X131024285Y-91617771D02*
X130938571Y-91646342D01*
X130938571Y-91646342D02*
X130909999Y-91674914D01*
X130624285Y-92217771D02*
X130509999Y-92217771D01*
X130509999Y-92217771D02*
X130452856Y-92189200D01*
X130452856Y-92189200D02*
X130424285Y-92160628D01*
X130424285Y-92160628D02*
X130367142Y-92074914D01*
X130367142Y-92074914D02*
X130338571Y-91960628D01*
X130338571Y-91960628D02*
X130338571Y-91732057D01*
X130338571Y-91732057D02*
X130367142Y-91674914D01*
X130367142Y-91674914D02*
X130395714Y-91646342D01*
X130395714Y-91646342D02*
X130452856Y-91617771D01*
X130452856Y-91617771D02*
X130567142Y-91617771D01*
X130567142Y-91617771D02*
X130624285Y-91646342D01*
X130624285Y-91646342D02*
X130652856Y-91674914D01*
X130652856Y-91674914D02*
X130681428Y-91732057D01*
X130681428Y-91732057D02*
X130681428Y-91874914D01*
X130681428Y-91874914D02*
X130652856Y-91932057D01*
X130652856Y-91932057D02*
X130624285Y-91960628D01*
X130624285Y-91960628D02*
X130567142Y-91989200D01*
X130567142Y-91989200D02*
X130452856Y-91989200D01*
X130452856Y-91989200D02*
X130395714Y-91960628D01*
X130395714Y-91960628D02*
X130367142Y-91932057D01*
X130367142Y-91932057D02*
X130338571Y-91874914D01*
X132600428Y-88262900D02*
X132629000Y-88234328D01*
X132629000Y-88234328D02*
X132657571Y-88148614D01*
X132657571Y-88148614D02*
X132657571Y-88091471D01*
X132657571Y-88091471D02*
X132629000Y-88005757D01*
X132629000Y-88005757D02*
X132571857Y-87948614D01*
X132571857Y-87948614D02*
X132514714Y-87920043D01*
X132514714Y-87920043D02*
X132400428Y-87891471D01*
X132400428Y-87891471D02*
X132314714Y-87891471D01*
X132314714Y-87891471D02*
X132200428Y-87920043D01*
X132200428Y-87920043D02*
X132143285Y-87948614D01*
X132143285Y-87948614D02*
X132086142Y-88005757D01*
X132086142Y-88005757D02*
X132057571Y-88091471D01*
X132057571Y-88091471D02*
X132057571Y-88148614D01*
X132057571Y-88148614D02*
X132086142Y-88234328D01*
X132086142Y-88234328D02*
X132114714Y-88262900D01*
X132314714Y-88605757D02*
X132286142Y-88548614D01*
X132286142Y-88548614D02*
X132257571Y-88520043D01*
X132257571Y-88520043D02*
X132200428Y-88491471D01*
X132200428Y-88491471D02*
X132171857Y-88491471D01*
X132171857Y-88491471D02*
X132114714Y-88520043D01*
X132114714Y-88520043D02*
X132086142Y-88548614D01*
X132086142Y-88548614D02*
X132057571Y-88605757D01*
X132057571Y-88605757D02*
X132057571Y-88720043D01*
X132057571Y-88720043D02*
X132086142Y-88777186D01*
X132086142Y-88777186D02*
X132114714Y-88805757D01*
X132114714Y-88805757D02*
X132171857Y-88834328D01*
X132171857Y-88834328D02*
X132200428Y-88834328D01*
X132200428Y-88834328D02*
X132257571Y-88805757D01*
X132257571Y-88805757D02*
X132286142Y-88777186D01*
X132286142Y-88777186D02*
X132314714Y-88720043D01*
X132314714Y-88720043D02*
X132314714Y-88605757D01*
X132314714Y-88605757D02*
X132343285Y-88548614D01*
X132343285Y-88548614D02*
X132371857Y-88520043D01*
X132371857Y-88520043D02*
X132429000Y-88491471D01*
X132429000Y-88491471D02*
X132543285Y-88491471D01*
X132543285Y-88491471D02*
X132600428Y-88520043D01*
X132600428Y-88520043D02*
X132629000Y-88548614D01*
X132629000Y-88548614D02*
X132657571Y-88605757D01*
X132657571Y-88605757D02*
X132657571Y-88720043D01*
X132657571Y-88720043D02*
X132629000Y-88777186D01*
X132629000Y-88777186D02*
X132600428Y-88805757D01*
X132600428Y-88805757D02*
X132543285Y-88834328D01*
X132543285Y-88834328D02*
X132429000Y-88834328D01*
X132429000Y-88834328D02*
X132371857Y-88805757D01*
X132371857Y-88805757D02*
X132343285Y-88777186D01*
X132343285Y-88777186D02*
X132314714Y-88720043D01*
D11*
%TO.C,Y1*%
X124886400Y-84349600D02*
X124886400Y-84509600D01*
X127386400Y-84349600D02*
X127386400Y-84509600D01*
D12*
X128436400Y-83329600D02*
G75*
G03*
X128436400Y-83329600I-100000J0D01*
G01*
%TO.C,U3*%
D13*
X124650000Y-85078428D02*
G75*
G03*
X124650000Y-85078428I-125000J0D01*
G01*
D10*
X123925000Y-83653428D02*
X123925000Y-80103428D01*
X123925000Y-83653428D02*
X117375000Y-83653428D01*
X117375000Y-83653428D02*
X117375000Y-80103428D01*
X123925000Y-80103428D02*
X117375000Y-80103428D01*
D14*
%TO.C,R8*%
X109451224Y-88377500D02*
X108941776Y-88377500D01*
X109451224Y-89422500D02*
X108941776Y-89422500D01*
%TO.C,R9*%
X108965276Y-86374500D02*
X109474724Y-86374500D01*
X108965276Y-85329500D02*
X109474724Y-85329500D01*
%TO.C,FB1*%
X134161800Y-84617579D02*
X134161800Y-84952821D01*
X133401800Y-84617579D02*
X133401800Y-84952821D01*
%TO.C,C4*%
X121646733Y-88521000D02*
X121939267Y-88521000D01*
X121646733Y-87501000D02*
X121939267Y-87501000D01*
%TO.C,C5*%
X126038065Y-87889600D02*
X126269735Y-87889600D01*
X126038065Y-87169600D02*
X126269735Y-87169600D01*
%TO.C,C6*%
X126067235Y-80969600D02*
X125835565Y-80969600D01*
X126067235Y-81689600D02*
X125835565Y-81689600D01*
%TO.C,C7*%
X131933733Y-80316800D02*
X132226267Y-80316800D01*
X131933733Y-79296800D02*
X132226267Y-79296800D01*
%TO.C,C9*%
X131210267Y-90168000D02*
X130917733Y-90168000D01*
X131210267Y-91188000D02*
X130917733Y-91188000D01*
%TO.C,C8*%
X131951000Y-85197733D02*
X131951000Y-85490267D01*
X132971000Y-85197733D02*
X132971000Y-85490267D01*
%TD*%
M02*
