%TF.GenerationSoftware,KiCad,Pcbnew,7.0.6*%
%TF.CreationDate,2023-11-01T23:53:57-04:00*%
%TF.ProjectId,FT2232_Board,46543232-3332-45f4-926f-6172642e6b69,rev?*%
%TF.SameCoordinates,Original*%
%TF.FileFunction,Copper,L1,Top*%
%TF.FilePolarity,Positive*%
%FSLAX46Y46*%
G04 Gerber Fmt 4.6, Leading zero omitted, Abs format (unit mm)*
G04 Created by KiCad (PCBNEW 7.0.6) date 2023-11-01 23:53:57*
%MOMM*%
%LPD*%
G01*
G04 APERTURE LIST*
G04 Aperture macros list*
%AMRoundRect*
0 Rectangle with rounded corners*
0 $1 Rounding radius*
0 $2 $3 $4 $5 $6 $7 $8 $9 X,Y pos of 4 corners*
0 Add a 4 corners polygon primitive as box body*
4,1,4,$2,$3,$4,$5,$6,$7,$8,$9,$2,$3,0*
0 Add four circle primitives for the rounded corners*
1,1,$1+$1,$2,$3*
1,1,$1+$1,$4,$5*
1,1,$1+$1,$6,$7*
1,1,$1+$1,$8,$9*
0 Add four rect primitives between the rounded corners*
20,1,$1+$1,$2,$3,$4,$5,0*
20,1,$1+$1,$4,$5,$6,$7,0*
20,1,$1+$1,$6,$7,$8,$9,0*
20,1,$1+$1,$8,$9,$2,$3,0*%
G04 Aperture macros list end*
%TA.AperFunction,ComponentPad*%
%ADD10C,0.800000*%
%TD*%
%TA.AperFunction,ComponentPad*%
%ADD11C,5.400000*%
%TD*%
%TA.AperFunction,SMDPad,CuDef*%
%ADD12R,1.270000X0.558800*%
%TD*%
%TA.AperFunction,SMDPad,CuDef*%
%ADD13RoundRect,0.062500X-0.337500X-0.062500X0.337500X-0.062500X0.337500X0.062500X-0.337500X0.062500X0*%
%TD*%
%TA.AperFunction,SMDPad,CuDef*%
%ADD14RoundRect,0.062500X-0.062500X-0.337500X0.062500X-0.337500X0.062500X0.337500X-0.062500X0.337500X0*%
%TD*%
%TA.AperFunction,SMDPad,CuDef*%
%ADD15R,4.350000X4.350000*%
%TD*%
%TA.AperFunction,SMDPad,CuDef*%
%ADD16RoundRect,0.237500X-0.250000X-0.237500X0.250000X-0.237500X0.250000X0.237500X-0.250000X0.237500X0*%
%TD*%
%TA.AperFunction,SMDPad,CuDef*%
%ADD17RoundRect,0.237500X0.250000X0.237500X-0.250000X0.237500X-0.250000X-0.237500X0.250000X-0.237500X0*%
%TD*%
%TA.AperFunction,SMDPad,CuDef*%
%ADD18RoundRect,0.237500X0.237500X-0.250000X0.237500X0.250000X-0.237500X0.250000X-0.237500X-0.250000X0*%
%TD*%
%TA.AperFunction,SMDPad,CuDef*%
%ADD19RoundRect,0.237500X-0.237500X0.250000X-0.237500X-0.250000X0.237500X-0.250000X0.237500X0.250000X0*%
%TD*%
%TA.AperFunction,ComponentPad*%
%ADD20R,1.700000X1.700000*%
%TD*%
%TA.AperFunction,ComponentPad*%
%ADD21O,1.700000X1.700000*%
%TD*%
%TA.AperFunction,SMDPad,CuDef*%
%ADD22R,1.000000X0.520000*%
%TD*%
%TA.AperFunction,SMDPad,CuDef*%
%ADD23R,1.000000X0.270000*%
%TD*%
%TA.AperFunction,SMDPad,CuDef*%
%ADD24R,2.000000X1.000000*%
%TD*%
%TA.AperFunction,ComponentPad*%
%ADD25O,2.316000X1.158000*%
%TD*%
%TA.AperFunction,ComponentPad*%
%ADD26O,2.400000X1.200000*%
%TD*%
%TA.AperFunction,SMDPad,CuDef*%
%ADD27RoundRect,0.237500X-0.287500X-0.237500X0.287500X-0.237500X0.287500X0.237500X-0.287500X0.237500X0*%
%TD*%
%TA.AperFunction,SMDPad,CuDef*%
%ADD28RoundRect,0.237500X0.237500X-0.287500X0.237500X0.287500X-0.237500X0.287500X-0.237500X-0.287500X0*%
%TD*%
%TA.AperFunction,SMDPad,CuDef*%
%ADD29RoundRect,0.237500X0.237500X-0.300000X0.237500X0.300000X-0.237500X0.300000X-0.237500X-0.300000X0*%
%TD*%
%TA.AperFunction,SMDPad,CuDef*%
%ADD30RoundRect,0.237500X-0.237500X0.300000X-0.237500X-0.300000X0.237500X-0.300000X0.237500X0.300000X0*%
%TD*%
%TA.AperFunction,ViaPad*%
%ADD31C,0.900000*%
%TD*%
%TA.AperFunction,Conductor*%
%ADD32C,0.200000*%
%TD*%
%TA.AperFunction,Conductor*%
%ADD33C,0.250000*%
%TD*%
%TA.AperFunction,Conductor*%
%ADD34C,0.300000*%
%TD*%
G04 APERTURE END LIST*
D10*
%TO.P,H2,1,1*%
%TO.N,GND*%
X147107309Y-99475891D03*
D11*
X148539200Y-98044000D03*
D10*
X148539200Y-100069000D03*
X149971091Y-96612109D03*
X146514200Y-98044000D03*
X148539200Y-96019000D03*
X150564200Y-98044000D03*
X149971091Y-99475891D03*
X147107309Y-96612109D03*
%TD*%
%TO.P,H1,1,1*%
%TO.N,GND*%
X112868109Y-80171891D03*
D11*
X114300000Y-78740000D03*
D10*
X114300000Y-80765000D03*
X115731891Y-77308109D03*
X112275000Y-78740000D03*
X114300000Y-76715000D03*
X116325000Y-78740000D03*
X115731891Y-80171891D03*
X112868109Y-77308109D03*
%TD*%
D12*
%TO.P,U1,1,DO*%
%TO.N,Net-(U102-DO)*%
X133375400Y-80721200D03*
%TO.P,U1,2,VSS*%
%TO.N,GND*%
X133375400Y-79781400D03*
%TO.P,U1,3,DI*%
%TO.N,/EEDATA*%
X133375400Y-78841600D03*
%TO.P,U1,4,CLK*%
%TO.N,/EECLK*%
X130784600Y-78841600D03*
%TO.P,U1,5,CS*%
%TO.N,/EECS*%
X130784600Y-79781400D03*
%TO.P,U1,6,VCC*%
%TO.N,/3.3V*%
X130784600Y-80721200D03*
%TD*%
D13*
%TO.P,U2,1,GND*%
%TO.N,GND*%
X130096000Y-83700000D03*
%TO.P,U2,2,OSCI*%
%TO.N,Net-(U101-OSCI)*%
X130096000Y-84200000D03*
%TO.P,U2,3,OSCO*%
%TO.N,Net-(U101-OSCO)*%
X130096000Y-84700000D03*
%TO.P,U2,4,VPHY*%
%TO.N,Net-(U101-VPHY)*%
X130096000Y-85200000D03*
%TO.P,U2,5,GND*%
%TO.N,GND*%
X130096000Y-85700000D03*
%TO.P,U2,6,REF*%
%TO.N,Net-(U101-REF)*%
X130096000Y-86200000D03*
%TO.P,U2,7,DM*%
%TO.N,/USB_DM*%
X130096000Y-86700000D03*
%TO.P,U2,8,DP*%
%TO.N,/USB_DP*%
X130096000Y-87200000D03*
%TO.P,U2,9,VPLL*%
%TO.N,Net-(U101-VPHY)*%
X130096000Y-87700000D03*
%TO.P,U2,10,AGND*%
%TO.N,GND*%
X130096000Y-88200000D03*
%TO.P,U2,11,GND*%
X130096000Y-88700000D03*
%TO.P,U2,12,VCORE*%
%TO.N,/1.8V*%
X130096000Y-89200000D03*
%TO.P,U2,13,TEST*%
%TO.N,GND*%
X130096000Y-89700000D03*
%TO.P,U2,14,~{RESET}*%
%TO.N,/RESET_N*%
X130096000Y-90200000D03*
%TO.P,U2,15,GND*%
%TO.N,GND*%
X130096000Y-90700000D03*
%TO.P,U2,16,ADBUS0*%
%TO.N,/TCK*%
X130096000Y-91200000D03*
D14*
%TO.P,U2,17,ADBUS1*%
%TO.N,/TDI*%
X130796000Y-91900000D03*
%TO.P,U2,18,ADBUS2*%
%TO.N,/TDO*%
X131296000Y-91900000D03*
%TO.P,U2,19,ADBUS3*%
%TO.N,/TMS*%
X131796000Y-91900000D03*
%TO.P,U2,20,VCCIO*%
%TO.N,/VCCIO*%
X132296000Y-91900000D03*
%TO.P,U2,21,ADBUS4*%
%TO.N,/GPIOL0*%
X132796000Y-91900000D03*
%TO.P,U2,22,ADBUS5*%
%TO.N,/GPIOL1*%
X133296000Y-91900000D03*
%TO.P,U2,23,ADBUS6*%
%TO.N,/GPIOL2*%
X133796000Y-91900000D03*
%TO.P,U2,24,ADBUS7*%
%TO.N,/GPIOL3*%
X134296000Y-91900000D03*
%TO.P,U2,25,GND*%
%TO.N,GND*%
X134796000Y-91900000D03*
%TO.P,U2,26,ACBUS0*%
%TO.N,/GPIOH0*%
X135296000Y-91900000D03*
%TO.P,U2,27,ACBUS1*%
%TO.N,/GPIOH1*%
X135796000Y-91900000D03*
%TO.P,U2,28,ACBUS2*%
%TO.N,/GPIOH2*%
X136296000Y-91900000D03*
%TO.P,U2,29,ACBUS3*%
%TO.N,/GPIOH3*%
X136796000Y-91900000D03*
%TO.P,U2,30,ACBUS4*%
%TO.N,/GPIOH4*%
X137296000Y-91900000D03*
%TO.P,U2,31,VCCIO*%
%TO.N,/VCCIO*%
X137796000Y-91900000D03*
%TO.P,U2,32,ACBUS5*%
%TO.N,/GPIOH5*%
X138296000Y-91900000D03*
D13*
%TO.P,U2,33,ACBUS6*%
%TO.N,/GPIOH6*%
X138996000Y-91200000D03*
%TO.P,U2,34,ACBUS7*%
%TO.N,/GPIOH7*%
X138996000Y-90700000D03*
%TO.P,U2,35,GND*%
%TO.N,GND*%
X138996000Y-90200000D03*
%TO.P,U2,36,~{SUSPEND}*%
%TO.N,unconnected-(U101-~{SUSPEND}-Pad36)*%
X138996000Y-89700000D03*
%TO.P,U2,37,VCORE*%
%TO.N,/1.8V*%
X138996000Y-89200000D03*
%TO.P,U2,38,BDBUS0*%
%TO.N,/UART_TX_OUT*%
X138996000Y-88700000D03*
%TO.P,U2,39,BDBUS1*%
%TO.N,/UART_RX_IN*%
X138996000Y-88200000D03*
%TO.P,U2,40,BDBUS2*%
%TO.N,/UART_RTS_OUT*%
X138996000Y-87700000D03*
%TO.P,U2,41,BDBUS3*%
%TO.N,/UART_CTS_IN*%
X138996000Y-87200000D03*
%TO.P,U2,42,VCCIO*%
%TO.N,/VCCIO*%
X138996000Y-86700000D03*
%TO.P,U2,43,BDBUS4*%
%TO.N,/UART_DTR_OUT*%
X138996000Y-86200000D03*
%TO.P,U2,44,BDBUS5*%
%TO.N,/UART_DSR_IN*%
X138996000Y-85700000D03*
%TO.P,U2,45,BDBUS6*%
%TO.N,/UART_DCD_IN*%
X138996000Y-85200000D03*
%TO.P,U2,46,BDBUS7*%
%TO.N,/UART_RI_IN*%
X138996000Y-84700000D03*
%TO.P,U2,47,GND*%
%TO.N,GND*%
X138996000Y-84200000D03*
%TO.P,U2,48,BCBUS0*%
%TO.N,/TXDEN_OUT*%
X138996000Y-83700000D03*
D14*
%TO.P,U2,49,VREGOUT*%
%TO.N,/1.8V*%
X138296000Y-83000000D03*
%TO.P,U2,50,VREGIN*%
%TO.N,/3.3V*%
X137796000Y-83000000D03*
%TO.P,U2,51,GND*%
%TO.N,GND*%
X137296000Y-83000000D03*
%TO.P,U2,52,BCBUS1*%
%TO.N,unconnected-(U101-BCBUS1-Pad52)*%
X136796000Y-83000000D03*
%TO.P,U2,53,BCBUS2*%
%TO.N,unconnected-(U101-BCBUS2-Pad53)*%
X136296000Y-83000000D03*
%TO.P,U2,54,BCBUS3*%
%TO.N,/RX_LED*%
X135796000Y-83000000D03*
%TO.P,U2,55,BCBUS4*%
%TO.N,/TX_LED*%
X135296000Y-83000000D03*
%TO.P,U2,56,VCCIO*%
%TO.N,/VCCIO*%
X134796000Y-83000000D03*
%TO.P,U2,57,BCBUS5*%
%TO.N,unconnected-(U101-BCBUS5-Pad57)*%
X134296000Y-83000000D03*
%TO.P,U2,58,BCBUS6*%
%TO.N,unconnected-(U101-BCBUS6-Pad58)*%
X133796000Y-83000000D03*
%TO.P,U2,59,BCBUS7*%
%TO.N,unconnected-(U101-BCBUS7-Pad59)*%
X133296000Y-83000000D03*
%TO.P,U2,60,~{PWREN}*%
%TO.N,unconnected-(U101-~{PWREN}-Pad60)*%
X132796000Y-83000000D03*
%TO.P,U2,61,EEDATA*%
%TO.N,/EEDATA*%
X132296000Y-83000000D03*
%TO.P,U2,62,EECLK*%
%TO.N,/EECLK*%
X131796000Y-83000000D03*
%TO.P,U2,63,EECS*%
%TO.N,/EECS*%
X131296000Y-83000000D03*
%TO.P,U2,64,VCORE*%
%TO.N,/1.8V*%
X130796000Y-83000000D03*
D15*
%TO.P,U2,65,GND*%
%TO.N,GND*%
X134546000Y-87450000D03*
%TD*%
D16*
%TO.P,R1,1*%
%TO.N,/3.3V*%
X108307500Y-80264000D03*
%TO.P,R1,2*%
%TO.N,Net-(D103-A)*%
X110132500Y-80264000D03*
%TD*%
D17*
%TO.P,R7,1*%
%TO.N,/VCCIO*%
X142644500Y-78740000D03*
%TO.P,R7,2*%
%TO.N,/3.3V*%
X140819500Y-78740000D03*
%TD*%
D18*
%TO.P,R4,2*%
%TO.N,Net-(D102-A)*%
X122555000Y-90146500D03*
%TO.P,R4,1*%
%TO.N,/RX_LED*%
X122555000Y-91971500D03*
%TD*%
%TO.P,R5,1*%
%TO.N,/TX_LED*%
X118364000Y-91948000D03*
%TO.P,R5,2*%
%TO.N,Net-(D101-A)*%
X118364000Y-90123000D03*
%TD*%
D19*
%TO.P,R2,2*%
%TO.N,Net-(U102-DO)*%
X135890000Y-79347700D03*
%TO.P,R2,1*%
%TO.N,/EEDATA*%
X135890000Y-77522700D03*
%TD*%
D17*
%TO.P,R3,1*%
%TO.N,Net-(U101-REF)*%
X125931300Y-85344000D03*
%TO.P,R3,2*%
%TO.N,GND*%
X124106300Y-85344000D03*
%TD*%
D19*
%TO.P,R6,1*%
%TO.N,/RESET_N*%
X125476000Y-90123000D03*
%TO.P,R6,2*%
%TO.N,/3.3V*%
X125476000Y-91948000D03*
%TD*%
D20*
%TO.P,J4,1,Pin_1*%
%TO.N,/VCCIO*%
X147315000Y-76835000D03*
D21*
%TO.P,J4,2,Pin_2*%
%TO.N,GND*%
X149855000Y-76835000D03*
%TD*%
D20*
%TO.P,J3,1,Pin_1*%
%TO.N,GND*%
X127000000Y-99060000D03*
D21*
%TO.P,J3,2,Pin_2*%
%TO.N,/VCCIO*%
X127000000Y-96520000D03*
%TO.P,J3,3,Pin_3*%
%TO.N,/GPIOL0*%
X129540000Y-99060000D03*
%TO.P,J3,4,Pin_4*%
%TO.N,/GPIOH0*%
X129540000Y-96520000D03*
%TO.P,J3,5,Pin_5*%
%TO.N,/GPIOL1*%
X132080000Y-99060000D03*
%TO.P,J3,6,Pin_6*%
%TO.N,/GPIOH1*%
X132080000Y-96520000D03*
%TO.P,J3,7,Pin_7*%
%TO.N,/GPIOL2*%
X134620000Y-99060000D03*
%TO.P,J3,8,Pin_8*%
%TO.N,/GPIOH2*%
X134620000Y-96520000D03*
%TO.P,J3,9,Pin_9*%
%TO.N,/GPIOL3*%
X137160000Y-99060000D03*
%TO.P,J3,10,Pin_10*%
%TO.N,/GPIOH3*%
X137160000Y-96520000D03*
%TO.P,J3,11,Pin_11*%
%TO.N,/GPIOH6*%
X139700000Y-99060000D03*
%TO.P,J3,12,Pin_12*%
%TO.N,/GPIOH4*%
X139700000Y-96520000D03*
%TO.P,J3,13,Pin_13*%
%TO.N,/GPIOH7*%
X142240000Y-99060000D03*
%TO.P,J3,14,Pin_14*%
%TO.N,/GPIOH5*%
X142240000Y-96520000D03*
%TD*%
D20*
%TO.P,J5,1,Pin_1*%
%TO.N,/UART_TX_OUT*%
X149860000Y-92710000D03*
D21*
%TO.P,J5,2,Pin_2*%
%TO.N,GND*%
X147320000Y-92710000D03*
%TO.P,J5,3,Pin_3*%
%TO.N,/UART_RX_IN*%
X149860000Y-90170000D03*
%TO.P,J5,4,Pin_4*%
%TO.N,/TXDEN_OUT*%
X147320000Y-90170000D03*
%TO.P,J5,5,Pin_5*%
%TO.N,/UART_RTS_OUT*%
X149860000Y-87630000D03*
%TO.P,J5,6,Pin_6*%
%TO.N,/UART_RI_IN*%
X147320000Y-87630000D03*
%TO.P,J5,7,Pin_7*%
%TO.N,/UART_CTS_IN*%
X149860000Y-85090000D03*
%TO.P,J5,8,Pin_8*%
%TO.N,/UART_DCD_IN*%
X147320000Y-85090000D03*
%TO.P,J5,9,Pin_9*%
%TO.N,/UART_DTR_OUT*%
X149860000Y-82550000D03*
%TO.P,J5,10,Pin_10*%
%TO.N,/UART_DSR_IN*%
X147320000Y-82550000D03*
%TD*%
D20*
%TO.P,J2,1,Pin_1*%
%TO.N,/TCK*%
X111760000Y-99060000D03*
D21*
%TO.P,J2,2,Pin_2*%
%TO.N,/VCCIO*%
X111760000Y-96520000D03*
%TO.P,J2,3,Pin_3*%
%TO.N,GND*%
X114300000Y-99060000D03*
%TO.P,J2,4,Pin_4*%
X114300000Y-96520000D03*
%TO.P,J2,5,Pin_5*%
%TO.N,/TDI*%
X116840000Y-99060000D03*
%TO.P,J2,6,Pin_6*%
%TO.N,GND*%
X116840000Y-96520000D03*
%TO.P,J2,7,Pin_7*%
%TO.N,/TMS*%
X119380000Y-99060000D03*
%TO.P,J2,8,Pin_8*%
%TO.N,GND*%
X119380000Y-96520000D03*
%TO.P,J2,9,Pin_9*%
%TO.N,/TDO*%
X121920000Y-99060000D03*
%TO.P,J2,10,Pin_10*%
%TO.N,unconnected-(J102-Pin_10-Pad10)*%
X121920000Y-96520000D03*
%TD*%
D22*
%TO.P,J1,1,GND*%
%TO.N,GND*%
X112898500Y-84528000D03*
%TO.P,J1,2,VBUS*%
%TO.N,/USB_5V*%
X112898500Y-85278000D03*
D23*
%TO.P,J1,3,CC1*%
%TO.N,Net-(J101-CC1)*%
X112898500Y-85878000D03*
%TO.P,J1,4,SBU2*%
%TO.N,unconnected-(J101-SBU2-Pad4)*%
X112898500Y-86378000D03*
%TO.P,J1,5,D-*%
%TO.N,/USB_DP*%
X112898500Y-86878000D03*
%TO.P,J1,6,D+*%
%TO.N,/USB_DM*%
X112898500Y-87378000D03*
%TO.P,J1,7,D+*%
X112898500Y-87878000D03*
%TO.P,J1,8,D-*%
%TO.N,/USB_DP*%
X112898500Y-88378000D03*
%TO.P,J1,9,CC2*%
%TO.N,Net-(J101-CC2)*%
X112898500Y-88878000D03*
%TO.P,J1,10,SBU1*%
%TO.N,unconnected-(J101-SBU1-Pad10)*%
X112898500Y-89378000D03*
D22*
%TO.P,J1,11,VBUS*%
%TO.N,/USB_5V*%
X112898500Y-89978000D03*
%TO.P,J1,12,GND*%
%TO.N,GND*%
X112898500Y-90728000D03*
D24*
%TO.P,J1,S1,SHIELD*%
X108698500Y-86228000D03*
%TO.P,J1,S2,SHIELD*%
X108698500Y-89028000D03*
D25*
%TO.P,J1,S3,SHIELD*%
X112523500Y-83308000D03*
%TO.P,J1,S4,SHIELD*%
X112523500Y-91948000D03*
D26*
%TO.P,J1,S5,SHIELD*%
X108698500Y-83308000D03*
%TO.P,J1,S6,SHIELD*%
X108698500Y-91948000D03*
%TD*%
D27*
%TO.P,D1,2,A*%
%TO.N,Net-(D103-A)*%
X110095000Y-78232000D03*
%TO.P,D1,1,K*%
%TO.N,GND*%
X108345000Y-78232000D03*
%TD*%
D28*
%TO.P,D2,2,A*%
%TO.N,Net-(D102-A)*%
X120555000Y-90184000D03*
%TO.P,D2,1,K*%
%TO.N,GND*%
X120555000Y-91934000D03*
%TD*%
%TO.P,D3,1,K*%
%TO.N,GND*%
X116364000Y-91910500D03*
%TO.P,D3,2,A*%
%TO.N,Net-(D101-A)*%
X116364000Y-90160500D03*
%TD*%
D29*
%TO.P,C1,2*%
%TO.N,GND*%
X115570000Y-83592500D03*
%TO.P,C1,1*%
%TO.N,/USB_5V*%
X115570000Y-85317500D03*
%TD*%
%TO.P,C2,2*%
%TO.N,GND*%
X127203200Y-79756000D03*
%TO.P,C2,1*%
%TO.N,/1.8V*%
X127203200Y-81481000D03*
%TD*%
D30*
%TO.P,C3,2*%
%TO.N,GND*%
X127508000Y-91898000D03*
%TO.P,C3,1*%
%TO.N,/RESET_N*%
X127508000Y-90173000D03*
%TD*%
D31*
%TO.N,GND*%
X140360400Y-93573600D03*
X150571200Y-79908400D03*
X132080000Y-76606400D03*
X108254800Y-100126800D03*
X108356400Y-75641200D03*
%TO.N,Net-(U101-OSCO)*%
X128676400Y-85344000D03*
%TO.N,Net-(U101-OSCI)*%
X128574800Y-84175600D03*
%TO.N,GND*%
X140817600Y-80721200D03*
X117957600Y-81991200D03*
X117602000Y-88442800D03*
X124256800Y-88696800D03*
X120548400Y-93370400D03*
%TO.N,/TX_LED*%
X135763000Y-81407000D03*
%TO.N,/RX_LED*%
X136779000Y-81915000D03*
X122555000Y-93495500D03*
%TO.N,/TX_LED*%
X118364000Y-93472000D03*
%TO.N,/3.3V*%
X124142500Y-91630500D03*
%TO.N,GND*%
X128905000Y-91567000D03*
%TO.N,/GPIOL0*%
X133604000Y-90424000D03*
%TO.N,/GPIOL2*%
X135128000Y-90424000D03*
%TO.N,/GPIOL1*%
X133350000Y-94100500D03*
%TO.N,/GPIOL3*%
X134546500Y-92964000D03*
%TO.N,/TXDEN_OUT*%
X140970000Y-83185000D03*
%TO.N,/UART_RI_IN*%
X142240000Y-82550000D03*
%TO.N,/UART_DCD_IN*%
X142735500Y-83820000D03*
%TO.N,/UART_DSR_IN*%
X143510000Y-82550000D03*
%TO.N,Net-(U101-VPHY)*%
X131191000Y-87376000D03*
X131191000Y-84836000D03*
%TO.N,/3.3V*%
X120650000Y-83058000D03*
X120650000Y-76758800D03*
%TO.N,GND*%
X123190000Y-81991200D03*
%TO.N,/3.3V*%
X108331000Y-81661000D03*
%TO.N,Net-(J101-CC2)*%
X111633000Y-88900000D03*
%TO.N,Net-(J101-CC1)*%
X111633000Y-85852000D03*
%TO.N,GND*%
X108331000Y-87503000D03*
%TO.N,/USB_5V*%
X116840000Y-85278000D03*
X114808000Y-89712800D03*
%TO.N,GND*%
X134620000Y-79781400D03*
%TO.N,/VCCIO*%
X132296000Y-93472000D03*
%TO.N,/1.8V*%
X128778000Y-89200000D03*
X137668000Y-89154000D03*
%TO.N,GND*%
X134620000Y-87376000D03*
X132842000Y-89154000D03*
X136144000Y-89154000D03*
X136144000Y-85852000D03*
X127203200Y-78232000D03*
%TO.N,/1.8V*%
X129794000Y-82550000D03*
%TO.N,/3.3V*%
X129286000Y-80721200D03*
X137796000Y-81026000D03*
%TO.N,/1.8V*%
X139192000Y-81534000D03*
%TO.N,/VCCIO*%
X137796000Y-93472000D03*
X134796000Y-84328000D03*
X141224000Y-86700000D03*
X144272000Y-78740000D03*
%TD*%
D32*
%TO.N,/TMS*%
X119380000Y-100330000D02*
X119380000Y-99060000D01*
X124612400Y-100431600D02*
X119481600Y-100431600D01*
X119481600Y-100431600D02*
X119380000Y-100330000D01*
X130302000Y-94234000D02*
X125476000Y-94234000D01*
X124968000Y-94742000D02*
X124968000Y-100076000D01*
X131796000Y-92740000D02*
X130302000Y-94234000D01*
X124968000Y-100076000D02*
X124612400Y-100431600D01*
X131796000Y-91900000D02*
X131796000Y-92740000D01*
X125476000Y-94234000D02*
X124968000Y-94742000D01*
D33*
%TO.N,/GPIOH7*%
X142820800Y-90700000D02*
X138996000Y-90700000D01*
X144475200Y-92354400D02*
X142820800Y-90700000D01*
X144475200Y-98094800D02*
X144475200Y-92354400D01*
X143510000Y-99060000D02*
X144475200Y-98094800D01*
X142240000Y-99060000D02*
X143510000Y-99060000D01*
%TO.N,/GPIOH6*%
X140970000Y-97790000D02*
X139700000Y-99060000D01*
X143510000Y-97790000D02*
X140970000Y-97790000D01*
X143916400Y-93751400D02*
X143916400Y-97383600D01*
X138996000Y-91200000D02*
X141365000Y-91200000D01*
X141365000Y-91200000D02*
X143916400Y-93751400D01*
X143916400Y-97383600D02*
X143510000Y-97790000D01*
%TO.N,/UART_TX_OUT*%
X139500000Y-88700000D02*
X138996000Y-88700000D01*
X140411200Y-89611200D02*
X139500000Y-88700000D01*
X145034000Y-91440000D02*
X143205200Y-89611200D01*
X148590000Y-91440000D02*
X145034000Y-91440000D01*
X149860000Y-92710000D02*
X148590000Y-91440000D01*
X143205200Y-89611200D02*
X140411200Y-89611200D01*
D32*
%TO.N,/USB_DM*%
X112898500Y-87878000D02*
X112898500Y-87378000D01*
D34*
%TO.N,/USB_5V*%
X114808000Y-89712800D02*
X114542800Y-89978000D01*
X112898500Y-89978000D02*
X114542800Y-89978000D01*
D32*
%TO.N,/USB_DP*%
X112014000Y-88184984D02*
X112014000Y-87579200D01*
X112207016Y-88378000D02*
X112014000Y-88184984D01*
X112898500Y-88378000D02*
X112207016Y-88378000D01*
X112014000Y-87579200D02*
X112014000Y-87884000D01*
X112014000Y-87027500D02*
X112014000Y-87579200D01*
X112163500Y-86878000D02*
X112014000Y-87027500D01*
X112898500Y-86878000D02*
X112163500Y-86878000D01*
%TO.N,/GPIOL3*%
X134296000Y-92713500D02*
X134546500Y-92964000D01*
X134296000Y-91900000D02*
X134296000Y-92713500D01*
%TO.N,Net-(U101-OSCI)*%
X129160000Y-84175600D02*
X128574800Y-84175600D01*
X129184400Y-84200000D02*
X129160000Y-84175600D01*
X129184400Y-84200000D02*
X130096000Y-84200000D01*
%TO.N,Net-(U101-OSCO)*%
X128727200Y-85344000D02*
X128676400Y-85344000D01*
X129371200Y-84700000D02*
X128727200Y-85344000D01*
X128676400Y-85394800D02*
X128574800Y-85496400D01*
X128676400Y-85344000D02*
X128676400Y-85394800D01*
%TO.N,Net-(U101-OSCI)*%
X128574800Y-84175600D02*
X128625600Y-84226400D01*
X128625600Y-84226400D02*
X128625600Y-84277200D01*
%TO.N,Net-(U101-OSCO)*%
X130096000Y-84700000D02*
X129371200Y-84700000D01*
D33*
%TO.N,Net-(U101-REF)*%
X126695200Y-85344000D02*
X125931300Y-85344000D01*
X127551200Y-86200000D02*
X126695200Y-85344000D01*
X130096000Y-86200000D02*
X127551200Y-86200000D01*
D32*
%TO.N,/EECS*%
X129006600Y-79781400D02*
X130784600Y-79781400D01*
X128524000Y-80264000D02*
X129006600Y-79781400D01*
X128778000Y-81635600D02*
X128524000Y-81381600D01*
X128524000Y-81381600D02*
X128524000Y-80264000D01*
X130860800Y-81635600D02*
X128778000Y-81635600D01*
X131296000Y-82070800D02*
X130860800Y-81635600D01*
X131296000Y-83000000D02*
X131296000Y-82070800D01*
%TO.N,/EEDATA*%
X132296000Y-79086000D02*
X132296000Y-83000000D01*
X133375400Y-78841600D02*
X132540400Y-78841600D01*
X132540400Y-78841600D02*
X132296000Y-79086000D01*
%TO.N,/EECLK*%
X131359200Y-78841600D02*
X130784600Y-78841600D01*
X131796000Y-79278400D02*
X131359200Y-78841600D01*
X131796000Y-83000000D02*
X131796000Y-79278400D01*
D33*
%TO.N,/1.8V*%
X128272200Y-82550000D02*
X127203200Y-81481000D01*
X129794000Y-82550000D02*
X128272200Y-82550000D01*
D32*
%TO.N,/TX_LED*%
X135763000Y-81280000D02*
X135763000Y-81280000D01*
X135763000Y-81407000D02*
X135763000Y-81280000D01*
X135636000Y-81407000D02*
X135763000Y-81407000D01*
X135296000Y-81747000D02*
X135636000Y-81407000D01*
X135296000Y-83000000D02*
X135296000Y-81747000D01*
D33*
%TO.N,Net-(U102-DO)*%
X134776216Y-80721200D02*
X135890000Y-79607416D01*
X135890000Y-79607416D02*
X135890000Y-79347700D01*
X133375400Y-80721200D02*
X134776216Y-80721200D01*
D32*
%TO.N,/RX_LED*%
X136398000Y-81915000D02*
X136779000Y-81915000D01*
X135796000Y-82517000D02*
X136398000Y-81915000D01*
X135796000Y-83000000D02*
X135796000Y-82517000D01*
%TO.N,/EEDATA*%
X135866500Y-77546200D02*
X135890000Y-77522700D01*
X134112000Y-77546200D02*
X135866500Y-77546200D01*
X133375400Y-78282800D02*
X134112000Y-77546200D01*
X133375400Y-78841600D02*
X133375400Y-78282800D01*
%TO.N,/TX_LED*%
X118491000Y-93472000D02*
X118491000Y-93345000D01*
X118364000Y-91948000D02*
X118364000Y-93472000D01*
%TO.N,/RX_LED*%
X122555000Y-91971500D02*
X122555000Y-93495500D01*
%TO.N,Net-(D101-A)*%
X118364000Y-90123000D02*
X116401500Y-90123000D01*
X116528500Y-90123000D02*
X116491000Y-90160500D01*
%TO.N,Net-(D102-A)*%
X122555000Y-90146500D02*
X120592500Y-90146500D01*
%TO.N,/3.3V*%
X124460000Y-91948000D02*
X125476000Y-91948000D01*
X124142500Y-91630500D02*
X124460000Y-91948000D01*
%TO.N,/RESET_N*%
X125526000Y-90173000D02*
X125476000Y-90123000D01*
X127508000Y-90173000D02*
X125526000Y-90173000D01*
%TO.N,GND*%
X128905000Y-91567000D02*
X128905000Y-91694000D01*
%TO.N,/RESET_N*%
X127535000Y-90200000D02*
X127508000Y-90173000D01*
X130096000Y-90200000D02*
X127535000Y-90200000D01*
%TO.N,GND*%
X127585000Y-91821000D02*
X127508000Y-91898000D01*
X128905000Y-91694000D02*
X128778000Y-91821000D01*
X128905000Y-90932000D02*
X128905000Y-91567000D01*
X129137000Y-90700000D02*
X128905000Y-90932000D01*
X130096000Y-90700000D02*
X129137000Y-90700000D01*
X128778000Y-91821000D02*
X127585000Y-91821000D01*
%TO.N,/TCK*%
X129743686Y-93014314D02*
X130096000Y-92662000D01*
X123524943Y-94488000D02*
X124998629Y-93014314D01*
X124998629Y-93014314D02*
X129743686Y-93014314D01*
X113538000Y-94488000D02*
X123524943Y-94488000D01*
X113030000Y-94996000D02*
X113538000Y-94488000D01*
X130096000Y-92662000D02*
X130096000Y-91200000D01*
X111760000Y-99060000D02*
X113030000Y-97790000D01*
X113030000Y-97790000D02*
X113030000Y-94996000D01*
%TO.N,/TDI*%
X118110000Y-97790000D02*
X116840000Y-99060000D01*
X123190000Y-97790000D02*
X118110000Y-97790000D01*
X124168000Y-96812000D02*
X123190000Y-97790000D01*
X124168000Y-94410630D02*
X124168000Y-96812000D01*
X125164315Y-93414314D02*
X124168000Y-94410630D01*
X129990314Y-93414314D02*
X125164315Y-93414314D01*
X130796000Y-92608628D02*
X129990314Y-93414314D01*
X130796000Y-91900000D02*
X130796000Y-92608628D01*
%TO.N,/TDO*%
X123952000Y-99060000D02*
X121920000Y-99060000D01*
X124568000Y-98444000D02*
X123952000Y-99060000D01*
X124568000Y-94576315D02*
X124568000Y-98444000D01*
X125310314Y-93834000D02*
X124568000Y-94576315D01*
X130136314Y-93834000D02*
X125310314Y-93834000D01*
X131296000Y-92674314D02*
X130136314Y-93834000D01*
X131296000Y-91900000D02*
X131296000Y-92674314D01*
%TO.N,/GPIOL0*%
X132796000Y-91232000D02*
X133604000Y-90424000D01*
X132796000Y-91900000D02*
X132796000Y-91232000D01*
%TO.N,/GPIOL1*%
X133350000Y-94100500D02*
X133296000Y-94046500D01*
X133296000Y-94046500D02*
X133296000Y-91900000D01*
%TO.N,/GPIOL2*%
X134859348Y-90424000D02*
X135128000Y-90424000D01*
X133796000Y-91487348D02*
X134859348Y-90424000D01*
X133796000Y-91900000D02*
X133796000Y-91487348D01*
%TO.N,/GPIOL3*%
X134620000Y-93037500D02*
X134620000Y-93218000D01*
X134546500Y-92964000D02*
X134620000Y-93037500D01*
%TO.N,GND*%
X136144000Y-90678000D02*
X136144000Y-89154000D01*
X135636000Y-91186000D02*
X136144000Y-90678000D01*
X134796000Y-91487348D02*
X135097348Y-91186000D01*
X134796000Y-91900000D02*
X134796000Y-91487348D01*
X135097348Y-91186000D02*
X135636000Y-91186000D01*
%TO.N,/GPIOH0*%
X131210000Y-94850000D02*
X129540000Y-96520000D01*
X134620000Y-94850000D02*
X131210000Y-94850000D01*
X135296000Y-94174000D02*
X134620000Y-94850000D01*
X135296000Y-91900000D02*
X135296000Y-94174000D01*
%TO.N,/GPIOH1*%
X133350000Y-95250000D02*
X132080000Y-96520000D01*
X135255000Y-95250000D02*
X133350000Y-95250000D01*
X135796000Y-94709000D02*
X135255000Y-95250000D01*
X135796000Y-91900000D02*
X135796000Y-94709000D01*
%TO.N,/GPIOH2*%
X136221000Y-94919000D02*
X134620000Y-96520000D01*
X136296000Y-92744613D02*
X136221000Y-92819614D01*
X136221000Y-92819614D02*
X136221000Y-94919000D01*
X136296000Y-91900000D02*
X136296000Y-92744613D01*
%TO.N,/GPIOH3*%
X137160000Y-94545686D02*
X137160000Y-96520000D01*
X136621000Y-94006686D02*
X137160000Y-94545686D01*
X136621000Y-92985299D02*
X136621000Y-94006686D01*
X136796000Y-92810298D02*
X136621000Y-92985299D01*
X136796000Y-91900000D02*
X136796000Y-92810298D01*
%TO.N,/GPIOH4*%
X139065000Y-94615000D02*
X139700000Y-95250000D01*
X137795000Y-94615000D02*
X139065000Y-94615000D01*
X139700000Y-95250000D02*
X139700000Y-96520000D01*
X137021000Y-93841000D02*
X137795000Y-94615000D01*
X137021000Y-93150984D02*
X137021000Y-93841000D01*
X137296000Y-92875984D02*
X137021000Y-93150984D01*
X137296000Y-91900000D02*
X137296000Y-92875984D01*
D33*
%TO.N,/GPIOH5*%
X140795000Y-91900000D02*
X142240000Y-93345000D01*
X138296000Y-91900000D02*
X140795000Y-91900000D01*
X142240000Y-93345000D02*
X142240000Y-96520000D01*
%TO.N,/UART_RI_IN*%
X141095000Y-84330000D02*
X142240000Y-83185000D01*
X142240000Y-83185000D02*
X142240000Y-82550000D01*
X140457208Y-84330000D02*
X141095000Y-84330000D01*
X140087208Y-84700000D02*
X140457208Y-84330000D01*
X138996000Y-84700000D02*
X140087208Y-84700000D01*
%TO.N,/UART_DCD_IN*%
X141915000Y-84780000D02*
X140643604Y-84780000D01*
X140223604Y-85200000D02*
X138996000Y-85200000D01*
X142735500Y-83959500D02*
X141915000Y-84780000D01*
X142735500Y-83820000D02*
X142735500Y-83959500D01*
X140643604Y-84780000D02*
X140223604Y-85200000D01*
%TO.N,/TXDEN_OUT*%
X140335000Y-83185000D02*
X140970000Y-83185000D01*
X139820000Y-83700000D02*
X140335000Y-83185000D01*
X138996000Y-83700000D02*
X139820000Y-83700000D01*
%TO.N,/UART_DSR_IN*%
X140360000Y-85700000D02*
X138996000Y-85700000D01*
X142735000Y-85230000D02*
X140830000Y-85230000D01*
X143510000Y-84455000D02*
X142735000Y-85230000D01*
X140830000Y-85230000D02*
X140360000Y-85700000D01*
X143510000Y-82550000D02*
X143510000Y-84455000D01*
%TO.N,/UART_DTR_OUT*%
X140627984Y-86200000D02*
X138996000Y-86200000D01*
X141102984Y-85725000D02*
X140627984Y-86200000D01*
X143510000Y-85725000D02*
X141102984Y-85725000D01*
X144145000Y-85090000D02*
X143510000Y-85725000D01*
X144145000Y-83185000D02*
X144145000Y-85090000D01*
X146050000Y-81280000D02*
X144145000Y-83185000D01*
X148590000Y-81280000D02*
X146050000Y-81280000D01*
X149860000Y-82550000D02*
X148590000Y-81280000D01*
%TO.N,/UART_CTS_IN*%
X139909188Y-87200000D02*
X138996000Y-87200000D01*
X140339188Y-87630000D02*
X139909188Y-87200000D01*
X144145000Y-87630000D02*
X140339188Y-87630000D01*
X145415000Y-86360000D02*
X144145000Y-87630000D01*
X145415000Y-84455000D02*
X145415000Y-86360000D01*
X146050000Y-83820000D02*
X145415000Y-84455000D01*
X148590000Y-83820000D02*
X146050000Y-83820000D01*
X149860000Y-85090000D02*
X148590000Y-83820000D01*
%TO.N,/UART_RTS_OUT*%
X140337792Y-88265000D02*
X139772792Y-87700000D01*
X139772792Y-87700000D02*
X138996000Y-87700000D01*
X146367500Y-86360000D02*
X144462500Y-88265000D01*
X149860000Y-87630000D02*
X148590000Y-86360000D01*
X148590000Y-86360000D02*
X146367500Y-86360000D01*
X144462500Y-88265000D02*
X140337792Y-88265000D01*
%TO.N,/UART_RX_IN*%
X139636396Y-88200000D02*
X138996000Y-88200000D01*
X148590000Y-88900000D02*
X140336396Y-88900000D01*
X149860000Y-90170000D02*
X148590000Y-88900000D01*
X140336396Y-88900000D02*
X139636396Y-88200000D01*
%TO.N,/VCCIO*%
X146177000Y-76835000D02*
X144272000Y-78740000D01*
X147315000Y-76835000D02*
X146177000Y-76835000D01*
%TO.N,Net-(U101-VPHY)*%
X130867000Y-87700000D02*
X131191000Y-87376000D01*
X130096000Y-87700000D02*
X130867000Y-87700000D01*
X131191000Y-84836000D02*
X131064000Y-84963000D01*
%TO.N,GND*%
X130547992Y-83700000D02*
X130096000Y-83700000D01*
X131445000Y-83820000D02*
X130667992Y-83820000D01*
X130667992Y-83820000D02*
X130547992Y-83700000D01*
X134546000Y-86921000D02*
X131445000Y-83820000D01*
X134546000Y-87450000D02*
X134546000Y-86921000D01*
%TO.N,Net-(U101-VPHY)*%
X130827000Y-85200000D02*
X131191000Y-84836000D01*
X130096000Y-85200000D02*
X130827000Y-85200000D01*
D34*
%TO.N,/3.3V*%
X137795000Y-79756000D02*
X137795000Y-81025000D01*
X138811000Y-78740000D02*
X137795000Y-79756000D01*
X137795000Y-81025000D02*
X137796000Y-81026000D01*
X140819500Y-78740000D02*
X138811000Y-78740000D01*
D33*
%TO.N,Net-(D103-A)*%
X110132500Y-78269500D02*
X110095000Y-78232000D01*
X110132500Y-80264000D02*
X110132500Y-78269500D01*
%TO.N,/3.3V*%
X108331000Y-80287500D02*
X108307500Y-80264000D01*
X108331000Y-81661000D02*
X108331000Y-80287500D01*
%TO.N,Net-(J101-CC2)*%
X111633000Y-88900000D02*
X111655000Y-88878000D01*
X112898500Y-88878000D02*
X111655000Y-88878000D01*
%TO.N,Net-(J101-CC1)*%
X111659000Y-85878000D02*
X111633000Y-85852000D01*
X112898500Y-85878000D02*
X111659000Y-85878000D01*
D34*
%TO.N,/USB_5V*%
X116800500Y-85317500D02*
X116840000Y-85278000D01*
X115570000Y-85317500D02*
X116800500Y-85317500D01*
D33*
X115530500Y-85278000D02*
X115570000Y-85317500D01*
D34*
X112898500Y-85278000D02*
X115530500Y-85278000D01*
D33*
X114873000Y-89978000D02*
X114935000Y-89916000D01*
%TO.N,GND*%
X112898500Y-90728000D02*
X112898500Y-91573000D01*
X112898500Y-91573000D02*
X112523500Y-91948000D01*
X112898500Y-83683000D02*
X112523500Y-83308000D01*
X112898500Y-84528000D02*
X112898500Y-83683000D01*
X115570000Y-80518000D02*
X114300000Y-79248000D01*
X133375400Y-79781400D02*
X134620000Y-79781400D01*
%TO.N,/VCCIO*%
X132296000Y-91900000D02*
X132296000Y-93472000D01*
%TO.N,/1.8V*%
X130096000Y-89200000D02*
X128778000Y-89200000D01*
%TO.N,GND*%
X132388000Y-88700000D02*
X132842000Y-89154000D01*
X130096000Y-88700000D02*
X132388000Y-88700000D01*
X130096000Y-88200000D02*
X131888000Y-88200000D01*
X131888000Y-88200000D02*
X132842000Y-89154000D01*
X132296000Y-89700000D02*
X132842000Y-89154000D01*
X130096000Y-89700000D02*
X132296000Y-89700000D01*
X130096000Y-85700000D02*
X132796000Y-85700000D01*
X132796000Y-85700000D02*
X134546000Y-87450000D01*
%TO.N,/USB_DP*%
X117016000Y-87200000D02*
X130096000Y-87200000D01*
X115824000Y-88392000D02*
X117016000Y-87200000D01*
X112898500Y-88378000D02*
X115810000Y-88378000D01*
X115810000Y-88378000D02*
X115824000Y-88392000D01*
%TO.N,/1.8V*%
X137714000Y-89200000D02*
X137668000Y-89154000D01*
X138996000Y-89200000D02*
X137714000Y-89200000D01*
%TO.N,GND*%
X137190000Y-90200000D02*
X136144000Y-89154000D01*
X138996000Y-90200000D02*
X137190000Y-90200000D01*
X137296000Y-83000000D02*
X137296000Y-84700000D01*
X137296000Y-84700000D02*
X137160000Y-84836000D01*
X137160000Y-84836000D02*
X136144000Y-85852000D01*
X137796000Y-84200000D02*
X137160000Y-84836000D01*
X138996000Y-84200000D02*
X137796000Y-84200000D01*
X127203200Y-79756000D02*
X127203200Y-78232000D01*
%TO.N,/1.8V*%
X130244000Y-83000000D02*
X130796000Y-83000000D01*
X129794000Y-82550000D02*
X130244000Y-83000000D01*
%TO.N,/3.3V*%
X130784600Y-80721200D02*
X129286000Y-80721200D01*
X137796000Y-81026000D02*
X137796000Y-83000000D01*
%TO.N,/1.8V*%
X138296000Y-82430000D02*
X139192000Y-81534000D01*
X138296000Y-83000000D02*
X138296000Y-82430000D01*
%TO.N,/VCCIO*%
X137796000Y-91900000D02*
X137796000Y-93472000D01*
X134796000Y-83000000D02*
X134796000Y-84328000D01*
X138996000Y-86700000D02*
X141224000Y-86700000D01*
D34*
X142644500Y-78740000D02*
X144272000Y-78740000D01*
D33*
%TO.N,/USB_DM*%
X116500000Y-86700000D02*
X115822000Y-87378000D01*
X130096000Y-86700000D02*
X116500000Y-86700000D01*
X115822000Y-87378000D02*
X112898500Y-87378000D01*
%TD*%
%TA.AperFunction,Conductor*%
%TO.N,GND*%
G36*
X151708039Y-74314685D02*
G01*
X151753794Y-74367489D01*
X151765000Y-74419000D01*
X151765000Y-96846377D01*
X151745315Y-96913416D01*
X151692511Y-96959171D01*
X151623353Y-96969115D01*
X151559797Y-96940090D01*
X151526439Y-96893830D01*
X151426843Y-96653385D01*
X151252984Y-96338810D01*
X151252981Y-96338805D01*
X151045006Y-96045693D01*
X150972355Y-95964397D01*
X150165281Y-96771470D01*
X150206586Y-96709654D01*
X150225989Y-96612109D01*
X150206586Y-96514564D01*
X150151331Y-96431869D01*
X150068636Y-96376614D01*
X149995715Y-96362109D01*
X149946467Y-96362109D01*
X149873546Y-96376614D01*
X149811722Y-96417922D01*
X150618802Y-95610843D01*
X150537506Y-95538193D01*
X150244394Y-95330218D01*
X150244389Y-95330215D01*
X149929813Y-95156355D01*
X149929809Y-95156353D01*
X149597752Y-95018812D01*
X149252394Y-94919316D01*
X149252385Y-94919314D01*
X148898058Y-94859112D01*
X148898046Y-94859110D01*
X148539199Y-94838958D01*
X148180353Y-94859110D01*
X148180341Y-94859112D01*
X147826014Y-94919314D01*
X147826005Y-94919316D01*
X147480647Y-95018812D01*
X147148590Y-95156353D01*
X147148586Y-95156355D01*
X146834010Y-95330215D01*
X146834005Y-95330218D01*
X146540893Y-95538194D01*
X146540885Y-95538199D01*
X146459597Y-95610842D01*
X147266678Y-96417923D01*
X147204854Y-96376614D01*
X147131933Y-96362109D01*
X147082685Y-96362109D01*
X147009764Y-96376614D01*
X146927069Y-96431869D01*
X146871814Y-96514564D01*
X146852411Y-96612109D01*
X146871814Y-96709654D01*
X146913121Y-96771475D01*
X146106043Y-95964397D01*
X146106042Y-95964397D01*
X146033399Y-96045685D01*
X146033394Y-96045693D01*
X145825418Y-96338805D01*
X145825415Y-96338810D01*
X145651555Y-96653386D01*
X145651553Y-96653390D01*
X145514012Y-96985447D01*
X145414516Y-97330805D01*
X145414514Y-97330814D01*
X145354312Y-97685141D01*
X145354310Y-97685153D01*
X145334158Y-98043999D01*
X145354310Y-98402846D01*
X145354312Y-98402858D01*
X145414514Y-98757185D01*
X145414516Y-98757194D01*
X145514012Y-99102552D01*
X145651553Y-99434609D01*
X145651555Y-99434613D01*
X145825415Y-99749189D01*
X145825418Y-99749194D01*
X146033393Y-100042306D01*
X146106043Y-100123601D01*
X146913124Y-99316519D01*
X146871814Y-99378346D01*
X146852411Y-99475891D01*
X146871814Y-99573436D01*
X146927069Y-99656131D01*
X147009764Y-99711386D01*
X147082685Y-99725891D01*
X147131933Y-99725891D01*
X147204854Y-99711386D01*
X147266671Y-99670080D01*
X146459597Y-100477155D01*
X146540893Y-100549806D01*
X146808763Y-100739871D01*
X146852047Y-100794718D01*
X146858807Y-100864260D01*
X146826896Y-100926417D01*
X146766447Y-100961455D01*
X146737008Y-100965000D01*
X125090795Y-100965000D01*
X125023756Y-100945315D01*
X124978001Y-100892511D01*
X124968057Y-100823353D01*
X124991747Y-100771477D01*
X124989746Y-100770192D01*
X124994541Y-100762729D01*
X124994543Y-100762728D01*
X124997151Y-100758668D01*
X125013781Y-100738030D01*
X125274428Y-100477383D01*
X125295069Y-100460750D01*
X125299128Y-100458143D01*
X125333129Y-100418902D01*
X125336100Y-100415711D01*
X125347220Y-100404593D01*
X125356645Y-100392000D01*
X125359390Y-100388594D01*
X125393377Y-100349373D01*
X125395375Y-100344995D01*
X125408907Y-100322189D01*
X125411796Y-100318331D01*
X125429922Y-100269728D01*
X125431614Y-100265645D01*
X125443521Y-100239573D01*
X125453165Y-100218457D01*
X125453850Y-100213685D01*
X125460409Y-100187992D01*
X125462091Y-100183483D01*
X125462659Y-100175529D01*
X125487073Y-100110067D01*
X125543005Y-100068193D01*
X125612696Y-100063206D01*
X125674021Y-100096688D01*
X125702524Y-100141037D01*
X125706645Y-100152085D01*
X125706649Y-100152093D01*
X125792809Y-100267187D01*
X125792812Y-100267190D01*
X125907906Y-100353350D01*
X125907913Y-100353354D01*
X126042620Y-100403596D01*
X126042627Y-100403598D01*
X126102155Y-100409999D01*
X126102172Y-100410000D01*
X126749999Y-100410000D01*
X126749999Y-99495501D01*
X126857685Y-99544680D01*
X126964237Y-99560000D01*
X127035763Y-99560000D01*
X127142315Y-99544680D01*
X127250000Y-99495501D01*
X127250000Y-100410000D01*
X127897828Y-100410000D01*
X127897844Y-100409999D01*
X127957372Y-100403598D01*
X127957379Y-100403596D01*
X128092086Y-100353354D01*
X128092093Y-100353350D01*
X128207187Y-100267190D01*
X128207190Y-100267187D01*
X128293350Y-100152093D01*
X128293354Y-100152086D01*
X128343596Y-100017379D01*
X128343598Y-100017372D01*
X128349999Y-99957844D01*
X128349999Y-99933966D01*
X128369681Y-99866925D01*
X128422483Y-99821169D01*
X128491642Y-99811222D01*
X128555198Y-99840245D01*
X128575571Y-99862834D01*
X128578402Y-99866877D01*
X128733123Y-100021598D01*
X128912361Y-100147102D01*
X129110670Y-100239575D01*
X129322023Y-100296207D01*
X129504926Y-100312208D01*
X129539998Y-100315277D01*
X129540000Y-100315277D01*
X129540002Y-100315277D01*
X129568254Y-100312805D01*
X129757977Y-100296207D01*
X129969330Y-100239575D01*
X130167639Y-100147102D01*
X130346877Y-100021598D01*
X130501598Y-99866877D01*
X130627102Y-99687639D01*
X130697618Y-99536414D01*
X130743790Y-99483977D01*
X130810984Y-99464825D01*
X130877865Y-99485041D01*
X130922381Y-99536414D01*
X130992898Y-99687639D01*
X131118402Y-99866877D01*
X131273123Y-100021598D01*
X131452361Y-100147102D01*
X131650670Y-100239575D01*
X131862023Y-100296207D01*
X132044926Y-100312208D01*
X132079998Y-100315277D01*
X132080000Y-100315277D01*
X132080002Y-100315277D01*
X132108254Y-100312805D01*
X132297977Y-100296207D01*
X132509330Y-100239575D01*
X132707639Y-100147102D01*
X132886877Y-100021598D01*
X133041598Y-99866877D01*
X133167102Y-99687639D01*
X133237618Y-99536414D01*
X133283790Y-99483977D01*
X133350984Y-99464825D01*
X133417865Y-99485041D01*
X133462381Y-99536414D01*
X133532898Y-99687639D01*
X133658402Y-99866877D01*
X133813123Y-100021598D01*
X133992361Y-100147102D01*
X134190670Y-100239575D01*
X134402023Y-100296207D01*
X134584926Y-100312208D01*
X134619998Y-100315277D01*
X134620000Y-100315277D01*
X134620002Y-100315277D01*
X134648254Y-100312805D01*
X134837977Y-100296207D01*
X135049330Y-100239575D01*
X135247639Y-100147102D01*
X135426877Y-100021598D01*
X135581598Y-99866877D01*
X135707102Y-99687639D01*
X135777618Y-99536414D01*
X135823790Y-99483977D01*
X135890984Y-99464825D01*
X135957865Y-99485041D01*
X136002381Y-99536414D01*
X136072898Y-99687639D01*
X136198402Y-99866877D01*
X136353123Y-100021598D01*
X136532361Y-100147102D01*
X136730670Y-100239575D01*
X136942023Y-100296207D01*
X137124926Y-100312208D01*
X137159998Y-100315277D01*
X137160000Y-100315277D01*
X137160002Y-100315277D01*
X137188254Y-100312805D01*
X137377977Y-100296207D01*
X137589330Y-100239575D01*
X137787639Y-100147102D01*
X137966877Y-100021598D01*
X138121598Y-99866877D01*
X138247102Y-99687639D01*
X138317618Y-99536414D01*
X138363790Y-99483977D01*
X138430984Y-99464825D01*
X138497865Y-99485041D01*
X138542381Y-99536414D01*
X138612898Y-99687639D01*
X138738402Y-99866877D01*
X138893123Y-100021598D01*
X139072361Y-100147102D01*
X139270670Y-100239575D01*
X139482023Y-100296207D01*
X139664926Y-100312208D01*
X139699998Y-100315277D01*
X139700000Y-100315277D01*
X139700002Y-100315277D01*
X139728254Y-100312805D01*
X139917977Y-100296207D01*
X140129330Y-100239575D01*
X140327639Y-100147102D01*
X140506877Y-100021598D01*
X140661598Y-99866877D01*
X140787102Y-99687639D01*
X140857618Y-99536414D01*
X140903790Y-99483977D01*
X140970984Y-99464825D01*
X141037865Y-99485041D01*
X141082381Y-99536414D01*
X141152898Y-99687639D01*
X141278402Y-99866877D01*
X141433123Y-100021598D01*
X141612361Y-100147102D01*
X141810670Y-100239575D01*
X142022023Y-100296207D01*
X142204926Y-100312208D01*
X142239998Y-100315277D01*
X142240000Y-100315277D01*
X142240002Y-100315277D01*
X142268254Y-100312805D01*
X142457977Y-100296207D01*
X142669330Y-100239575D01*
X142867639Y-100147102D01*
X143046877Y-100021598D01*
X143201598Y-99866877D01*
X143327102Y-99687639D01*
X143341344Y-99657094D01*
X143387515Y-99604657D01*
X143453726Y-99585500D01*
X143501016Y-99585500D01*
X143564245Y-99587660D01*
X143605169Y-99577686D01*
X143611368Y-99576507D01*
X143653111Y-99570771D01*
X143668386Y-99564135D01*
X143688421Y-99557397D01*
X143704594Y-99553457D01*
X143741316Y-99532808D01*
X143746955Y-99530007D01*
X143785609Y-99513219D01*
X143798528Y-99502707D01*
X143815997Y-99490818D01*
X143830512Y-99482658D01*
X143860298Y-99452870D01*
X143864999Y-99448628D01*
X143897665Y-99422054D01*
X143907264Y-99408453D01*
X143920881Y-99392287D01*
X144840428Y-98472740D01*
X144883663Y-98432362D01*
X144886667Y-98429557D01*
X144886667Y-98429556D01*
X144886669Y-98429555D01*
X144908553Y-98393566D01*
X144912114Y-98388334D01*
X144937564Y-98354775D01*
X144943673Y-98339282D01*
X144953076Y-98320351D01*
X144961726Y-98306128D01*
X144973088Y-98265570D01*
X144975103Y-98259579D01*
X144990559Y-98220389D01*
X144992261Y-98203822D01*
X144996206Y-98183064D01*
X145000700Y-98167028D01*
X145000700Y-98124918D01*
X145001025Y-98118575D01*
X145005331Y-98076690D01*
X145002503Y-98060286D01*
X145000700Y-98039219D01*
X145000700Y-92363383D01*
X145000889Y-92357853D01*
X145002860Y-92300155D01*
X144995896Y-92271578D01*
X144992891Y-92259248D01*
X144991706Y-92253018D01*
X144985971Y-92211289D01*
X144983497Y-92205594D01*
X144979337Y-92196016D01*
X144972597Y-92175974D01*
X144968657Y-92159807D01*
X144968657Y-92159806D01*
X144964906Y-92153135D01*
X144949206Y-92085056D01*
X144972806Y-92019292D01*
X145028214Y-91976728D01*
X145051924Y-91970164D01*
X145068519Y-91967303D01*
X145089586Y-91965500D01*
X145982965Y-91965500D01*
X146050004Y-91985185D01*
X146095759Y-92037989D01*
X146105703Y-92107147D01*
X146095347Y-92141905D01*
X146046570Y-92246507D01*
X146046567Y-92246513D01*
X145989364Y-92459999D01*
X145989364Y-92460000D01*
X146886314Y-92460000D01*
X146860507Y-92500156D01*
X146820000Y-92638111D01*
X146820000Y-92781889D01*
X146860507Y-92919844D01*
X146886314Y-92960000D01*
X145989364Y-92960000D01*
X146046567Y-93173486D01*
X146046570Y-93173492D01*
X146146399Y-93387578D01*
X146281894Y-93581082D01*
X146448917Y-93748105D01*
X146642421Y-93883600D01*
X146856507Y-93983429D01*
X146856516Y-93983433D01*
X147070000Y-94040634D01*
X147070000Y-93145501D01*
X147177685Y-93194680D01*
X147284237Y-93210000D01*
X147355763Y-93210000D01*
X147462315Y-93194680D01*
X147570000Y-93145501D01*
X147570000Y-94040633D01*
X147783483Y-93983433D01*
X147783492Y-93983429D01*
X147997578Y-93883600D01*
X148191082Y-93748105D01*
X148358108Y-93581079D01*
X148385741Y-93541616D01*
X148440318Y-93497991D01*
X148509816Y-93490797D01*
X148572171Y-93522320D01*
X148607585Y-93582550D01*
X148609789Y-93593339D01*
X148624354Y-93685304D01*
X148681950Y-93798342D01*
X148681952Y-93798344D01*
X148681954Y-93798347D01*
X148771652Y-93888045D01*
X148771654Y-93888046D01*
X148771658Y-93888050D01*
X148878528Y-93942503D01*
X148884698Y-93945647D01*
X148978475Y-93960499D01*
X148978481Y-93960500D01*
X150741518Y-93960499D01*
X150835304Y-93945646D01*
X150948342Y-93888050D01*
X151038050Y-93798342D01*
X151095646Y-93685304D01*
X151095646Y-93685302D01*
X151095647Y-93685301D01*
X151106934Y-93614031D01*
X151110500Y-93591519D01*
X151110499Y-91828482D01*
X151095646Y-91734696D01*
X151038050Y-91621658D01*
X151038046Y-91621654D01*
X151038045Y-91621652D01*
X150948347Y-91531954D01*
X150948344Y-91531952D01*
X150948342Y-91531950D01*
X150869157Y-91491603D01*
X150835301Y-91474352D01*
X150741524Y-91459500D01*
X150741519Y-91459500D01*
X150591862Y-91459500D01*
X150524823Y-91439815D01*
X150479068Y-91387011D01*
X150469124Y-91317853D01*
X150498149Y-91254297D01*
X150520734Y-91233928D01*
X150666877Y-91131598D01*
X150821598Y-90976877D01*
X150947102Y-90797639D01*
X151039575Y-90599330D01*
X151096207Y-90387977D01*
X151115277Y-90170000D01*
X151096207Y-89952023D01*
X151039575Y-89740670D01*
X150947102Y-89542362D01*
X150947100Y-89542359D01*
X150947099Y-89542357D01*
X150821599Y-89363124D01*
X150755142Y-89296667D01*
X150666877Y-89208402D01*
X150487639Y-89082898D01*
X150336414Y-89012381D01*
X150283977Y-88966210D01*
X150264825Y-88899016D01*
X150285041Y-88832135D01*
X150336414Y-88787618D01*
X150487639Y-88717102D01*
X150666877Y-88591598D01*
X150821598Y-88436877D01*
X150947102Y-88257639D01*
X151039575Y-88059330D01*
X151096207Y-87847977D01*
X151115277Y-87630000D01*
X151114872Y-87625374D01*
X151108318Y-87550455D01*
X151096207Y-87412023D01*
X151039575Y-87200670D01*
X150947102Y-87002362D01*
X150947100Y-87002359D01*
X150947099Y-87002357D01*
X150821599Y-86823124D01*
X150752602Y-86754127D01*
X150666877Y-86668402D01*
X150487639Y-86542898D01*
X150336414Y-86472381D01*
X150283977Y-86426210D01*
X150264825Y-86359016D01*
X150285041Y-86292135D01*
X150336414Y-86247618D01*
X150487639Y-86177102D01*
X150666877Y-86051598D01*
X150821598Y-85896877D01*
X150947102Y-85717639D01*
X151039575Y-85519330D01*
X151096207Y-85307977D01*
X151115277Y-85090000D01*
X151114553Y-85081728D01*
X151108611Y-85013803D01*
X151096207Y-84872023D01*
X151053423Y-84712351D01*
X151039577Y-84660677D01*
X151039576Y-84660676D01*
X151039575Y-84660670D01*
X150947102Y-84462362D01*
X150947100Y-84462359D01*
X150947099Y-84462357D01*
X150821599Y-84283124D01*
X150744775Y-84206300D01*
X150666877Y-84128402D01*
X150487639Y-84002898D01*
X150336414Y-83932381D01*
X150283977Y-83886210D01*
X150264825Y-83819016D01*
X150285041Y-83752135D01*
X150336414Y-83707618D01*
X150487639Y-83637102D01*
X150666877Y-83511598D01*
X150821598Y-83356877D01*
X150947102Y-83177639D01*
X151039575Y-82979330D01*
X151096207Y-82767977D01*
X151114810Y-82555335D01*
X151115277Y-82550002D01*
X151115277Y-82549997D01*
X151107052Y-82455989D01*
X151096207Y-82332023D01*
X151055634Y-82180604D01*
X151039577Y-82120677D01*
X151039576Y-82120676D01*
X151039575Y-82120670D01*
X150947102Y-81922362D01*
X150947100Y-81922359D01*
X150947099Y-81922357D01*
X150821599Y-81743124D01*
X150769735Y-81691260D01*
X150666877Y-81588402D01*
X150516622Y-81483192D01*
X150487638Y-81462897D01*
X150367765Y-81407000D01*
X150289330Y-81370425D01*
X150289326Y-81370424D01*
X150289322Y-81370422D01*
X150077977Y-81313793D01*
X149860002Y-81294723D01*
X149859998Y-81294723D01*
X149714681Y-81307436D01*
X149642023Y-81313793D01*
X149642020Y-81313793D01*
X149494240Y-81353391D01*
X149424390Y-81351728D01*
X149374466Y-81321297D01*
X148967941Y-80914771D01*
X148941365Y-80886316D01*
X148924755Y-80868531D01*
X148924752Y-80868529D01*
X148924751Y-80868528D01*
X148888775Y-80846651D01*
X148883529Y-80843081D01*
X148862032Y-80826779D01*
X148849976Y-80817636D01*
X148841406Y-80814256D01*
X148834485Y-80811527D01*
X148815553Y-80802124D01*
X148801329Y-80793474D01*
X148760785Y-80782113D01*
X148754766Y-80780089D01*
X148716499Y-80765000D01*
X148715589Y-80764641D01*
X148715585Y-80764640D01*
X148715583Y-80764640D01*
X148699022Y-80762937D01*
X148678255Y-80758990D01*
X148662231Y-80754500D01*
X148662228Y-80754500D01*
X148620120Y-80754500D01*
X148613778Y-80754175D01*
X148595853Y-80752332D01*
X148571892Y-80749869D01*
X148571888Y-80749869D01*
X148562576Y-80751474D01*
X148555485Y-80752697D01*
X148534420Y-80754500D01*
X146058984Y-80754500D01*
X145995755Y-80752340D01*
X145995754Y-80752340D01*
X145995752Y-80752340D01*
X145954848Y-80762308D01*
X145948610Y-80763493D01*
X145906887Y-80769229D01*
X145891611Y-80775864D01*
X145871585Y-80782599D01*
X145855407Y-80786542D01*
X145855401Y-80786545D01*
X145818708Y-80807176D01*
X145813021Y-80810000D01*
X145774393Y-80826779D01*
X145774389Y-80826781D01*
X145761473Y-80837289D01*
X145744003Y-80849180D01*
X145729488Y-80857342D01*
X145699710Y-80887119D01*
X145694996Y-80891373D01*
X145662336Y-80917944D01*
X145652735Y-80931545D01*
X145639114Y-80947714D01*
X144439710Y-82147119D01*
X144378387Y-82180604D01*
X144308695Y-82175620D01*
X144252762Y-82133748D01*
X144244646Y-82121446D01*
X144201859Y-82047335D01*
X144179048Y-82022001D01*
X144082235Y-81914478D01*
X144082232Y-81914476D01*
X144082231Y-81914475D01*
X144082230Y-81914474D01*
X143937593Y-81809388D01*
X143774267Y-81736671D01*
X143774265Y-81736670D01*
X143646594Y-81709533D01*
X143599391Y-81699500D01*
X143420609Y-81699500D01*
X143389954Y-81706015D01*
X143245733Y-81736670D01*
X143245728Y-81736672D01*
X143082408Y-81809388D01*
X143082403Y-81809390D01*
X142947885Y-81907124D01*
X142882079Y-81930604D01*
X142814025Y-81914778D01*
X142802114Y-81907124D01*
X142741979Y-81863433D01*
X142667593Y-81809388D01*
X142504267Y-81736671D01*
X142504265Y-81736670D01*
X142376594Y-81709533D01*
X142329391Y-81699500D01*
X142150609Y-81699500D01*
X142119954Y-81706015D01*
X141975733Y-81736670D01*
X141975728Y-81736672D01*
X141812408Y-81809387D01*
X141667768Y-81914475D01*
X141548140Y-82047336D01*
X141458750Y-82202164D01*
X141458748Y-82202168D01*
X141424820Y-82306588D01*
X141385382Y-82364263D01*
X141321023Y-82391461D01*
X141256456Y-82381550D01*
X141234265Y-82371670D01*
X141106594Y-82344533D01*
X141059391Y-82334500D01*
X140880609Y-82334500D01*
X140849954Y-82341015D01*
X140705733Y-82371670D01*
X140705728Y-82371672D01*
X140542408Y-82444387D01*
X140397768Y-82549475D01*
X140331845Y-82622689D01*
X140272358Y-82659337D01*
X140269054Y-82660191D01*
X140239849Y-82667307D01*
X140233610Y-82668493D01*
X140191887Y-82674229D01*
X140176611Y-82680864D01*
X140156585Y-82687599D01*
X140140407Y-82691542D01*
X140140401Y-82691545D01*
X140103708Y-82712176D01*
X140098021Y-82715000D01*
X140059393Y-82731779D01*
X140059389Y-82731781D01*
X140046473Y-82742289D01*
X140029003Y-82754180D01*
X140014485Y-82762343D01*
X139984709Y-82792118D01*
X139979997Y-82796371D01*
X139947334Y-82822945D01*
X139937732Y-82836549D01*
X139924111Y-82852718D01*
X139638648Y-83138182D01*
X139577328Y-83171666D01*
X139550969Y-83174500D01*
X138945500Y-83174500D01*
X138878461Y-83154815D01*
X138832706Y-83102011D01*
X138821500Y-83050500D01*
X138821500Y-82699030D01*
X138841185Y-82631991D01*
X138857814Y-82611354D01*
X139048350Y-82420819D01*
X139109673Y-82387334D01*
X139136031Y-82384500D01*
X139281389Y-82384500D01*
X139281391Y-82384500D01*
X139456267Y-82347329D01*
X139619593Y-82274612D01*
X139764230Y-82169526D01*
X139769508Y-82163665D01*
X139807200Y-82121803D01*
X139883859Y-82036665D01*
X139973250Y-81881835D01*
X140028497Y-81711803D01*
X140047185Y-81534000D01*
X140028497Y-81356197D01*
X139990137Y-81238138D01*
X139973252Y-81186170D01*
X139973249Y-81186164D01*
X139883859Y-81031335D01*
X139812970Y-80952605D01*
X139764235Y-80898478D01*
X139764232Y-80898476D01*
X139764231Y-80898475D01*
X139764230Y-80898474D01*
X139619593Y-80793388D01*
X139456267Y-80720671D01*
X139456265Y-80720670D01*
X139328594Y-80693533D01*
X139281391Y-80683500D01*
X139102609Y-80683500D01*
X139071954Y-80690015D01*
X138927733Y-80720670D01*
X138759419Y-80795609D01*
X138690169Y-80804893D01*
X138626893Y-80775265D01*
X138591053Y-80720646D01*
X138577253Y-80678173D01*
X138577251Y-80678169D01*
X138577250Y-80678165D01*
X138487859Y-80523335D01*
X138424737Y-80453231D01*
X138377350Y-80400602D01*
X138347120Y-80337610D01*
X138345500Y-80317630D01*
X138345500Y-80035386D01*
X138365185Y-79968347D01*
X138381814Y-79947710D01*
X139002706Y-79326818D01*
X139064029Y-79293334D01*
X139090387Y-79290500D01*
X139942658Y-79290500D01*
X140009697Y-79310185D01*
X140049391Y-79351380D01*
X140061373Y-79371642D01*
X140061378Y-79371648D01*
X140175351Y-79485621D01*
X140175355Y-79485624D01*
X140175357Y-79485626D01*
X140175360Y-79485627D01*
X140175363Y-79485630D01*
X140267856Y-79540329D01*
X140314106Y-79567681D01*
X140340654Y-79575394D01*
X140468897Y-79612653D01*
X140468900Y-79612653D01*
X140468902Y-79612654D01*
X140480956Y-79613602D01*
X140505063Y-79615500D01*
X140505064Y-79615499D01*
X140505065Y-79615500D01*
X141133934Y-79615499D01*
X141170098Y-79612654D01*
X141324894Y-79567681D01*
X141463643Y-79485626D01*
X141577626Y-79371643D01*
X141625269Y-79291082D01*
X141676336Y-79243400D01*
X141745078Y-79230896D01*
X141809667Y-79257541D01*
X141838730Y-79291080D01*
X141886374Y-79371643D01*
X141886376Y-79371645D01*
X141886378Y-79371648D01*
X142000351Y-79485621D01*
X142000355Y-79485624D01*
X142000357Y-79485626D01*
X142000360Y-79485627D01*
X142000363Y-79485630D01*
X142092856Y-79540329D01*
X142139106Y-79567681D01*
X142165654Y-79575394D01*
X142293897Y-79612653D01*
X142293900Y-79612653D01*
X142293902Y-79612654D01*
X142305956Y-79613602D01*
X142330063Y-79615500D01*
X142330064Y-79615499D01*
X142330065Y-79615500D01*
X142958934Y-79615499D01*
X142995098Y-79612654D01*
X143149894Y-79567681D01*
X143288643Y-79485626D01*
X143402626Y-79371643D01*
X143414609Y-79351379D01*
X143465678Y-79303696D01*
X143521342Y-79290500D01*
X143568003Y-79290500D01*
X143635042Y-79310185D01*
X143660153Y-79331528D01*
X143699764Y-79375521D01*
X143699767Y-79375523D01*
X143699770Y-79375526D01*
X143844407Y-79480612D01*
X144007733Y-79553329D01*
X144182609Y-79590500D01*
X144182610Y-79590500D01*
X144361389Y-79590500D01*
X144361391Y-79590500D01*
X144536267Y-79553329D01*
X144699593Y-79480612D01*
X144844230Y-79375526D01*
X144847727Y-79371643D01*
X144870148Y-79346741D01*
X144963859Y-79242665D01*
X145053250Y-79087835D01*
X145108497Y-78917803D01*
X145127185Y-78740000D01*
X145122713Y-78697456D01*
X145135282Y-78628729D01*
X145158350Y-78596818D01*
X145913278Y-77841890D01*
X145974599Y-77808407D01*
X146044291Y-77813391D01*
X146100224Y-77855263D01*
X146111436Y-77873269D01*
X146136950Y-77923342D01*
X146136951Y-77923343D01*
X146136954Y-77923347D01*
X146226652Y-78013045D01*
X146226654Y-78013046D01*
X146226658Y-78013050D01*
X146339694Y-78070645D01*
X146339698Y-78070647D01*
X146433475Y-78085499D01*
X146433481Y-78085500D01*
X148196518Y-78085499D01*
X148290304Y-78070646D01*
X148403342Y-78013050D01*
X148493050Y-77923342D01*
X148550646Y-77810304D01*
X148565211Y-77718339D01*
X148595139Y-77655208D01*
X148654450Y-77618276D01*
X148724313Y-77619273D01*
X148782546Y-77657883D01*
X148789258Y-77666615D01*
X148816893Y-77706081D01*
X148983917Y-77873105D01*
X149177421Y-78008600D01*
X149391507Y-78108429D01*
X149391516Y-78108433D01*
X149605000Y-78165634D01*
X149605000Y-77270501D01*
X149712685Y-77319680D01*
X149819237Y-77335000D01*
X149890763Y-77335000D01*
X149997315Y-77319680D01*
X150105000Y-77270501D01*
X150105000Y-78165633D01*
X150318483Y-78108433D01*
X150318492Y-78108429D01*
X150532578Y-78008600D01*
X150726082Y-77873105D01*
X150893105Y-77706082D01*
X151028600Y-77512578D01*
X151128429Y-77298492D01*
X151128432Y-77298486D01*
X151185636Y-77085000D01*
X150288686Y-77085000D01*
X150314493Y-77044844D01*
X150355000Y-76906889D01*
X150355000Y-76763111D01*
X150314493Y-76625156D01*
X150288686Y-76585000D01*
X151185636Y-76585000D01*
X151185635Y-76584999D01*
X151128432Y-76371513D01*
X151128429Y-76371507D01*
X151028600Y-76157422D01*
X151028599Y-76157420D01*
X150893113Y-75963926D01*
X150893108Y-75963920D01*
X150726082Y-75796894D01*
X150532578Y-75661399D01*
X150318492Y-75561570D01*
X150318486Y-75561567D01*
X150105000Y-75504364D01*
X150105000Y-76399498D01*
X149997315Y-76350320D01*
X149890763Y-76335000D01*
X149819237Y-76335000D01*
X149712685Y-76350320D01*
X149605000Y-76399498D01*
X149605000Y-75504364D01*
X149604999Y-75504364D01*
X149391513Y-75561567D01*
X149391507Y-75561570D01*
X149177422Y-75661399D01*
X149177420Y-75661400D01*
X148983926Y-75796886D01*
X148983920Y-75796891D01*
X148816891Y-75963920D01*
X148816885Y-75963927D01*
X148789256Y-76003385D01*
X148734679Y-76047008D01*
X148665180Y-76054200D01*
X148602826Y-76022676D01*
X148567413Y-75962446D01*
X148565211Y-75951669D01*
X148550646Y-75859696D01*
X148493050Y-75746658D01*
X148493046Y-75746654D01*
X148493045Y-75746652D01*
X148403347Y-75656954D01*
X148403344Y-75656952D01*
X148403342Y-75656950D01*
X148321627Y-75615314D01*
X148290301Y-75599352D01*
X148196524Y-75584500D01*
X146433482Y-75584500D01*
X146352519Y-75597323D01*
X146339696Y-75599354D01*
X146226658Y-75656950D01*
X146226657Y-75656950D01*
X146226657Y-75656951D01*
X146226652Y-75656954D01*
X146136954Y-75746652D01*
X146136951Y-75746657D01*
X146079352Y-75859698D01*
X146064500Y-75953475D01*
X146064500Y-76224775D01*
X146044815Y-76291814D01*
X145992011Y-76337569D01*
X145985992Y-76340129D01*
X145982404Y-76341543D01*
X145945708Y-76362176D01*
X145940021Y-76365000D01*
X145901393Y-76381779D01*
X145901389Y-76381781D01*
X145888473Y-76392289D01*
X145871003Y-76404180D01*
X145856488Y-76412342D01*
X145826710Y-76442119D01*
X145821996Y-76446373D01*
X145789336Y-76472944D01*
X145779735Y-76486545D01*
X145766114Y-76502714D01*
X144415648Y-77853181D01*
X144354325Y-77886666D01*
X144327967Y-77889500D01*
X144182609Y-77889500D01*
X144151954Y-77896015D01*
X144007733Y-77926670D01*
X144007728Y-77926672D01*
X143844408Y-77999387D01*
X143699768Y-78104475D01*
X143660154Y-78148472D01*
X143600667Y-78185121D01*
X143568004Y-78189500D01*
X143521342Y-78189500D01*
X143454303Y-78169815D01*
X143414609Y-78128620D01*
X143402626Y-78108357D01*
X143402621Y-78108351D01*
X143288648Y-77994378D01*
X143288636Y-77994369D01*
X143149896Y-77912320D01*
X143149889Y-77912317D01*
X142995102Y-77867346D01*
X142995096Y-77867345D01*
X142958937Y-77864500D01*
X142958935Y-77864500D01*
X142329856Y-77864501D01*
X142330066Y-77864501D01*
X142293901Y-77867346D01*
X142139110Y-77912317D01*
X142139103Y-77912320D01*
X142000363Y-77994369D01*
X142000351Y-77994378D01*
X141886378Y-78108351D01*
X141886372Y-78108359D01*
X141838732Y-78188916D01*
X141787663Y-78236599D01*
X141718922Y-78249103D01*
X141654332Y-78222458D01*
X141625268Y-78188916D01*
X141577671Y-78108433D01*
X141577626Y-78108357D01*
X141577624Y-78108355D01*
X141577621Y-78108351D01*
X141463648Y-77994378D01*
X141463636Y-77994369D01*
X141324896Y-77912320D01*
X141324889Y-77912317D01*
X141170102Y-77867346D01*
X141170096Y-77867345D01*
X141133937Y-77864500D01*
X141133935Y-77864500D01*
X140505088Y-77864501D01*
X140505066Y-77864501D01*
X140468901Y-77867346D01*
X140314110Y-77912317D01*
X140314103Y-77912320D01*
X140175363Y-77994369D01*
X140175351Y-77994378D01*
X140061378Y-78108351D01*
X140061373Y-78108357D01*
X140049391Y-78128620D01*
X139998322Y-78176304D01*
X139942658Y-78189500D01*
X138820397Y-78189500D01*
X138754174Y-78187238D01*
X138754173Y-78187238D01*
X138754171Y-78187238D01*
X138711170Y-78197717D01*
X138704930Y-78198902D01*
X138661079Y-78204930D01*
X138644616Y-78212081D01*
X138624575Y-78218820D01*
X138607150Y-78223066D01*
X138607143Y-78223069D01*
X138568566Y-78244759D01*
X138562879Y-78247584D01*
X138522279Y-78265220D01*
X138522276Y-78265221D01*
X138508356Y-78276546D01*
X138490886Y-78288436D01*
X138475241Y-78297233D01*
X138475240Y-78297234D01*
X138443934Y-78328539D01*
X138439221Y-78332792D01*
X138404896Y-78360717D01*
X138404891Y-78360722D01*
X138394542Y-78375383D01*
X138380923Y-78391550D01*
X137412381Y-79360093D01*
X137363957Y-79405317D01*
X137340956Y-79443139D01*
X137337384Y-79448388D01*
X137310639Y-79483658D01*
X137310636Y-79483663D01*
X137304055Y-79500352D01*
X137294653Y-79519283D01*
X137285327Y-79534619D01*
X137273385Y-79577237D01*
X137271362Y-79583255D01*
X137255122Y-79624440D01*
X137253288Y-79642284D01*
X137249342Y-79663048D01*
X137244501Y-79680328D01*
X137244500Y-79680337D01*
X137244500Y-79724594D01*
X137244175Y-79730939D01*
X137239648Y-79774970D01*
X137239648Y-79774975D01*
X137242697Y-79792656D01*
X137244500Y-79813724D01*
X137244500Y-80319851D01*
X137224815Y-80386890D01*
X137212650Y-80402823D01*
X137104140Y-80523336D01*
X137014750Y-80678164D01*
X137014747Y-80678170D01*
X136959504Y-80848192D01*
X136959503Y-80848195D01*
X136958542Y-80857342D01*
X136948438Y-80953463D01*
X136921856Y-81018076D01*
X136864558Y-81058061D01*
X136825119Y-81064500D01*
X136689609Y-81064500D01*
X136651002Y-81072706D01*
X136581335Y-81067388D01*
X136525602Y-81025250D01*
X136517836Y-81013415D01*
X136515651Y-81009630D01*
X136454859Y-80904335D01*
X136404310Y-80848195D01*
X136335235Y-80771478D01*
X136335232Y-80771476D01*
X136335231Y-80771475D01*
X136335230Y-80771474D01*
X136190593Y-80666388D01*
X136027267Y-80593671D01*
X136027265Y-80593670D01*
X136027264Y-80593670D01*
X135936977Y-80574479D01*
X135875495Y-80541287D01*
X135841719Y-80480123D01*
X135846371Y-80410409D01*
X135875077Y-80365508D01*
X135968567Y-80272018D01*
X136029890Y-80238533D01*
X136056248Y-80235699D01*
X136191934Y-80235699D01*
X136228098Y-80232854D01*
X136382894Y-80187881D01*
X136521643Y-80105826D01*
X136635626Y-79991843D01*
X136717681Y-79853094D01*
X136762654Y-79698298D01*
X136765500Y-79662135D01*
X136765499Y-79033266D01*
X136762654Y-78997102D01*
X136717681Y-78842306D01*
X136657178Y-78740000D01*
X136635630Y-78703563D01*
X136635621Y-78703551D01*
X136521648Y-78589578D01*
X136521645Y-78589576D01*
X136521643Y-78589574D01*
X136441082Y-78541930D01*
X136393400Y-78490864D01*
X136380896Y-78422122D01*
X136407541Y-78357533D01*
X136441080Y-78328469D01*
X136521643Y-78280826D01*
X136635626Y-78166843D01*
X136717681Y-78028094D01*
X136758770Y-77886666D01*
X136762653Y-77873302D01*
X136762654Y-77873296D01*
X136762656Y-77873278D01*
X136765500Y-77837135D01*
X136765499Y-77208266D01*
X136762654Y-77172102D01*
X136717681Y-77017306D01*
X136669954Y-76936603D01*
X136635630Y-76878563D01*
X136635621Y-76878551D01*
X136521648Y-76764578D01*
X136521636Y-76764569D01*
X136382896Y-76682520D01*
X136382889Y-76682517D01*
X136228102Y-76637546D01*
X136228096Y-76637545D01*
X136191937Y-76634700D01*
X136191935Y-76634700D01*
X135587840Y-76634701D01*
X135588066Y-76634701D01*
X135551901Y-76637546D01*
X135397110Y-76682517D01*
X135397103Y-76682520D01*
X135258363Y-76764569D01*
X135258351Y-76764578D01*
X135144378Y-76878551D01*
X135144372Y-76878559D01*
X135081530Y-76984821D01*
X135030461Y-77032504D01*
X134974798Y-77045700D01*
X134179143Y-77045700D01*
X134152785Y-77042866D01*
X134148074Y-77041841D01*
X134148070Y-77041841D01*
X134109552Y-77044596D01*
X134096328Y-77045542D01*
X134091906Y-77045700D01*
X134076199Y-77045700D01*
X134060656Y-77047934D01*
X134056260Y-77048407D01*
X134004517Y-77052109D01*
X134004513Y-77052110D01*
X133999986Y-77053798D01*
X133974327Y-77060346D01*
X133969550Y-77061033D01*
X133969543Y-77061035D01*
X133922353Y-77082585D01*
X133918264Y-77084278D01*
X133869675Y-77102400D01*
X133869664Y-77102406D01*
X133865799Y-77105300D01*
X133843020Y-77118815D01*
X133838636Y-77120817D01*
X133838626Y-77120823D01*
X133830495Y-77127869D01*
X133799428Y-77154787D01*
X133795996Y-77157554D01*
X133783402Y-77166981D01*
X133772291Y-77178092D01*
X133769055Y-77181105D01*
X133729861Y-77215067D01*
X133729854Y-77215076D01*
X133727243Y-77219138D01*
X133710616Y-77239768D01*
X133068968Y-77881416D01*
X133048338Y-77898043D01*
X133044276Y-77900654D01*
X133044267Y-77900661D01*
X133010305Y-77939855D01*
X133007292Y-77943091D01*
X132996181Y-77954202D01*
X132986754Y-77966796D01*
X132983987Y-77970228D01*
X132970775Y-77985476D01*
X132950023Y-78009426D01*
X132950017Y-78009436D01*
X132948015Y-78013820D01*
X132934500Y-78036599D01*
X132931606Y-78040464D01*
X132931604Y-78040469D01*
X132920349Y-78070646D01*
X132916474Y-78081034D01*
X132874602Y-78136968D01*
X132809137Y-78161384D01*
X132800293Y-78161700D01*
X132708882Y-78161700D01*
X132627919Y-78174523D01*
X132615096Y-78176554D01*
X132502058Y-78234150D01*
X132502057Y-78234150D01*
X132502057Y-78234151D01*
X132502052Y-78234154D01*
X132412351Y-78323855D01*
X132406616Y-78331750D01*
X132404397Y-78330138D01*
X132366736Y-78370007D01*
X132355733Y-78375711D01*
X132350744Y-78377989D01*
X132346662Y-78379679D01*
X132298075Y-78397801D01*
X132298064Y-78397806D01*
X132294199Y-78400700D01*
X132271420Y-78414215D01*
X132267036Y-78416217D01*
X132267026Y-78416223D01*
X132256852Y-78425039D01*
X132227828Y-78450187D01*
X132224396Y-78452954D01*
X132211802Y-78462381D01*
X132200691Y-78473492D01*
X132197455Y-78476505D01*
X132158261Y-78510467D01*
X132158254Y-78510476D01*
X132155643Y-78514538D01*
X132139016Y-78535168D01*
X132037480Y-78636704D01*
X131976157Y-78670189D01*
X131906465Y-78665205D01*
X131862118Y-78636704D01*
X131856418Y-78631004D01*
X131822933Y-78569681D01*
X131820099Y-78543323D01*
X131820099Y-78530682D01*
X131816898Y-78510472D01*
X131805246Y-78436896D01*
X131747650Y-78323858D01*
X131747646Y-78323854D01*
X131747645Y-78323852D01*
X131657947Y-78234154D01*
X131657944Y-78234152D01*
X131657942Y-78234150D01*
X131569166Y-78188916D01*
X131544901Y-78176552D01*
X131451124Y-78161700D01*
X130118082Y-78161700D01*
X130037119Y-78174523D01*
X130024296Y-78176554D01*
X129911258Y-78234150D01*
X129911256Y-78234151D01*
X129911257Y-78234151D01*
X129911252Y-78234154D01*
X129821554Y-78323852D01*
X129821551Y-78323857D01*
X129821550Y-78323858D01*
X129818022Y-78330783D01*
X129763952Y-78436898D01*
X129749100Y-78530675D01*
X129749101Y-79156900D01*
X129729417Y-79223939D01*
X129676613Y-79269694D01*
X129625101Y-79280900D01*
X129073738Y-79280900D01*
X129047381Y-79278066D01*
X129042676Y-79277042D01*
X129042668Y-79277042D01*
X128997957Y-79280240D01*
X128990937Y-79280742D01*
X128986515Y-79280900D01*
X128970799Y-79280900D01*
X128955246Y-79283136D01*
X128950850Y-79283608D01*
X128899117Y-79287309D01*
X128899114Y-79287310D01*
X128894596Y-79288995D01*
X128868920Y-79295548D01*
X128864141Y-79296235D01*
X128816955Y-79317784D01*
X128812867Y-79319477D01*
X128764268Y-79337605D01*
X128764267Y-79337606D01*
X128760402Y-79340499D01*
X128737620Y-79354016D01*
X128733231Y-79356020D01*
X128733230Y-79356021D01*
X128733228Y-79356022D01*
X128733227Y-79356023D01*
X128729397Y-79359342D01*
X128694017Y-79389997D01*
X128690573Y-79392772D01*
X128678006Y-79402180D01*
X128678002Y-79402183D01*
X128678003Y-79402183D01*
X128666890Y-79413293D01*
X128663656Y-79416304D01*
X128624462Y-79450266D01*
X128624454Y-79450276D01*
X128621843Y-79454338D01*
X128605216Y-79474968D01*
X128389880Y-79690305D01*
X128328557Y-79723790D01*
X128258866Y-79718806D01*
X128202932Y-79676935D01*
X128178515Y-79611470D01*
X128178199Y-79602624D01*
X128178199Y-79406857D01*
X128178198Y-79406845D01*
X128167880Y-79305847D01*
X128113653Y-79142199D01*
X128113648Y-79142188D01*
X128023147Y-78995465D01*
X128023144Y-78995461D01*
X127901238Y-78873555D01*
X127901234Y-78873552D01*
X127754511Y-78783051D01*
X127754500Y-78783046D01*
X127590852Y-78728819D01*
X127489854Y-78718500D01*
X127453200Y-78718500D01*
X127453200Y-79882000D01*
X127433515Y-79949039D01*
X127380711Y-79994794D01*
X127329200Y-80006000D01*
X126228201Y-80006000D01*
X126228201Y-80105154D01*
X126238519Y-80206152D01*
X126292746Y-80369800D01*
X126292751Y-80369811D01*
X126383252Y-80516534D01*
X126383255Y-80516538D01*
X126467892Y-80601175D01*
X126501377Y-80662498D01*
X126496393Y-80732190D01*
X126467898Y-80776532D01*
X126457576Y-80786854D01*
X126457568Y-80786865D01*
X126375520Y-80925603D01*
X126375517Y-80925610D01*
X126330546Y-81080397D01*
X126330545Y-81080403D01*
X126327700Y-81116563D01*
X126327701Y-81845434D01*
X126330546Y-81881598D01*
X126375517Y-82036389D01*
X126375520Y-82036396D01*
X126457569Y-82175136D01*
X126457578Y-82175148D01*
X126571551Y-82289121D01*
X126571555Y-82289124D01*
X126571557Y-82289126D01*
X126571560Y-82289127D01*
X126571563Y-82289130D01*
X126648281Y-82334500D01*
X126710306Y-82371181D01*
X126716970Y-82373117D01*
X126865097Y-82416153D01*
X126865100Y-82416153D01*
X126865102Y-82416154D01*
X126877156Y-82417102D01*
X126901263Y-82419000D01*
X126901264Y-82418999D01*
X126901265Y-82419000D01*
X127346667Y-82418999D01*
X127413706Y-82438683D01*
X127434348Y-82455318D01*
X127894259Y-82915228D01*
X127937445Y-82961469D01*
X127973422Y-82983346D01*
X127978666Y-82986915D01*
X128012225Y-83012364D01*
X128027710Y-83018470D01*
X128046647Y-83027876D01*
X128060869Y-83036525D01*
X128060871Y-83036525D01*
X128060872Y-83036526D01*
X128101416Y-83047885D01*
X128107420Y-83049903D01*
X128146611Y-83065359D01*
X128152267Y-83065940D01*
X128163168Y-83067061D01*
X128183946Y-83071009D01*
X128199972Y-83075500D01*
X128242080Y-83075500D01*
X128248421Y-83075824D01*
X128290310Y-83080131D01*
X128306714Y-83077302D01*
X128327780Y-83075500D01*
X129067494Y-83075500D01*
X129134533Y-83095185D01*
X129159644Y-83116528D01*
X129221769Y-83185525D01*
X129231871Y-83192865D01*
X129274536Y-83248196D01*
X129280514Y-83317810D01*
X129269802Y-83346123D01*
X129270267Y-83346316D01*
X129240260Y-83418757D01*
X129196418Y-83473160D01*
X129130123Y-83495224D01*
X129062424Y-83477944D01*
X129052813Y-83471621D01*
X129033991Y-83457946D01*
X129002393Y-83434988D01*
X128839067Y-83362271D01*
X128839065Y-83362270D01*
X128711394Y-83335133D01*
X128664191Y-83325100D01*
X128485409Y-83325100D01*
X128454754Y-83331615D01*
X128310533Y-83362270D01*
X128310528Y-83362272D01*
X128147208Y-83434987D01*
X128002568Y-83540075D01*
X127882940Y-83672936D01*
X127793550Y-83827764D01*
X127793547Y-83827770D01*
X127738304Y-83997792D01*
X127738303Y-83997794D01*
X127719615Y-84175600D01*
X127738303Y-84353405D01*
X127738304Y-84353407D01*
X127793547Y-84523429D01*
X127793550Y-84523435D01*
X127882941Y-84678265D01*
X127915391Y-84714304D01*
X127941928Y-84743777D01*
X127972158Y-84806769D01*
X127963533Y-84876104D01*
X127957166Y-84888748D01*
X127895149Y-84996166D01*
X127895147Y-84996170D01*
X127839904Y-85166192D01*
X127839903Y-85166194D01*
X127821215Y-85344000D01*
X127829577Y-85423564D01*
X127817007Y-85492294D01*
X127769275Y-85543318D01*
X127701534Y-85560435D01*
X127635293Y-85538212D01*
X127618579Y-85524210D01*
X127073140Y-84978771D01*
X127029955Y-84932531D01*
X127029952Y-84932529D01*
X127029950Y-84932527D01*
X126993975Y-84910651D01*
X126988729Y-84907081D01*
X126964554Y-84888748D01*
X126955176Y-84881636D01*
X126946606Y-84878256D01*
X126939685Y-84875527D01*
X126920753Y-84866124D01*
X126906529Y-84857474D01*
X126865985Y-84846113D01*
X126859966Y-84844089D01*
X126825922Y-84830665D01*
X126820789Y-84828641D01*
X126820786Y-84828640D01*
X126820784Y-84828640D01*
X126816349Y-84828184D01*
X126812568Y-84826638D01*
X126812551Y-84826634D01*
X126812551Y-84826631D01*
X126751676Y-84801742D01*
X126722307Y-84767956D01*
X126689427Y-84712359D01*
X126689426Y-84712357D01*
X126689424Y-84712355D01*
X126689421Y-84712351D01*
X126575448Y-84598378D01*
X126575436Y-84598369D01*
X126436696Y-84516320D01*
X126436689Y-84516317D01*
X126281902Y-84471346D01*
X126281896Y-84471345D01*
X126245737Y-84468500D01*
X126245735Y-84468500D01*
X125616128Y-84468501D01*
X125616866Y-84468501D01*
X125580701Y-84471346D01*
X125425910Y-84516317D01*
X125425903Y-84516320D01*
X125287163Y-84598369D01*
X125287151Y-84598378D01*
X125167657Y-84717873D01*
X125166159Y-84716375D01*
X125118371Y-84750884D01*
X125048604Y-84754669D01*
X124987866Y-84720134D01*
X124971504Y-84699072D01*
X124938745Y-84645962D01*
X124816838Y-84524055D01*
X124816834Y-84524052D01*
X124670111Y-84433551D01*
X124670100Y-84433546D01*
X124506452Y-84379319D01*
X124405454Y-84369000D01*
X124356300Y-84369000D01*
X124356300Y-85470000D01*
X124336615Y-85537039D01*
X124283811Y-85582794D01*
X124232300Y-85594000D01*
X123118801Y-85594000D01*
X123118801Y-85630654D01*
X123129119Y-85731652D01*
X123183346Y-85895300D01*
X123183351Y-85895311D01*
X123238921Y-85985403D01*
X123257362Y-86052795D01*
X123236440Y-86119459D01*
X123182798Y-86164229D01*
X123133383Y-86174500D01*
X117434663Y-86174500D01*
X117367624Y-86154815D01*
X117321869Y-86102011D01*
X117311925Y-86032853D01*
X117340950Y-85969297D01*
X117361773Y-85950184D01*
X117412230Y-85913526D01*
X117415999Y-85909341D01*
X117454534Y-85866543D01*
X117531859Y-85780665D01*
X117621250Y-85625835D01*
X117676497Y-85455803D01*
X117695185Y-85278000D01*
X117676497Y-85100197D01*
X117674483Y-85093999D01*
X123118799Y-85093999D01*
X123118800Y-85094000D01*
X123856300Y-85094000D01*
X123856300Y-84369000D01*
X123856299Y-84368999D01*
X123807161Y-84369000D01*
X123807143Y-84369001D01*
X123706147Y-84379319D01*
X123542499Y-84433546D01*
X123542488Y-84433551D01*
X123395765Y-84524052D01*
X123395761Y-84524055D01*
X123273855Y-84645961D01*
X123273852Y-84645965D01*
X123183351Y-84792688D01*
X123183346Y-84792699D01*
X123129119Y-84956347D01*
X123118800Y-85057345D01*
X123118800Y-85057358D01*
X123118799Y-85093999D01*
X117674483Y-85093999D01*
X117645859Y-85005902D01*
X117621252Y-84930170D01*
X117621249Y-84930164D01*
X117531859Y-84775335D01*
X117466153Y-84702361D01*
X117412235Y-84642478D01*
X117412232Y-84642476D01*
X117412231Y-84642475D01*
X117412230Y-84642474D01*
X117267593Y-84537388D01*
X117104267Y-84464671D01*
X117104265Y-84464670D01*
X116976594Y-84437533D01*
X116929391Y-84427500D01*
X116750609Y-84427500D01*
X116661667Y-84446404D01*
X116569376Y-84466022D01*
X116568964Y-84464086D01*
X116508510Y-84465806D01*
X116448682Y-84429718D01*
X116417861Y-84367013D01*
X116425835Y-84297600D01*
X116434510Y-84280786D01*
X116480450Y-84206307D01*
X116480453Y-84206300D01*
X116534680Y-84042652D01*
X116544999Y-83941654D01*
X116545000Y-83941641D01*
X116545000Y-83842500D01*
X114595001Y-83842500D01*
X114595001Y-83941654D01*
X114605319Y-84042652D01*
X114659546Y-84206300D01*
X114659551Y-84206311D01*
X114750052Y-84353034D01*
X114750055Y-84353038D01*
X114834692Y-84437675D01*
X114868177Y-84498998D01*
X114863193Y-84568690D01*
X114834698Y-84613032D01*
X114824377Y-84623353D01*
X114824375Y-84623355D01*
X114824374Y-84623357D01*
X114798787Y-84666622D01*
X114747721Y-84714304D01*
X114692057Y-84727500D01*
X113725755Y-84727500D01*
X113658716Y-84707815D01*
X113638074Y-84691181D01*
X113636847Y-84689954D01*
X113636844Y-84689952D01*
X113636842Y-84689950D01*
X113550509Y-84645961D01*
X113523801Y-84632352D01*
X113430024Y-84617500D01*
X112772500Y-84617500D01*
X112705461Y-84597815D01*
X112659706Y-84545011D01*
X112648500Y-84493500D01*
X112648500Y-84402000D01*
X112668185Y-84334961D01*
X112720989Y-84289206D01*
X112772500Y-84278000D01*
X113898500Y-84278000D01*
X113898500Y-84220172D01*
X113898499Y-84220155D01*
X113892098Y-84160627D01*
X113892097Y-84160622D01*
X113887513Y-84148332D01*
X113882527Y-84078640D01*
X113909982Y-84023792D01*
X113985427Y-83936725D01*
X114088455Y-83758275D01*
X114155853Y-83563541D01*
X114156651Y-83558000D01*
X113237983Y-83558000D01*
X113309301Y-83473007D01*
X113348500Y-83365306D01*
X113348500Y-83342500D01*
X114595000Y-83342500D01*
X115320000Y-83342500D01*
X115320000Y-82555000D01*
X115820000Y-82555000D01*
X115820000Y-83342500D01*
X116544998Y-83342500D01*
X116544999Y-83243360D01*
X116544998Y-83243345D01*
X116534680Y-83142347D01*
X116506730Y-83058000D01*
X119794815Y-83058000D01*
X119796844Y-83077303D01*
X119813503Y-83235805D01*
X119813504Y-83235807D01*
X119868747Y-83405829D01*
X119868750Y-83405835D01*
X119958141Y-83560665D01*
X119999812Y-83606946D01*
X120077764Y-83693521D01*
X120077767Y-83693523D01*
X120077770Y-83693526D01*
X120222407Y-83798612D01*
X120385733Y-83871329D01*
X120560609Y-83908500D01*
X120560610Y-83908500D01*
X120739389Y-83908500D01*
X120739391Y-83908500D01*
X120914267Y-83871329D01*
X121077593Y-83798612D01*
X121222230Y-83693526D01*
X121225014Y-83690435D01*
X121265943Y-83644978D01*
X121341859Y-83560665D01*
X121431250Y-83405835D01*
X121486497Y-83235803D01*
X121505185Y-83058000D01*
X121486497Y-82880197D01*
X121448204Y-82762343D01*
X121431252Y-82710170D01*
X121431249Y-82710164D01*
X121431186Y-82710055D01*
X121341859Y-82555335D01*
X121268921Y-82474329D01*
X121222235Y-82422478D01*
X121222232Y-82422476D01*
X121222231Y-82422475D01*
X121222230Y-82422474D01*
X121077593Y-82317388D01*
X120914267Y-82244671D01*
X120914265Y-82244670D01*
X120786594Y-82217533D01*
X120739391Y-82207500D01*
X120560609Y-82207500D01*
X120529954Y-82214015D01*
X120385733Y-82244670D01*
X120385728Y-82244672D01*
X120222408Y-82317387D01*
X120077768Y-82422475D01*
X119958140Y-82555336D01*
X119868750Y-82710164D01*
X119868747Y-82710170D01*
X119813504Y-82880192D01*
X119813503Y-82880194D01*
X119797981Y-83027876D01*
X119794815Y-83058000D01*
X116506730Y-83058000D01*
X116480453Y-82978699D01*
X116480448Y-82978688D01*
X116389947Y-82831965D01*
X116389944Y-82831961D01*
X116268038Y-82710055D01*
X116268034Y-82710052D01*
X116121311Y-82619551D01*
X116121300Y-82619546D01*
X115957652Y-82565319D01*
X115856654Y-82555000D01*
X115820000Y-82555000D01*
X115320000Y-82555000D01*
X115283361Y-82555000D01*
X115283343Y-82555001D01*
X115182347Y-82565319D01*
X115018699Y-82619546D01*
X115018688Y-82619551D01*
X114871965Y-82710052D01*
X114871961Y-82710055D01*
X114750055Y-82831961D01*
X114750052Y-82831965D01*
X114659551Y-82978688D01*
X114659546Y-82978699D01*
X114605319Y-83142347D01*
X114595000Y-83243345D01*
X114595000Y-83342500D01*
X113348500Y-83342500D01*
X113348500Y-83250694D01*
X113309301Y-83142993D01*
X113237983Y-83058000D01*
X114152148Y-83058000D01*
X114152147Y-83057999D01*
X114126793Y-82953489D01*
X114041192Y-82766047D01*
X114041190Y-82766043D01*
X113921667Y-82598195D01*
X113921656Y-82598183D01*
X113772526Y-82455989D01*
X113599179Y-82344586D01*
X113407870Y-82267997D01*
X113205533Y-82229000D01*
X112773500Y-82229000D01*
X112773500Y-82983000D01*
X112273500Y-82983000D01*
X112273500Y-82229000D01*
X111893097Y-82229000D01*
X111739379Y-82243678D01*
X111739365Y-82243681D01*
X111541654Y-82301734D01*
X111358494Y-82396159D01*
X111196515Y-82523541D01*
X111061572Y-82679274D01*
X110958544Y-82857724D01*
X110891146Y-83052458D01*
X110890349Y-83058000D01*
X111809017Y-83058000D01*
X111737699Y-83142993D01*
X111698500Y-83250694D01*
X111698500Y-83365306D01*
X111737699Y-83473007D01*
X111809017Y-83558000D01*
X110894852Y-83558000D01*
X110920206Y-83662510D01*
X111005807Y-83849952D01*
X111005809Y-83849956D01*
X111125332Y-84017804D01*
X111125343Y-84017816D01*
X111274471Y-84160008D01*
X111319192Y-84188749D01*
X111364947Y-84241553D01*
X111374890Y-84310712D01*
X111353457Y-84364571D01*
X111336492Y-84388605D01*
X111336491Y-84388605D01*
X111289037Y-84522127D01*
X111289037Y-84522130D01*
X111279730Y-84658195D01*
X111279366Y-84663510D01*
X111308197Y-84802254D01*
X111333510Y-84851106D01*
X111358554Y-84899438D01*
X111371919Y-84968017D01*
X111346085Y-85032936D01*
X111298893Y-85069765D01*
X111205406Y-85111388D01*
X111060768Y-85216475D01*
X110941140Y-85349336D01*
X110851750Y-85504164D01*
X110851747Y-85504170D01*
X110796504Y-85674192D01*
X110796503Y-85674194D01*
X110777815Y-85851999D01*
X110796503Y-86029805D01*
X110796504Y-86029807D01*
X110851747Y-86199829D01*
X110851750Y-86199835D01*
X110941141Y-86354665D01*
X110976372Y-86393793D01*
X111060764Y-86487521D01*
X111060767Y-86487523D01*
X111060770Y-86487526D01*
X111205407Y-86592612D01*
X111368733Y-86665329D01*
X111454886Y-86683641D01*
X111516364Y-86716832D01*
X111550141Y-86777994D01*
X111545489Y-86847709D01*
X111541898Y-86856438D01*
X111528835Y-86885043D01*
X111528833Y-86885050D01*
X111528146Y-86889827D01*
X111521598Y-86915486D01*
X111519910Y-86920013D01*
X111519909Y-86920017D01*
X111516207Y-86971760D01*
X111515734Y-86976156D01*
X111513500Y-86991699D01*
X111513500Y-87007404D01*
X111513342Y-87011829D01*
X111509641Y-87063569D01*
X111509641Y-87063573D01*
X111510666Y-87068285D01*
X111513500Y-87094643D01*
X111513500Y-87955486D01*
X111493815Y-88022525D01*
X111441011Y-88068280D01*
X111415283Y-88076776D01*
X111368730Y-88086671D01*
X111368728Y-88086672D01*
X111205408Y-88159387D01*
X111060768Y-88264475D01*
X110941140Y-88397336D01*
X110851750Y-88552164D01*
X110851747Y-88552170D01*
X110796504Y-88722192D01*
X110796503Y-88722194D01*
X110779208Y-88886745D01*
X110777815Y-88900000D01*
X110779363Y-88914727D01*
X110796503Y-89077805D01*
X110796504Y-89077807D01*
X110851747Y-89247829D01*
X110851750Y-89247835D01*
X110941141Y-89402665D01*
X110963503Y-89427500D01*
X111060764Y-89535521D01*
X111060767Y-89535523D01*
X111060770Y-89535526D01*
X111205407Y-89640612D01*
X111368733Y-89713329D01*
X111543609Y-89750500D01*
X111543610Y-89750500D01*
X111722389Y-89750500D01*
X111722391Y-89750500D01*
X111848220Y-89723754D01*
X111917885Y-89729070D01*
X111973618Y-89771207D01*
X111997724Y-89836786D01*
X111997999Y-89845043D01*
X111998000Y-89988499D01*
X111978316Y-90055539D01*
X111925512Y-90101294D01*
X111874000Y-90112500D01*
X111763235Y-90112500D01*
X111658111Y-90126949D01*
X111528137Y-90183404D01*
X111418211Y-90272836D01*
X111418207Y-90272841D01*
X111336492Y-90388604D01*
X111336491Y-90388605D01*
X111289037Y-90522127D01*
X111289037Y-90522130D01*
X111280161Y-90651894D01*
X111279366Y-90663510D01*
X111308197Y-90802254D01*
X111361243Y-90904627D01*
X111361668Y-90905447D01*
X111375033Y-90974026D01*
X111349199Y-91038945D01*
X111328222Y-91059965D01*
X111196520Y-91163536D01*
X111196517Y-91163539D01*
X111061572Y-91319274D01*
X110958544Y-91497724D01*
X110891146Y-91692458D01*
X110890349Y-91698000D01*
X111809017Y-91698000D01*
X111737699Y-91782993D01*
X111698500Y-91890694D01*
X111698500Y-92005306D01*
X111737699Y-92113007D01*
X111809017Y-92198000D01*
X110894852Y-92198000D01*
X110920206Y-92302510D01*
X111005807Y-92489952D01*
X111005809Y-92489956D01*
X111125332Y-92657804D01*
X111125343Y-92657816D01*
X111274473Y-92800010D01*
X111447820Y-92911413D01*
X111639129Y-92988002D01*
X111841467Y-93027000D01*
X112273500Y-93027000D01*
X112273500Y-92273000D01*
X112773500Y-92273000D01*
X112773500Y-93027000D01*
X113153903Y-93027000D01*
X113307620Y-93012321D01*
X113307634Y-93012318D01*
X113505345Y-92954265D01*
X113688505Y-92859840D01*
X113850484Y-92732458D01*
X113985427Y-92576725D01*
X114088455Y-92398275D01*
X114155853Y-92203541D01*
X114156651Y-92198000D01*
X113237983Y-92198000D01*
X113269449Y-92160500D01*
X115389001Y-92160500D01*
X115389001Y-92247154D01*
X115399319Y-92348152D01*
X115453546Y-92511800D01*
X115453551Y-92511811D01*
X115544052Y-92658534D01*
X115544055Y-92658538D01*
X115665961Y-92780444D01*
X115665965Y-92780447D01*
X115812688Y-92870948D01*
X115812699Y-92870953D01*
X115976347Y-92925180D01*
X116077352Y-92935499D01*
X116114000Y-92935499D01*
X116114000Y-92160500D01*
X115389001Y-92160500D01*
X113269449Y-92160500D01*
X113309301Y-92113007D01*
X113348500Y-92005306D01*
X113348500Y-91890694D01*
X113309301Y-91782993D01*
X113237983Y-91698000D01*
X114152148Y-91698000D01*
X114152147Y-91697999D01*
X114126793Y-91593489D01*
X114041192Y-91406047D01*
X114041190Y-91406043D01*
X113921670Y-91238200D01*
X113921659Y-91238188D01*
X113919752Y-91236369D01*
X113919091Y-91235224D01*
X113917798Y-91233732D01*
X113918085Y-91233482D01*
X113884819Y-91175858D01*
X113888147Y-91106068D01*
X113889146Y-91103289D01*
X113892098Y-91095374D01*
X113898499Y-91035844D01*
X113898500Y-91035827D01*
X113898500Y-90978000D01*
X112772500Y-90978000D01*
X112705461Y-90958315D01*
X112659706Y-90905511D01*
X112648500Y-90854000D01*
X112648500Y-90762499D01*
X112668185Y-90695460D01*
X112720989Y-90649705D01*
X112772497Y-90638499D01*
X113430018Y-90638499D01*
X113523804Y-90623646D01*
X113636842Y-90566050D01*
X113636847Y-90566045D01*
X113638074Y-90564819D01*
X113639933Y-90563803D01*
X113644741Y-90560311D01*
X113645192Y-90560932D01*
X113699397Y-90531334D01*
X113725755Y-90528500D01*
X114533403Y-90528500D01*
X114548114Y-90529002D01*
X114569661Y-90531639D01*
X114718609Y-90563300D01*
X114897389Y-90563300D01*
X114897391Y-90563300D01*
X115072267Y-90526129D01*
X115235593Y-90453412D01*
X115291615Y-90412708D01*
X115357418Y-90389228D01*
X115425472Y-90405052D01*
X115474168Y-90455157D01*
X115488500Y-90512959D01*
X115488500Y-90512401D01*
X115488501Y-90512435D01*
X115491346Y-90548598D01*
X115536317Y-90703389D01*
X115536320Y-90703396D01*
X115618369Y-90842136D01*
X115618378Y-90842148D01*
X115653692Y-90877462D01*
X115687177Y-90938785D01*
X115682193Y-91008477D01*
X115653693Y-91052824D01*
X115544052Y-91162465D01*
X115453551Y-91309188D01*
X115453546Y-91309199D01*
X115399319Y-91472847D01*
X115389000Y-91573845D01*
X115389000Y-91660500D01*
X116490000Y-91660500D01*
X116557039Y-91680185D01*
X116602794Y-91732989D01*
X116614000Y-91784500D01*
X116614000Y-92935499D01*
X116650640Y-92935499D01*
X116650654Y-92935498D01*
X116751652Y-92925180D01*
X116915300Y-92870953D01*
X116915311Y-92870948D01*
X117062034Y-92780447D01*
X117062038Y-92780444D01*
X117183944Y-92658538D01*
X117183947Y-92658534D01*
X117274448Y-92511811D01*
X117274454Y-92511798D01*
X117297542Y-92442122D01*
X117337314Y-92384677D01*
X117401829Y-92357853D01*
X117470605Y-92370167D01*
X117521806Y-92417710D01*
X117534324Y-92446529D01*
X117536317Y-92453390D01*
X117536320Y-92453396D01*
X117618369Y-92592136D01*
X117618378Y-92592148D01*
X117737873Y-92711643D01*
X117736635Y-92712880D01*
X117771904Y-92761702D01*
X117775703Y-92831468D01*
X117747152Y-92886026D01*
X117672140Y-92969335D01*
X117582750Y-93124164D01*
X117582747Y-93124170D01*
X117527504Y-93294192D01*
X117527503Y-93294194D01*
X117508815Y-93472000D01*
X117527503Y-93649805D01*
X117527504Y-93649807D01*
X117584487Y-93825182D01*
X117586482Y-93895023D01*
X117550402Y-93954856D01*
X117487701Y-93985684D01*
X117466556Y-93987500D01*
X113605138Y-93987500D01*
X113578781Y-93984666D01*
X113574076Y-93983642D01*
X113574068Y-93983642D01*
X113529357Y-93986840D01*
X113522337Y-93987342D01*
X113517915Y-93987500D01*
X113502199Y-93987500D01*
X113486646Y-93989736D01*
X113482250Y-93990208D01*
X113430517Y-93993909D01*
X113430514Y-93993910D01*
X113425996Y-93995595D01*
X113400320Y-94002148D01*
X113395541Y-94002835D01*
X113348355Y-94024384D01*
X113344267Y-94026077D01*
X113295668Y-94044205D01*
X113295667Y-94044206D01*
X113291802Y-94047099D01*
X113269020Y-94060616D01*
X113264631Y-94062620D01*
X113264630Y-94062621D01*
X113264628Y-94062622D01*
X113264627Y-94062623D01*
X113250194Y-94075128D01*
X113225417Y-94096597D01*
X113221973Y-94099372D01*
X113218682Y-94101835D01*
X113209406Y-94108780D01*
X113209402Y-94108783D01*
X113209403Y-94108783D01*
X113198290Y-94119893D01*
X113195056Y-94122904D01*
X113155862Y-94156866D01*
X113155854Y-94156876D01*
X113153243Y-94160938D01*
X113136616Y-94181568D01*
X112723568Y-94594616D01*
X112702938Y-94611243D01*
X112698876Y-94613854D01*
X112698867Y-94613861D01*
X112664905Y-94653055D01*
X112661892Y-94656291D01*
X112650781Y-94667402D01*
X112641354Y-94679996D01*
X112638587Y-94683428D01*
X112627091Y-94696697D01*
X112604623Y-94722626D01*
X112604617Y-94722636D01*
X112602615Y-94727020D01*
X112589100Y-94749799D01*
X112586206Y-94753664D01*
X112586200Y-94753675D01*
X112568078Y-94802264D01*
X112566385Y-94806353D01*
X112544835Y-94853543D01*
X112544833Y-94853550D01*
X112544146Y-94858327D01*
X112537598Y-94883986D01*
X112535910Y-94888513D01*
X112535909Y-94888517D01*
X112532207Y-94940260D01*
X112531734Y-94944656D01*
X112529500Y-94960199D01*
X112529500Y-94975904D01*
X112529342Y-94980329D01*
X112525641Y-95032069D01*
X112525641Y-95032073D01*
X112526666Y-95036785D01*
X112529500Y-95063143D01*
X112529500Y-95304408D01*
X112509815Y-95371447D01*
X112457011Y-95417202D01*
X112387853Y-95427146D01*
X112353095Y-95416790D01*
X112189330Y-95340425D01*
X112189326Y-95340424D01*
X112189322Y-95340422D01*
X111977977Y-95283793D01*
X111760002Y-95264723D01*
X111759998Y-95264723D01*
X111614681Y-95277436D01*
X111542023Y-95283793D01*
X111542020Y-95283793D01*
X111330677Y-95340422D01*
X111330668Y-95340426D01*
X111132361Y-95432898D01*
X111132357Y-95432900D01*
X110953121Y-95558402D01*
X110798402Y-95713121D01*
X110672900Y-95892357D01*
X110672898Y-95892361D01*
X110580426Y-96090668D01*
X110580422Y-96090677D01*
X110523793Y-96302020D01*
X110523793Y-96302023D01*
X110521611Y-96326961D01*
X110505199Y-96514564D01*
X110504723Y-96520000D01*
X110523081Y-96729844D01*
X110523793Y-96737975D01*
X110523793Y-96737979D01*
X110580422Y-96949322D01*
X110580424Y-96949326D01*
X110580425Y-96949330D01*
X110609100Y-97010823D01*
X110672897Y-97147638D01*
X110672898Y-97147639D01*
X110798402Y-97326877D01*
X110953123Y-97481598D01*
X111099263Y-97583926D01*
X111142887Y-97638502D01*
X111150079Y-97708001D01*
X111118557Y-97770355D01*
X111058327Y-97805769D01*
X111028139Y-97809500D01*
X110878482Y-97809500D01*
X110797519Y-97822323D01*
X110784696Y-97824354D01*
X110671658Y-97881950D01*
X110671657Y-97881950D01*
X110671657Y-97881951D01*
X110671652Y-97881954D01*
X110581954Y-97971652D01*
X110581951Y-97971657D01*
X110581950Y-97971658D01*
X110562751Y-98009337D01*
X110524352Y-98084698D01*
X110509500Y-98178475D01*
X110509500Y-99941517D01*
X110514242Y-99971455D01*
X110524354Y-100035304D01*
X110581950Y-100148342D01*
X110581952Y-100148344D01*
X110581954Y-100148347D01*
X110671652Y-100238045D01*
X110671654Y-100238046D01*
X110671658Y-100238050D01*
X110781322Y-100293927D01*
X110784698Y-100295647D01*
X110878475Y-100310499D01*
X110878481Y-100310500D01*
X112641518Y-100310499D01*
X112735304Y-100295646D01*
X112848342Y-100238050D01*
X112938050Y-100148342D01*
X112995646Y-100035304D01*
X113010211Y-99943339D01*
X113040139Y-99880208D01*
X113099450Y-99843276D01*
X113169313Y-99844273D01*
X113227546Y-99882883D01*
X113234258Y-99891615D01*
X113261893Y-99931081D01*
X113428917Y-100098105D01*
X113622421Y-100233600D01*
X113836507Y-100333429D01*
X113836516Y-100333433D01*
X114050000Y-100390634D01*
X114050000Y-99495501D01*
X114157685Y-99544680D01*
X114264237Y-99560000D01*
X114335763Y-99560000D01*
X114442315Y-99544680D01*
X114550000Y-99495501D01*
X114550000Y-100390633D01*
X114763483Y-100333433D01*
X114763492Y-100333429D01*
X114977578Y-100233600D01*
X115171082Y-100098105D01*
X115338105Y-99931082D01*
X115473598Y-99737580D01*
X115512509Y-99654135D01*
X115558681Y-99601695D01*
X115625875Y-99582543D01*
X115692756Y-99602758D01*
X115737273Y-99654133D01*
X115752895Y-99687633D01*
X115752898Y-99687639D01*
X115878402Y-99866877D01*
X116033123Y-100021598D01*
X116212361Y-100147102D01*
X116410670Y-100239575D01*
X116622023Y-100296207D01*
X116804926Y-100312208D01*
X116839998Y-100315277D01*
X116840000Y-100315277D01*
X116840002Y-100315277D01*
X116868254Y-100312805D01*
X117057977Y-100296207D01*
X117269330Y-100239575D01*
X117467639Y-100147102D01*
X117646877Y-100021598D01*
X117801598Y-99866877D01*
X117927102Y-99687639D01*
X117997618Y-99536414D01*
X118043790Y-99483977D01*
X118110984Y-99464825D01*
X118177865Y-99485041D01*
X118222381Y-99536414D01*
X118292898Y-99687639D01*
X118418402Y-99866877D01*
X118573123Y-100021598D01*
X118752361Y-100147102D01*
X118804456Y-100171394D01*
X118856893Y-100217564D01*
X118876046Y-100284758D01*
X118875734Y-100292618D01*
X118875640Y-100293924D01*
X118879342Y-100345669D01*
X118879500Y-100350094D01*
X118879500Y-100365799D01*
X118881734Y-100381343D01*
X118882207Y-100385740D01*
X118885909Y-100437485D01*
X118887593Y-100442000D01*
X118894148Y-100467682D01*
X118894834Y-100472455D01*
X118894835Y-100472457D01*
X118916383Y-100519642D01*
X118918071Y-100523716D01*
X118936203Y-100572329D01*
X118939096Y-100576194D01*
X118952617Y-100598983D01*
X118954619Y-100603367D01*
X118954622Y-100603371D01*
X118954623Y-100603373D01*
X118988598Y-100642583D01*
X118991362Y-100646013D01*
X119000775Y-100658588D01*
X119000782Y-100658596D01*
X119011886Y-100669700D01*
X119014896Y-100672932D01*
X119042810Y-100705147D01*
X119048871Y-100712142D01*
X119048874Y-100712145D01*
X119052928Y-100714750D01*
X119073571Y-100731385D01*
X119080214Y-100738028D01*
X119096846Y-100758666D01*
X119104250Y-100770186D01*
X119102250Y-100771471D01*
X119125943Y-100823364D01*
X119115994Y-100892522D01*
X119070234Y-100945321D01*
X119003204Y-100965000D01*
X107439000Y-100965000D01*
X107371961Y-100945315D01*
X107326206Y-100892511D01*
X107315000Y-100841000D01*
X107315000Y-96913416D01*
X107315000Y-92979133D01*
X107334684Y-92912098D01*
X107387488Y-92866343D01*
X107456646Y-92856399D01*
X107506038Y-92874821D01*
X107592157Y-92930166D01*
X107787185Y-93008244D01*
X107993462Y-93048000D01*
X108448500Y-93048000D01*
X108448500Y-92273000D01*
X108948500Y-92273000D01*
X108948500Y-93048000D01*
X109350898Y-93048000D01*
X109507622Y-93033034D01*
X109507626Y-93033033D01*
X109709186Y-92973850D01*
X109895914Y-92877586D01*
X110061037Y-92747731D01*
X110061040Y-92747728D01*
X110198605Y-92588969D01*
X110198614Y-92588958D01*
X110303644Y-92407039D01*
X110303647Y-92407032D01*
X110372355Y-92208517D01*
X110372355Y-92208515D01*
X110373868Y-92198000D01*
X109562983Y-92198000D01*
X109634301Y-92113007D01*
X109673500Y-92005306D01*
X109673500Y-91890694D01*
X109634301Y-91782993D01*
X109562983Y-91698000D01*
X110369757Y-91698000D01*
X110342729Y-91586590D01*
X110255459Y-91395492D01*
X110133610Y-91224380D01*
X110133604Y-91224374D01*
X109981567Y-91079407D01*
X109804842Y-90965833D01*
X109609814Y-90887755D01*
X109403538Y-90848000D01*
X108948500Y-90848000D01*
X108948500Y-91623000D01*
X108448500Y-91623000D01*
X108448500Y-90848000D01*
X108046102Y-90848000D01*
X107889377Y-90862965D01*
X107889373Y-90862966D01*
X107687813Y-90922149D01*
X107495840Y-91021118D01*
X107494902Y-91019299D01*
X107435184Y-91034855D01*
X107368782Y-91013117D01*
X107324674Y-90958930D01*
X107315000Y-90910914D01*
X107315000Y-90097203D01*
X107334685Y-90030164D01*
X107387489Y-89984409D01*
X107456647Y-89974465D01*
X107482334Y-89981021D01*
X107591123Y-90021597D01*
X107591127Y-90021598D01*
X107650655Y-90027999D01*
X107650672Y-90028000D01*
X108448500Y-90028000D01*
X108948499Y-90028000D01*
X109746328Y-90028000D01*
X109746344Y-90027999D01*
X109805872Y-90021598D01*
X109805879Y-90021596D01*
X109940586Y-89971354D01*
X109940593Y-89971350D01*
X110055687Y-89885190D01*
X110055690Y-89885187D01*
X110141850Y-89770093D01*
X110141854Y-89770086D01*
X110192096Y-89635379D01*
X110192098Y-89635372D01*
X110198499Y-89575844D01*
X110198500Y-89575827D01*
X110198500Y-89278000D01*
X108948500Y-89278000D01*
X108948499Y-90028000D01*
X108448500Y-90028000D01*
X108448500Y-88778000D01*
X108948499Y-88778000D01*
X110198499Y-88778000D01*
X110198500Y-88480172D01*
X110198499Y-88480155D01*
X110192098Y-88420627D01*
X110192096Y-88420620D01*
X110141854Y-88285913D01*
X110141850Y-88285906D01*
X110055690Y-88170812D01*
X110055687Y-88170809D01*
X109940593Y-88084649D01*
X109940586Y-88084645D01*
X109805879Y-88034403D01*
X109805872Y-88034401D01*
X109746344Y-88028000D01*
X108948500Y-88028000D01*
X108948499Y-88778000D01*
X108448500Y-88778000D01*
X108448500Y-88028000D01*
X107650655Y-88028000D01*
X107591127Y-88034401D01*
X107591120Y-88034403D01*
X107482333Y-88074978D01*
X107412641Y-88079962D01*
X107351318Y-88046477D01*
X107317834Y-87985153D01*
X107315000Y-87958796D01*
X107315000Y-87297203D01*
X107334685Y-87230164D01*
X107387489Y-87184409D01*
X107456647Y-87174465D01*
X107482334Y-87181021D01*
X107591123Y-87221597D01*
X107591127Y-87221598D01*
X107650655Y-87227999D01*
X107650672Y-87228000D01*
X108448500Y-87228000D01*
X108948499Y-87228000D01*
X109746328Y-87228000D01*
X109746344Y-87227999D01*
X109805872Y-87221598D01*
X109805879Y-87221596D01*
X109940586Y-87171354D01*
X109940593Y-87171350D01*
X110055687Y-87085190D01*
X110055690Y-87085187D01*
X110141850Y-86970093D01*
X110141854Y-86970086D01*
X110192096Y-86835379D01*
X110192098Y-86835372D01*
X110198499Y-86775844D01*
X110198500Y-86775827D01*
X110198500Y-86478000D01*
X108948500Y-86478000D01*
X108948499Y-87228000D01*
X108448500Y-87228000D01*
X108448500Y-85978000D01*
X108948499Y-85978000D01*
X110198500Y-85978000D01*
X110198499Y-85977999D01*
X110198500Y-85680172D01*
X110198499Y-85680155D01*
X110192098Y-85620627D01*
X110192096Y-85620620D01*
X110141854Y-85485913D01*
X110141850Y-85485906D01*
X110055690Y-85370812D01*
X110055687Y-85370809D01*
X109940593Y-85284649D01*
X109940586Y-85284645D01*
X109805879Y-85234403D01*
X109805872Y-85234401D01*
X109746344Y-85228000D01*
X108948500Y-85228000D01*
X108948499Y-85978000D01*
X108448500Y-85978000D01*
X108448500Y-85228000D01*
X107650655Y-85228000D01*
X107591127Y-85234401D01*
X107591119Y-85234403D01*
X107482332Y-85274978D01*
X107412640Y-85279962D01*
X107351317Y-85246476D01*
X107317833Y-85185153D01*
X107315000Y-85158805D01*
X107315000Y-84339137D01*
X107334685Y-84272097D01*
X107387489Y-84226343D01*
X107456647Y-84216399D01*
X107506040Y-84234822D01*
X107592156Y-84290165D01*
X107787185Y-84368244D01*
X107993462Y-84408000D01*
X108448500Y-84408000D01*
X108448500Y-83633000D01*
X108948500Y-83633000D01*
X108948500Y-84408000D01*
X109350898Y-84408000D01*
X109507622Y-84393034D01*
X109507626Y-84393033D01*
X109709186Y-84333850D01*
X109895914Y-84237586D01*
X110061037Y-84107731D01*
X110061040Y-84107728D01*
X110198605Y-83948969D01*
X110198614Y-83948958D01*
X110303644Y-83767039D01*
X110303647Y-83767032D01*
X110372355Y-83568517D01*
X110372355Y-83568515D01*
X110373868Y-83558000D01*
X109562983Y-83558000D01*
X109634301Y-83473007D01*
X109673500Y-83365306D01*
X109673500Y-83250694D01*
X109634301Y-83142993D01*
X109562983Y-83058000D01*
X110369757Y-83058000D01*
X110342729Y-82946590D01*
X110255459Y-82755492D01*
X110133610Y-82584380D01*
X110133604Y-82584374D01*
X109981567Y-82439407D01*
X109804842Y-82325833D01*
X109609814Y-82247755D01*
X109403538Y-82208000D01*
X109212036Y-82208000D01*
X109144997Y-82188315D01*
X109099242Y-82135511D01*
X109089298Y-82066353D01*
X109104647Y-82022003D01*
X109112250Y-82008835D01*
X109167497Y-81838803D01*
X109186185Y-81661000D01*
X109167497Y-81483197D01*
X109126231Y-81356194D01*
X109112252Y-81313170D01*
X109112249Y-81313164D01*
X109110205Y-81309624D01*
X109022859Y-81158335D01*
X108997396Y-81130056D01*
X108967167Y-81067065D01*
X108975791Y-80997730D01*
X109001861Y-80959407D01*
X109065626Y-80895643D01*
X109113269Y-80815082D01*
X109164336Y-80767400D01*
X109233078Y-80754896D01*
X109297667Y-80781541D01*
X109326730Y-80815080D01*
X109374374Y-80895643D01*
X109374376Y-80895645D01*
X109374378Y-80895648D01*
X109488351Y-81009621D01*
X109488355Y-81009624D01*
X109488357Y-81009626D01*
X109488360Y-81009627D01*
X109488363Y-81009630D01*
X109559927Y-81051952D01*
X109627106Y-81091681D01*
X109631839Y-81093056D01*
X109781897Y-81136653D01*
X109781900Y-81136653D01*
X109781902Y-81136654D01*
X109793956Y-81137602D01*
X109818063Y-81139500D01*
X109818064Y-81139499D01*
X109818065Y-81139500D01*
X110446934Y-81139499D01*
X110483098Y-81136654D01*
X110637894Y-81091681D01*
X110776643Y-81009626D01*
X110890626Y-80895643D01*
X110972681Y-80756894D01*
X111017654Y-80602098D01*
X111020500Y-80565935D01*
X111020499Y-79962066D01*
X111017654Y-79925902D01*
X110972681Y-79771106D01*
X110916989Y-79676935D01*
X110890630Y-79632363D01*
X110890621Y-79632351D01*
X110776648Y-79518378D01*
X110776640Y-79518372D01*
X110718878Y-79484212D01*
X110671195Y-79433143D01*
X110657999Y-79377484D01*
X110658000Y-79118519D01*
X110677685Y-79051479D01*
X110718879Y-79011786D01*
X110776643Y-78977626D01*
X110890626Y-78863643D01*
X110890627Y-78863640D01*
X110894718Y-78859550D01*
X110956041Y-78826065D01*
X111025733Y-78831049D01*
X111081667Y-78872920D01*
X111106084Y-78938384D01*
X111106205Y-78940278D01*
X111115110Y-79098846D01*
X111115112Y-79098858D01*
X111175314Y-79453185D01*
X111175316Y-79453194D01*
X111274812Y-79798552D01*
X111412353Y-80130609D01*
X111412355Y-80130613D01*
X111586215Y-80445189D01*
X111586217Y-80445192D01*
X111794193Y-80738306D01*
X111866843Y-80819601D01*
X112673924Y-80012519D01*
X112632614Y-80074346D01*
X112613211Y-80171891D01*
X112632614Y-80269436D01*
X112687869Y-80352131D01*
X112770564Y-80407386D01*
X112843485Y-80421891D01*
X112892733Y-80421891D01*
X112965654Y-80407386D01*
X113027471Y-80366080D01*
X112220397Y-81173155D01*
X112301693Y-81245806D01*
X112594805Y-81453781D01*
X112594810Y-81453784D01*
X112909386Y-81627644D01*
X112909390Y-81627646D01*
X113241447Y-81765187D01*
X113586805Y-81864683D01*
X113586814Y-81864685D01*
X113941141Y-81924887D01*
X113941153Y-81924889D01*
X114300000Y-81945041D01*
X114658846Y-81924889D01*
X114658858Y-81924887D01*
X115013185Y-81864685D01*
X115013194Y-81864683D01*
X115358552Y-81765187D01*
X115690609Y-81627646D01*
X115690613Y-81627644D01*
X116005189Y-81453784D01*
X116005194Y-81453781D01*
X116298306Y-81245806D01*
X116379601Y-81173155D01*
X115572525Y-80366079D01*
X115634346Y-80407386D01*
X115707267Y-80421891D01*
X115756515Y-80421891D01*
X115829436Y-80407386D01*
X115912131Y-80352131D01*
X115967386Y-80269436D01*
X115986789Y-80171891D01*
X115967386Y-80074346D01*
X115926079Y-80012525D01*
X116733155Y-80819601D01*
X116805806Y-80738306D01*
X117013783Y-80445192D01*
X117013784Y-80445189D01*
X117187644Y-80130613D01*
X117187646Y-80130609D01*
X117325187Y-79798552D01*
X117409470Y-79506000D01*
X126228199Y-79506000D01*
X126953200Y-79506000D01*
X126953200Y-78718500D01*
X126916561Y-78718500D01*
X126916543Y-78718501D01*
X126815547Y-78728819D01*
X126651899Y-78783046D01*
X126651888Y-78783051D01*
X126505165Y-78873552D01*
X126505161Y-78873555D01*
X126383255Y-78995461D01*
X126383252Y-78995465D01*
X126292751Y-79142188D01*
X126292746Y-79142199D01*
X126238519Y-79305847D01*
X126228200Y-79406845D01*
X126228200Y-79406857D01*
X126228199Y-79506000D01*
X117409470Y-79506000D01*
X117424683Y-79453194D01*
X117424685Y-79453185D01*
X117484887Y-79098858D01*
X117484889Y-79098846D01*
X117505041Y-78739999D01*
X117484889Y-78381153D01*
X117484887Y-78381141D01*
X117424685Y-78026814D01*
X117424683Y-78026805D01*
X117325187Y-77681447D01*
X117187646Y-77349390D01*
X117187644Y-77349386D01*
X117013784Y-77034810D01*
X117013781Y-77034805D01*
X116817944Y-76758800D01*
X119794815Y-76758800D01*
X119813503Y-76936605D01*
X119813504Y-76936607D01*
X119868747Y-77106629D01*
X119868750Y-77106635D01*
X119958141Y-77261465D01*
X119999812Y-77307746D01*
X120077764Y-77394321D01*
X120077767Y-77394323D01*
X120077770Y-77394326D01*
X120222407Y-77499412D01*
X120385733Y-77572129D01*
X120560609Y-77609300D01*
X120560610Y-77609300D01*
X120739389Y-77609300D01*
X120739391Y-77609300D01*
X120914267Y-77572129D01*
X121077593Y-77499412D01*
X121222230Y-77394326D01*
X121226126Y-77390000D01*
X121256289Y-77356500D01*
X121341859Y-77261465D01*
X121431250Y-77106635D01*
X121486497Y-76936603D01*
X121505185Y-76758800D01*
X121486497Y-76580997D01*
X121441373Y-76442119D01*
X121431252Y-76410970D01*
X121431249Y-76410964D01*
X121341859Y-76256135D01*
X121295003Y-76204096D01*
X121222235Y-76123278D01*
X121222232Y-76123276D01*
X121222231Y-76123275D01*
X121222230Y-76123274D01*
X121077593Y-76018188D01*
X120914267Y-75945471D01*
X120914265Y-75945470D01*
X120786594Y-75918333D01*
X120739391Y-75908300D01*
X120560609Y-75908300D01*
X120529954Y-75914815D01*
X120385733Y-75945470D01*
X120385728Y-75945472D01*
X120222408Y-76018187D01*
X120077768Y-76123275D01*
X119958140Y-76256136D01*
X119868750Y-76410964D01*
X119868747Y-76410970D01*
X119813504Y-76580992D01*
X119813503Y-76580994D01*
X119794815Y-76758800D01*
X116817944Y-76758800D01*
X116805806Y-76741693D01*
X116733155Y-76660397D01*
X115926081Y-77467470D01*
X115967386Y-77405654D01*
X115986789Y-77308109D01*
X115967386Y-77210564D01*
X115912131Y-77127869D01*
X115829436Y-77072614D01*
X115756515Y-77058109D01*
X115707267Y-77058109D01*
X115634346Y-77072614D01*
X115572518Y-77113925D01*
X116379601Y-76306843D01*
X116298306Y-76234193D01*
X116005194Y-76026218D01*
X116005189Y-76026215D01*
X115690613Y-75852355D01*
X115690609Y-75852353D01*
X115358552Y-75714812D01*
X115013194Y-75615316D01*
X115013185Y-75615314D01*
X114658858Y-75555112D01*
X114658846Y-75555110D01*
X114300000Y-75534958D01*
X113941153Y-75555110D01*
X113941141Y-75555112D01*
X113586814Y-75615314D01*
X113586805Y-75615316D01*
X113241447Y-75714812D01*
X112909390Y-75852353D01*
X112909386Y-75852355D01*
X112594810Y-76026215D01*
X112594805Y-76026218D01*
X112301693Y-76234194D01*
X112301685Y-76234199D01*
X112220397Y-76306842D01*
X112220396Y-76306843D01*
X113027472Y-77113919D01*
X112965654Y-77072614D01*
X112892733Y-77058109D01*
X112843485Y-77058109D01*
X112770564Y-77072614D01*
X112687869Y-77127869D01*
X112632614Y-77210564D01*
X112613211Y-77308109D01*
X112632614Y-77405654D01*
X112673923Y-77467478D01*
X111866842Y-76660397D01*
X111794199Y-76741685D01*
X111794194Y-76741693D01*
X111586218Y-77034805D01*
X111586215Y-77034810D01*
X111412355Y-77349386D01*
X111412353Y-77349390D01*
X111274813Y-77681445D01*
X111234694Y-77820700D01*
X111197219Y-77879670D01*
X111133812Y-77909018D01*
X111064604Y-77899427D01*
X111011568Y-77853942D01*
X110996465Y-77820971D01*
X110972681Y-77739106D01*
X110938581Y-77681445D01*
X110890630Y-77600363D01*
X110890621Y-77600351D01*
X110776648Y-77486378D01*
X110776636Y-77486369D01*
X110637896Y-77404320D01*
X110637889Y-77404317D01*
X110483102Y-77359346D01*
X110483096Y-77359345D01*
X110446937Y-77356500D01*
X110446935Y-77356500D01*
X109744128Y-77356501D01*
X109743066Y-77356501D01*
X109706901Y-77359346D01*
X109552110Y-77404317D01*
X109552103Y-77404320D01*
X109413363Y-77486369D01*
X109413350Y-77486379D01*
X109378036Y-77521693D01*
X109316713Y-77555178D01*
X109247021Y-77550192D01*
X109202675Y-77521692D01*
X109093038Y-77412055D01*
X109093034Y-77412052D01*
X108946311Y-77321551D01*
X108946300Y-77321546D01*
X108782652Y-77267319D01*
X108681654Y-77257000D01*
X108595000Y-77257000D01*
X108595000Y-78358000D01*
X108575315Y-78425039D01*
X108522511Y-78470794D01*
X108471000Y-78482000D01*
X108219000Y-78482000D01*
X108151961Y-78462315D01*
X108106206Y-78409511D01*
X108095000Y-78358000D01*
X108095000Y-77257000D01*
X108094999Y-77256999D01*
X108008360Y-77257000D01*
X108008343Y-77257001D01*
X107907347Y-77267319D01*
X107743699Y-77321546D01*
X107743688Y-77321551D01*
X107596965Y-77412052D01*
X107596961Y-77412055D01*
X107526681Y-77482336D01*
X107465358Y-77515821D01*
X107395666Y-77510837D01*
X107339733Y-77468965D01*
X107315316Y-77403501D01*
X107315000Y-77394655D01*
X107315000Y-74419000D01*
X107334685Y-74351961D01*
X107387489Y-74306206D01*
X107439000Y-74295000D01*
X151641000Y-74295000D01*
X151708039Y-74314685D01*
G37*
%TD.AperFunction*%
%TA.AperFunction,Conductor*%
G36*
X151704273Y-99134980D02*
G01*
X151751884Y-99186117D01*
X151765000Y-99241622D01*
X151765000Y-100841000D01*
X151745315Y-100908039D01*
X151692511Y-100953794D01*
X151641000Y-100965000D01*
X150341392Y-100965000D01*
X150274353Y-100945315D01*
X150228598Y-100892511D01*
X150218654Y-100823353D01*
X150247679Y-100759797D01*
X150269637Y-100739871D01*
X150537506Y-100549806D01*
X150618801Y-100477155D01*
X149811725Y-99670079D01*
X149873546Y-99711386D01*
X149946467Y-99725891D01*
X149995715Y-99725891D01*
X150068636Y-99711386D01*
X150151331Y-99656131D01*
X150206586Y-99573436D01*
X150225989Y-99475891D01*
X150206586Y-99378346D01*
X150165277Y-99316523D01*
X150972355Y-100123601D01*
X151045006Y-100042306D01*
X151252981Y-99749194D01*
X151252984Y-99749189D01*
X151426844Y-99434613D01*
X151426846Y-99434609D01*
X151526439Y-99194170D01*
X151570280Y-99139766D01*
X151636574Y-99117701D01*
X151704273Y-99134980D01*
G37*
%TD.AperFunction*%
%TA.AperFunction,Conductor*%
G36*
X150130458Y-99281704D02*
G01*
X150068636Y-99240396D01*
X149995715Y-99225891D01*
X149946467Y-99225891D01*
X149873546Y-99240396D01*
X149790851Y-99295651D01*
X149735596Y-99378346D01*
X149716193Y-99475891D01*
X149735596Y-99573436D01*
X149776902Y-99635255D01*
X149300573Y-99158925D01*
X149410278Y-99082110D01*
X149577310Y-98915078D01*
X149654126Y-98805372D01*
X150130458Y-99281704D01*
G37*
%TD.AperFunction*%
%TA.AperFunction,Conductor*%
G36*
X147501090Y-98915078D02*
G01*
X147668122Y-99082110D01*
X147777826Y-99158925D01*
X147301498Y-99635253D01*
X147342804Y-99573436D01*
X147362207Y-99475891D01*
X147342804Y-99378346D01*
X147287549Y-99295651D01*
X147204854Y-99240396D01*
X147131933Y-99225891D01*
X147082685Y-99225891D01*
X147009764Y-99240396D01*
X146947938Y-99281706D01*
X147424273Y-98805372D01*
X147501090Y-98915078D01*
G37*
%TD.AperFunction*%
%TA.AperFunction,Conductor*%
G36*
X114550000Y-98624498D02*
G01*
X114442315Y-98575320D01*
X114335763Y-98560000D01*
X114264237Y-98560000D01*
X114157685Y-98575320D01*
X114050000Y-98624498D01*
X114050000Y-96955501D01*
X114157685Y-97004680D01*
X114264237Y-97020000D01*
X114335763Y-97020000D01*
X114442315Y-97004680D01*
X114550000Y-96955501D01*
X114550000Y-98624498D01*
G37*
%TD.AperFunction*%
%TA.AperFunction,Conductor*%
G36*
X147777827Y-96929073D02*
G01*
X147668122Y-97005890D01*
X147501090Y-97172922D01*
X147424273Y-97282626D01*
X146947942Y-96806296D01*
X147009764Y-96847604D01*
X147082685Y-96862109D01*
X147131933Y-96862109D01*
X147204854Y-96847604D01*
X147287549Y-96792349D01*
X147342804Y-96709654D01*
X147362207Y-96612109D01*
X147342804Y-96514564D01*
X147301494Y-96452739D01*
X147777827Y-96929073D01*
G37*
%TD.AperFunction*%
%TA.AperFunction,Conductor*%
G36*
X149735596Y-96514564D02*
G01*
X149716193Y-96612109D01*
X149735596Y-96709654D01*
X149790851Y-96792349D01*
X149873546Y-96847604D01*
X149946467Y-96862109D01*
X149995715Y-96862109D01*
X150068636Y-96847604D01*
X150130452Y-96806299D01*
X149654125Y-97282626D01*
X149577310Y-97172922D01*
X149410278Y-97005890D01*
X149300572Y-96929073D01*
X149776904Y-96452741D01*
X149735596Y-96514564D01*
G37*
%TD.AperFunction*%
%TA.AperFunction,Conductor*%
G36*
X116380507Y-96310156D02*
G01*
X116340000Y-96448111D01*
X116340000Y-96591889D01*
X116380507Y-96729844D01*
X116406314Y-96770000D01*
X114733686Y-96770000D01*
X114759493Y-96729844D01*
X114800000Y-96591889D01*
X114800000Y-96448111D01*
X114759493Y-96310156D01*
X114733686Y-96270000D01*
X116406314Y-96270000D01*
X116380507Y-96310156D01*
G37*
%TD.AperFunction*%
%TA.AperFunction,Conductor*%
G36*
X118920507Y-96310156D02*
G01*
X118880000Y-96448111D01*
X118880000Y-96591889D01*
X118920507Y-96729844D01*
X118946314Y-96770000D01*
X117273686Y-96770000D01*
X117299493Y-96729844D01*
X117340000Y-96591889D01*
X117340000Y-96448111D01*
X117299493Y-96310156D01*
X117273686Y-96270000D01*
X118946314Y-96270000D01*
X118920507Y-96310156D01*
G37*
%TD.AperFunction*%
%TA.AperFunction,Conductor*%
G36*
X140593007Y-92445185D02*
G01*
X140613649Y-92461819D01*
X141678181Y-93526350D01*
X141711666Y-93587673D01*
X141714500Y-93614031D01*
X141714500Y-95306273D01*
X141694815Y-95373312D01*
X141642906Y-95418655D01*
X141612359Y-95432899D01*
X141433121Y-95558402D01*
X141278402Y-95713121D01*
X141152900Y-95892357D01*
X141152898Y-95892361D01*
X141082382Y-96043583D01*
X141036209Y-96096022D01*
X140969016Y-96115174D01*
X140902135Y-96094958D01*
X140857618Y-96043583D01*
X140826681Y-95977240D01*
X140787102Y-95892362D01*
X140787100Y-95892359D01*
X140787099Y-95892357D01*
X140661599Y-95713124D01*
X140597395Y-95648920D01*
X140506877Y-95558402D01*
X140327642Y-95432900D01*
X140327638Y-95432897D01*
X140293095Y-95416790D01*
X140275543Y-95408605D01*
X140223105Y-95362434D01*
X140203953Y-95295240D01*
X140204266Y-95287366D01*
X140204356Y-95286082D01*
X140204359Y-95286073D01*
X140200658Y-95234329D01*
X140200500Y-95229904D01*
X140200500Y-95214201D01*
X140198264Y-95198657D01*
X140197791Y-95194254D01*
X140197752Y-95193703D01*
X140194091Y-95142517D01*
X140192407Y-95138002D01*
X140185850Y-95112312D01*
X140185165Y-95107543D01*
X140163612Y-95060351D01*
X140161932Y-95056295D01*
X140143796Y-95007669D01*
X140140905Y-95003807D01*
X140127379Y-94981010D01*
X140125377Y-94976627D01*
X140111142Y-94960199D01*
X140091411Y-94937427D01*
X140088633Y-94933979D01*
X140079229Y-94921417D01*
X140079224Y-94921412D01*
X140079221Y-94921407D01*
X140068097Y-94910283D01*
X140065103Y-94907067D01*
X140031128Y-94867857D01*
X140031125Y-94867854D01*
X140027066Y-94865246D01*
X140006428Y-94848614D01*
X139466385Y-94308571D01*
X139449750Y-94287928D01*
X139447145Y-94283874D01*
X139447142Y-94283871D01*
X139439225Y-94277011D01*
X139407932Y-94249896D01*
X139404700Y-94246886D01*
X139393596Y-94235782D01*
X139393588Y-94235775D01*
X139381013Y-94226362D01*
X139377583Y-94223598D01*
X139338373Y-94189623D01*
X139338371Y-94189622D01*
X139338367Y-94189619D01*
X139333983Y-94187617D01*
X139311194Y-94174096D01*
X139308585Y-94172143D01*
X139307331Y-94171204D01*
X139307329Y-94171203D01*
X139258716Y-94153071D01*
X139254642Y-94151383D01*
X139207457Y-94129835D01*
X139207455Y-94129834D01*
X139202682Y-94129148D01*
X139177000Y-94122593D01*
X139172485Y-94120909D01*
X139120740Y-94117207D01*
X139116343Y-94116734D01*
X139100799Y-94114500D01*
X139085094Y-94114500D01*
X139080671Y-94114342D01*
X139063083Y-94113084D01*
X139028929Y-94110641D01*
X139028925Y-94110641D01*
X139024215Y-94111666D01*
X138997857Y-94114500D01*
X138621899Y-94114500D01*
X138554860Y-94094815D01*
X138509105Y-94042011D01*
X138499161Y-93972853D01*
X138514512Y-93928500D01*
X138577250Y-93819835D01*
X138632497Y-93649803D01*
X138651185Y-93472000D01*
X138632497Y-93294197D01*
X138600162Y-93194680D01*
X138577252Y-93124170D01*
X138577249Y-93124164D01*
X138533276Y-93048000D01*
X138487859Y-92969335D01*
X138416326Y-92889890D01*
X138386097Y-92826900D01*
X138394722Y-92757565D01*
X138439463Y-92703899D01*
X138467516Y-92689880D01*
X138577289Y-92651469D01*
X138689589Y-92568589D01*
X138758021Y-92475865D01*
X138813666Y-92433616D01*
X138857790Y-92425500D01*
X140525968Y-92425500D01*
X140593007Y-92445185D01*
G37*
%TD.AperFunction*%
%TA.AperFunction,Conductor*%
G36*
X129201770Y-87745185D02*
G01*
X129247525Y-87797989D01*
X129257469Y-87867147D01*
X129249292Y-87896953D01*
X129210478Y-87990657D01*
X129210478Y-87990659D01*
X129199373Y-88075000D01*
X129361421Y-88075000D01*
X129428460Y-88094685D01*
X129435053Y-88099229D01*
X129437763Y-88101229D01*
X129480015Y-88156875D01*
X129485474Y-88226532D01*
X129452408Y-88288081D01*
X129391314Y-88321984D01*
X129364131Y-88325000D01*
X129199373Y-88325000D01*
X129176301Y-88351308D01*
X129117299Y-88388731D01*
X129047431Y-88388315D01*
X129044765Y-88387482D01*
X129042269Y-88386671D01*
X128892396Y-88354815D01*
X128867391Y-88349500D01*
X128688609Y-88349500D01*
X128663604Y-88354815D01*
X128513733Y-88386670D01*
X128513728Y-88386672D01*
X128350408Y-88459387D01*
X128205768Y-88564475D01*
X128086140Y-88697336D01*
X127996750Y-88852164D01*
X127996747Y-88852170D01*
X127941504Y-89022192D01*
X127941503Y-89022195D01*
X127930807Y-89123962D01*
X127904222Y-89188577D01*
X127846924Y-89228561D01*
X127807486Y-89235000D01*
X127206066Y-89235001D01*
X127169901Y-89237846D01*
X127015110Y-89282817D01*
X127015103Y-89282820D01*
X126876363Y-89364869D01*
X126876351Y-89364878D01*
X126762378Y-89478851D01*
X126762372Y-89478859D01*
X126683858Y-89611621D01*
X126632789Y-89659304D01*
X126577126Y-89672500D01*
X126406874Y-89672500D01*
X126339835Y-89652815D01*
X126300142Y-89611621D01*
X126235215Y-89501835D01*
X126221626Y-89478857D01*
X126221624Y-89478855D01*
X126221621Y-89478851D01*
X126107648Y-89364878D01*
X126107636Y-89364869D01*
X125968896Y-89282820D01*
X125968889Y-89282817D01*
X125814102Y-89237846D01*
X125814096Y-89237845D01*
X125777937Y-89235000D01*
X125777935Y-89235000D01*
X125173760Y-89235001D01*
X125174066Y-89235001D01*
X125137901Y-89237846D01*
X124983110Y-89282817D01*
X124983103Y-89282820D01*
X124844363Y-89364869D01*
X124844351Y-89364878D01*
X124730378Y-89478851D01*
X124730369Y-89478863D01*
X124648320Y-89617603D01*
X124648317Y-89617610D01*
X124603346Y-89772397D01*
X124603345Y-89772403D01*
X124600500Y-89808563D01*
X124600501Y-90437434D01*
X124603346Y-90473598D01*
X124648317Y-90628389D01*
X124648317Y-90628390D01*
X124648318Y-90628392D01*
X124648319Y-90628394D01*
X124688415Y-90696193D01*
X124705597Y-90763917D01*
X124683436Y-90830179D01*
X124628970Y-90873942D01*
X124559490Y-90881311D01*
X124531248Y-90872593D01*
X124406767Y-90817171D01*
X124406765Y-90817170D01*
X124279094Y-90790033D01*
X124231891Y-90780000D01*
X124053109Y-90780000D01*
X124022454Y-90786515D01*
X123878233Y-90817170D01*
X123878228Y-90817172D01*
X123714908Y-90889887D01*
X123570268Y-90994975D01*
X123450641Y-91127834D01*
X123403501Y-91209483D01*
X123352933Y-91257698D01*
X123284326Y-91270920D01*
X123219462Y-91244952D01*
X123208433Y-91235163D01*
X123186648Y-91213378D01*
X123186645Y-91213376D01*
X123186643Y-91213374D01*
X123106082Y-91165730D01*
X123058400Y-91114664D01*
X123045896Y-91045922D01*
X123072541Y-90981333D01*
X123106080Y-90952269D01*
X123186643Y-90904626D01*
X123300626Y-90790643D01*
X123382681Y-90651894D01*
X123416371Y-90535934D01*
X123427653Y-90497102D01*
X123427654Y-90497096D01*
X123430500Y-90460937D01*
X123430499Y-89832066D01*
X123429690Y-89821785D01*
X123427654Y-89795902D01*
X123382681Y-89641106D01*
X123343740Y-89575259D01*
X123300630Y-89502363D01*
X123300621Y-89502351D01*
X123186648Y-89388378D01*
X123186636Y-89388369D01*
X123047896Y-89306320D01*
X123047889Y-89306317D01*
X122893102Y-89261346D01*
X122893096Y-89261345D01*
X122856937Y-89258500D01*
X122856935Y-89258500D01*
X122253312Y-89258501D01*
X122253066Y-89258501D01*
X122216901Y-89261346D01*
X122062110Y-89306317D01*
X122062103Y-89306320D01*
X121923363Y-89388369D01*
X121923351Y-89388378D01*
X121809378Y-89502351D01*
X121809369Y-89502363D01*
X121760428Y-89585120D01*
X121709359Y-89632804D01*
X121653696Y-89646000D01*
X121456304Y-89646000D01*
X121389265Y-89626315D01*
X121349572Y-89585120D01*
X121300630Y-89502363D01*
X121300621Y-89502351D01*
X121186648Y-89388378D01*
X121186636Y-89388369D01*
X121047896Y-89306320D01*
X121047889Y-89306317D01*
X120893102Y-89261346D01*
X120893096Y-89261345D01*
X120856937Y-89258500D01*
X120856935Y-89258500D01*
X120252416Y-89258501D01*
X120253066Y-89258501D01*
X120216901Y-89261346D01*
X120062110Y-89306317D01*
X120062103Y-89306320D01*
X119923363Y-89388369D01*
X119923351Y-89388378D01*
X119809378Y-89502351D01*
X119809369Y-89502363D01*
X119727320Y-89641103D01*
X119727317Y-89641110D01*
X119682346Y-89795897D01*
X119682345Y-89795903D01*
X119679500Y-89832063D01*
X119679501Y-90535934D01*
X119682346Y-90572098D01*
X119727317Y-90726889D01*
X119727320Y-90726896D01*
X119809369Y-90865636D01*
X119809378Y-90865648D01*
X119844692Y-90900962D01*
X119878177Y-90962285D01*
X119873193Y-91031977D01*
X119844693Y-91076324D01*
X119735052Y-91185965D01*
X119644551Y-91332688D01*
X119644546Y-91332699D01*
X119590319Y-91496347D01*
X119580000Y-91597345D01*
X119580000Y-91684000D01*
X120681000Y-91684000D01*
X120748039Y-91703685D01*
X120793794Y-91756489D01*
X120805000Y-91808000D01*
X120805000Y-92958999D01*
X120841640Y-92958999D01*
X120841654Y-92958998D01*
X120942652Y-92948680D01*
X121106300Y-92894453D01*
X121106311Y-92894448D01*
X121253034Y-92803947D01*
X121253038Y-92803944D01*
X121374944Y-92682038D01*
X121374947Y-92682034D01*
X121465448Y-92535311D01*
X121465454Y-92535298D01*
X121488542Y-92465622D01*
X121528314Y-92408177D01*
X121592829Y-92381353D01*
X121661605Y-92393667D01*
X121712806Y-92441210D01*
X121725324Y-92470029D01*
X121727317Y-92476890D01*
X121727320Y-92476896D01*
X121809369Y-92615636D01*
X121809378Y-92615648D01*
X121928873Y-92735143D01*
X121927635Y-92736380D01*
X121962904Y-92785202D01*
X121966703Y-92854968D01*
X121938152Y-92909526D01*
X121863140Y-92992835D01*
X121773750Y-93147664D01*
X121773747Y-93147670D01*
X121718504Y-93317692D01*
X121718503Y-93317694D01*
X121699815Y-93495500D01*
X121718503Y-93673305D01*
X121718504Y-93673307D01*
X121767851Y-93825182D01*
X121769846Y-93895023D01*
X121733765Y-93954856D01*
X121671064Y-93985684D01*
X121649920Y-93987500D01*
X119261444Y-93987500D01*
X119194405Y-93967815D01*
X119148650Y-93915011D01*
X119138706Y-93845853D01*
X119143513Y-93825182D01*
X119167511Y-93751324D01*
X119200497Y-93649803D01*
X119219185Y-93472000D01*
X119200497Y-93294197D01*
X119168162Y-93194680D01*
X119145252Y-93124170D01*
X119145249Y-93124164D01*
X119101276Y-93048000D01*
X119055859Y-92969335D01*
X118980847Y-92886026D01*
X118950617Y-92823035D01*
X118959242Y-92753699D01*
X118991127Y-92712643D01*
X118990127Y-92711643D01*
X119109621Y-92592148D01*
X119109626Y-92592143D01*
X119191681Y-92453394D01*
X119229827Y-92322098D01*
X119236653Y-92298602D01*
X119236654Y-92298596D01*
X119239500Y-92262437D01*
X119239500Y-92184000D01*
X119580001Y-92184000D01*
X119580001Y-92270654D01*
X119590319Y-92371652D01*
X119644546Y-92535300D01*
X119644551Y-92535311D01*
X119735052Y-92682034D01*
X119735055Y-92682038D01*
X119856961Y-92803944D01*
X119856965Y-92803947D01*
X120003688Y-92894448D01*
X120003699Y-92894453D01*
X120167347Y-92948680D01*
X120268352Y-92958999D01*
X120305000Y-92958999D01*
X120305000Y-92184000D01*
X119580001Y-92184000D01*
X119239500Y-92184000D01*
X119239499Y-91633566D01*
X119238562Y-91621657D01*
X119236654Y-91597402D01*
X119191681Y-91442606D01*
X119136648Y-91349549D01*
X119109630Y-91303863D01*
X119109621Y-91303851D01*
X118995648Y-91189878D01*
X118995645Y-91189876D01*
X118995643Y-91189874D01*
X118915082Y-91142230D01*
X118867400Y-91091164D01*
X118854896Y-91022422D01*
X118881541Y-90957833D01*
X118915080Y-90928769D01*
X118995643Y-90881126D01*
X119109626Y-90767143D01*
X119191681Y-90628394D01*
X119236654Y-90473598D01*
X119239500Y-90437435D01*
X119239499Y-89808566D01*
X119236654Y-89772402D01*
X119191681Y-89617606D01*
X119147182Y-89542361D01*
X119109630Y-89478863D01*
X119109621Y-89478851D01*
X118995648Y-89364878D01*
X118995636Y-89364869D01*
X118856896Y-89282820D01*
X118856889Y-89282817D01*
X118702102Y-89237846D01*
X118702096Y-89237845D01*
X118665937Y-89235000D01*
X118665935Y-89235000D01*
X118061056Y-89235001D01*
X118062066Y-89235001D01*
X118025901Y-89237846D01*
X117871110Y-89282817D01*
X117871103Y-89282820D01*
X117732363Y-89364869D01*
X117732351Y-89364878D01*
X117618378Y-89478851D01*
X117618369Y-89478863D01*
X117569428Y-89561620D01*
X117518359Y-89609304D01*
X117462696Y-89622500D01*
X117265304Y-89622500D01*
X117198265Y-89602815D01*
X117158572Y-89561620D01*
X117109630Y-89478863D01*
X117109621Y-89478851D01*
X116995648Y-89364878D01*
X116995636Y-89364869D01*
X116856896Y-89282820D01*
X116856889Y-89282817D01*
X116702102Y-89237846D01*
X116702096Y-89237845D01*
X116665937Y-89235000D01*
X116665935Y-89235000D01*
X116060160Y-89235001D01*
X116062066Y-89235001D01*
X116025901Y-89237846D01*
X115871110Y-89282817D01*
X115871109Y-89282817D01*
X115733491Y-89364203D01*
X115665767Y-89381384D01*
X115599505Y-89359224D01*
X115562984Y-89319470D01*
X115499860Y-89210136D01*
X115410122Y-89110472D01*
X115379892Y-89047481D01*
X115388517Y-88978145D01*
X115433259Y-88924480D01*
X115499911Y-88903522D01*
X115502272Y-88903500D01*
X115667684Y-88903500D01*
X115697038Y-88907025D01*
X115698402Y-88907357D01*
X115698407Y-88907357D01*
X115698411Y-88907359D01*
X115703838Y-88907916D01*
X115728664Y-88913074D01*
X115733873Y-88914728D01*
X115775318Y-88916143D01*
X115786007Y-88916509D01*
X115790232Y-88916798D01*
X115799277Y-88917727D01*
X115842110Y-88922131D01*
X115843693Y-88921857D01*
X115847482Y-88921205D01*
X115872783Y-88919473D01*
X115878245Y-88919660D01*
X115928938Y-88907305D01*
X115933025Y-88906455D01*
X115984467Y-88897587D01*
X115989395Y-88895243D01*
X116013300Y-88886746D01*
X116018594Y-88885457D01*
X116064075Y-88859884D01*
X116067812Y-88857949D01*
X116114921Y-88835545D01*
X116119033Y-88831958D01*
X116139755Y-88817332D01*
X116144512Y-88814658D01*
X116181429Y-88777739D01*
X116184470Y-88774899D01*
X116223800Y-88740607D01*
X116226787Y-88736052D01*
X116242793Y-88716375D01*
X117197350Y-87761819D01*
X117258674Y-87728334D01*
X117285032Y-87725500D01*
X129134731Y-87725500D01*
X129201770Y-87745185D01*
G37*
%TD.AperFunction*%
%TA.AperFunction,Conductor*%
G36*
X129141277Y-90720185D02*
G01*
X129187032Y-90772989D01*
X129197177Y-90808314D01*
X129210478Y-90909340D01*
X129210479Y-90909345D01*
X129267154Y-91046172D01*
X129267155Y-91046174D01*
X129269874Y-91049717D01*
X129295070Y-91114886D01*
X129295500Y-91125206D01*
X129295500Y-91318276D01*
X129298432Y-91349549D01*
X129298432Y-91349551D01*
X129344529Y-91481285D01*
X129344534Y-91481294D01*
X129394389Y-91548845D01*
X129427411Y-91593589D01*
X129539711Y-91676469D01*
X129539712Y-91676469D01*
X129545133Y-91680470D01*
X129587384Y-91736118D01*
X129595500Y-91780241D01*
X129595500Y-92389814D01*
X129575815Y-92456853D01*
X129523011Y-92502608D01*
X129471500Y-92513814D01*
X128589506Y-92513814D01*
X128522467Y-92494129D01*
X128476712Y-92441325D01*
X128466768Y-92372167D01*
X128471801Y-92350808D01*
X128472680Y-92348152D01*
X128482999Y-92247154D01*
X128483000Y-92247141D01*
X128483000Y-92148000D01*
X127382000Y-92148000D01*
X127314961Y-92128315D01*
X127269206Y-92075511D01*
X127258000Y-92024000D01*
X127258000Y-91772000D01*
X127277685Y-91704961D01*
X127330489Y-91659206D01*
X127382000Y-91648000D01*
X128482998Y-91648000D01*
X128482999Y-91548860D01*
X128482998Y-91548845D01*
X128472680Y-91447847D01*
X128418453Y-91284199D01*
X128418448Y-91284188D01*
X128327947Y-91137465D01*
X128327944Y-91137461D01*
X128243307Y-91052824D01*
X128209822Y-90991501D01*
X128214806Y-90921809D01*
X128243310Y-90877459D01*
X128253622Y-90867147D01*
X128253626Y-90867143D01*
X128316173Y-90761379D01*
X128367243Y-90713696D01*
X128422906Y-90700500D01*
X129074238Y-90700500D01*
X129141277Y-90720185D01*
G37*
%TD.AperFunction*%
%TA.AperFunction,Conductor*%
G36*
X131807973Y-88068617D02*
G01*
X131856669Y-88118722D01*
X131871000Y-88176590D01*
X131871000Y-89672844D01*
X131877401Y-89732372D01*
X131877403Y-89732379D01*
X131927645Y-89867086D01*
X131927649Y-89867093D01*
X132013809Y-89982187D01*
X132013812Y-89982190D01*
X132128906Y-90068350D01*
X132128913Y-90068354D01*
X132263620Y-90118596D01*
X132263627Y-90118598D01*
X132323155Y-90124999D01*
X132323172Y-90125000D01*
X132642526Y-90125000D01*
X132709565Y-90144685D01*
X132755320Y-90197489D01*
X132765846Y-90261958D01*
X132752535Y-90388605D01*
X132748815Y-90424001D01*
X132756648Y-90498535D01*
X132744078Y-90567265D01*
X132721008Y-90599176D01*
X132489568Y-90830616D01*
X132468938Y-90847243D01*
X132464876Y-90849854D01*
X132464867Y-90849861D01*
X132430905Y-90889055D01*
X132427892Y-90892291D01*
X132416781Y-90903402D01*
X132407354Y-90915996D01*
X132404587Y-90919428D01*
X132397097Y-90928074D01*
X132370623Y-90958626D01*
X132370617Y-90958636D01*
X132368615Y-90963020D01*
X132355100Y-90985799D01*
X132352206Y-90989664D01*
X132352200Y-90989675D01*
X132341325Y-91018834D01*
X132299454Y-91074768D01*
X132233989Y-91099184D01*
X132225144Y-91099500D01*
X132177724Y-91099500D01*
X132146455Y-91102432D01*
X132146448Y-91102433D01*
X132086953Y-91123251D01*
X132017174Y-91126812D01*
X132005047Y-91123251D01*
X131945551Y-91102433D01*
X131945544Y-91102432D01*
X131914276Y-91099500D01*
X131914272Y-91099500D01*
X131677728Y-91099500D01*
X131677724Y-91099500D01*
X131646451Y-91102432D01*
X131646447Y-91102433D01*
X131586951Y-91123251D01*
X131517173Y-91126812D01*
X131505045Y-91123251D01*
X131445547Y-91102432D01*
X131445549Y-91102432D01*
X131414276Y-91099500D01*
X131414272Y-91099500D01*
X131177728Y-91099500D01*
X131177724Y-91099500D01*
X131146455Y-91102432D01*
X131146449Y-91102433D01*
X131121585Y-91111133D01*
X131051806Y-91114693D01*
X130991180Y-91079962D01*
X130958955Y-91017967D01*
X130965362Y-90948392D01*
X130966073Y-90946636D01*
X130981522Y-90909339D01*
X130992626Y-90825000D01*
X130830579Y-90825000D01*
X130763540Y-90805315D01*
X130756947Y-90800771D01*
X130755592Y-90799771D01*
X130713340Y-90744125D01*
X130707881Y-90674468D01*
X130740947Y-90612919D01*
X130755592Y-90600229D01*
X130756947Y-90599229D01*
X130822576Y-90575259D01*
X130830579Y-90575000D01*
X130992626Y-90575000D01*
X130981521Y-90490659D01*
X130981521Y-90490657D01*
X130924842Y-90353821D01*
X130922124Y-90350279D01*
X130896930Y-90285109D01*
X130896500Y-90274793D01*
X130896500Y-90125206D01*
X130916185Y-90058167D01*
X130922126Y-90049717D01*
X130924844Y-90046174D01*
X130924845Y-90046172D01*
X130981520Y-89909345D01*
X130981521Y-89909340D01*
X130992626Y-89825000D01*
X130830579Y-89825000D01*
X130763540Y-89805315D01*
X130756947Y-89800771D01*
X130755592Y-89799771D01*
X130713340Y-89744125D01*
X130707881Y-89674468D01*
X130740947Y-89612919D01*
X130755592Y-89600229D01*
X130756947Y-89599229D01*
X130822576Y-89575259D01*
X130830579Y-89575000D01*
X130992626Y-89575000D01*
X130981521Y-89490659D01*
X130981521Y-89490657D01*
X130924842Y-89353821D01*
X130922124Y-89350279D01*
X130896930Y-89285109D01*
X130896500Y-89274793D01*
X130896500Y-89125206D01*
X130916185Y-89058167D01*
X130922126Y-89049717D01*
X130924844Y-89046174D01*
X130924845Y-89046172D01*
X130981520Y-88909345D01*
X130981521Y-88909340D01*
X130992626Y-88825000D01*
X130830579Y-88825000D01*
X130763540Y-88805315D01*
X130756947Y-88800771D01*
X130754237Y-88798771D01*
X130711985Y-88743125D01*
X130706526Y-88673468D01*
X130739592Y-88611919D01*
X130800686Y-88578016D01*
X130827869Y-88575000D01*
X130992626Y-88575000D01*
X130981521Y-88490657D01*
X130979418Y-88482806D01*
X130982682Y-88481931D01*
X130976850Y-88428081D01*
X130980002Y-88417353D01*
X130979418Y-88417197D01*
X130981521Y-88409346D01*
X130991400Y-88334314D01*
X131019667Y-88270418D01*
X131077992Y-88231947D01*
X131114339Y-88226500D01*
X131280389Y-88226500D01*
X131280391Y-88226500D01*
X131455267Y-88189329D01*
X131618593Y-88116612D01*
X131674115Y-88076272D01*
X131739919Y-88052792D01*
X131807973Y-88068617D01*
G37*
%TD.AperFunction*%
%TA.AperFunction,Conductor*%
G36*
X137258310Y-89902583D02*
G01*
X137403733Y-89967329D01*
X137578609Y-90004500D01*
X137578610Y-90004500D01*
X137757389Y-90004500D01*
X137757391Y-90004500D01*
X137932267Y-89967329D01*
X137932272Y-89967326D01*
X137934734Y-89966527D01*
X137936244Y-89966483D01*
X137938624Y-89965978D01*
X137938716Y-89966413D01*
X138004575Y-89964528D01*
X138064410Y-90000606D01*
X138095241Y-90063305D01*
X138095385Y-90070453D01*
X138099374Y-90075000D01*
X138261421Y-90075000D01*
X138328460Y-90094685D01*
X138335053Y-90099229D01*
X138336408Y-90100229D01*
X138378660Y-90155875D01*
X138384119Y-90225532D01*
X138351053Y-90287081D01*
X138336408Y-90299771D01*
X138335053Y-90300771D01*
X138269424Y-90324741D01*
X138261421Y-90325000D01*
X138099374Y-90325000D01*
X138110478Y-90409340D01*
X138110479Y-90409345D01*
X138167154Y-90546172D01*
X138167155Y-90546174D01*
X138169874Y-90549717D01*
X138195070Y-90614886D01*
X138195500Y-90625206D01*
X138195500Y-90818276D01*
X138198432Y-90849544D01*
X138198433Y-90849551D01*
X138219251Y-90909047D01*
X138222812Y-90978826D01*
X138219251Y-90990954D01*
X138204681Y-91032593D01*
X138163959Y-91089369D01*
X138128593Y-91108681D01*
X138086954Y-91123251D01*
X138017175Y-91126812D01*
X138005047Y-91123251D01*
X137945551Y-91102433D01*
X137945544Y-91102432D01*
X137914276Y-91099500D01*
X137914272Y-91099500D01*
X137677728Y-91099500D01*
X137677724Y-91099500D01*
X137646451Y-91102432D01*
X137646447Y-91102433D01*
X137586951Y-91123251D01*
X137517173Y-91126812D01*
X137505045Y-91123251D01*
X137445547Y-91102432D01*
X137445549Y-91102432D01*
X137414276Y-91099500D01*
X137414272Y-91099500D01*
X137177728Y-91099500D01*
X137177724Y-91099500D01*
X137146455Y-91102432D01*
X137146448Y-91102433D01*
X137086953Y-91123251D01*
X137017174Y-91126812D01*
X137005047Y-91123251D01*
X136945551Y-91102433D01*
X136945544Y-91102432D01*
X136914276Y-91099500D01*
X136914272Y-91099500D01*
X136677728Y-91099500D01*
X136677724Y-91099500D01*
X136646451Y-91102432D01*
X136646447Y-91102433D01*
X136586951Y-91123251D01*
X136517173Y-91126812D01*
X136505045Y-91123251D01*
X136445547Y-91102432D01*
X136445549Y-91102432D01*
X136414276Y-91099500D01*
X136414272Y-91099500D01*
X136177728Y-91099500D01*
X136177724Y-91099500D01*
X136146455Y-91102432D01*
X136146448Y-91102433D01*
X136086953Y-91123251D01*
X136017174Y-91126812D01*
X136005047Y-91123251D01*
X135945551Y-91102433D01*
X135945545Y-91102432D01*
X135922510Y-91100272D01*
X135857602Y-91074414D01*
X135816977Y-91017569D01*
X135813534Y-90947784D01*
X135826701Y-90914814D01*
X135829556Y-90909869D01*
X135909250Y-90771835D01*
X135964497Y-90601803D01*
X135983185Y-90424000D01*
X135966153Y-90261958D01*
X135978722Y-90193232D01*
X136026454Y-90142208D01*
X136089474Y-90125000D01*
X136768828Y-90125000D01*
X136768844Y-90124999D01*
X136828372Y-90118598D01*
X136828379Y-90118596D01*
X136963086Y-90068354D01*
X136963093Y-90068350D01*
X137078187Y-89982190D01*
X137108607Y-89941554D01*
X137164540Y-89899682D01*
X137234232Y-89894697D01*
X137258310Y-89902583D01*
G37*
%TD.AperFunction*%
%TA.AperFunction,Conductor*%
G36*
X137383113Y-83644978D02*
G01*
X137395745Y-83659557D01*
X137396745Y-83660912D01*
X137420739Y-83726532D01*
X137421000Y-83734578D01*
X137421000Y-83896624D01*
X137421001Y-83896625D01*
X137505334Y-83885523D01*
X137505345Y-83885520D01*
X137642172Y-83828845D01*
X137642176Y-83828843D01*
X137645723Y-83826122D01*
X137710893Y-83800930D01*
X137721207Y-83800500D01*
X137914276Y-83800500D01*
X137945539Y-83797568D01*
X137945539Y-83797567D01*
X137945549Y-83797567D01*
X137970411Y-83788866D01*
X138040189Y-83785304D01*
X138100817Y-83820033D01*
X138133044Y-83882026D01*
X138126640Y-83951601D01*
X138125927Y-83953360D01*
X138110479Y-83990654D01*
X138110478Y-83990659D01*
X138099373Y-84075000D01*
X138261421Y-84075000D01*
X138328460Y-84094685D01*
X138335053Y-84099229D01*
X138336408Y-84100229D01*
X138378660Y-84155875D01*
X138384119Y-84225532D01*
X138351053Y-84287081D01*
X138336408Y-84299771D01*
X138335053Y-84300771D01*
X138269424Y-84324741D01*
X138261421Y-84325000D01*
X138099374Y-84325000D01*
X138110478Y-84409340D01*
X138110479Y-84409345D01*
X138167154Y-84546172D01*
X138167155Y-84546174D01*
X138169874Y-84549717D01*
X138195070Y-84614886D01*
X138195500Y-84625206D01*
X138195500Y-84818276D01*
X138198432Y-84849544D01*
X138198432Y-84849548D01*
X138219251Y-84909045D01*
X138222812Y-84978824D01*
X138219251Y-84990951D01*
X138198434Y-85050445D01*
X138198432Y-85050455D01*
X138195500Y-85081723D01*
X138195500Y-85318276D01*
X138198432Y-85349544D01*
X138198433Y-85349551D01*
X138219251Y-85409047D01*
X138222812Y-85478826D01*
X138219251Y-85490953D01*
X138198433Y-85550448D01*
X138198432Y-85550455D01*
X138195500Y-85581723D01*
X138195500Y-85818276D01*
X138198432Y-85849544D01*
X138198432Y-85849548D01*
X138219251Y-85909045D01*
X138222812Y-85978824D01*
X138219251Y-85990951D01*
X138198434Y-86050445D01*
X138198432Y-86050455D01*
X138195500Y-86081723D01*
X138195500Y-86318276D01*
X138198432Y-86349544D01*
X138198433Y-86349551D01*
X138219251Y-86409047D01*
X138222812Y-86478826D01*
X138219251Y-86490953D01*
X138198433Y-86550448D01*
X138198432Y-86550455D01*
X138195500Y-86581723D01*
X138195500Y-86818276D01*
X138198432Y-86849544D01*
X138198433Y-86849551D01*
X138219251Y-86909047D01*
X138222812Y-86978826D01*
X138219251Y-86990953D01*
X138198433Y-87050448D01*
X138198432Y-87050455D01*
X138195500Y-87081723D01*
X138195500Y-87318276D01*
X138198432Y-87349544D01*
X138198432Y-87349548D01*
X138219251Y-87409045D01*
X138222812Y-87478824D01*
X138219251Y-87490951D01*
X138198434Y-87550445D01*
X138198432Y-87550455D01*
X138195500Y-87581723D01*
X138195500Y-87818276D01*
X138198432Y-87849544D01*
X138198433Y-87849551D01*
X138219251Y-87909047D01*
X138222812Y-87978826D01*
X138219251Y-87990953D01*
X138198433Y-88050448D01*
X138198432Y-88050455D01*
X138195500Y-88081723D01*
X138195500Y-88266926D01*
X138175815Y-88333965D01*
X138123011Y-88379720D01*
X138053853Y-88389664D01*
X138021065Y-88380206D01*
X137940566Y-88344366D01*
X137932267Y-88340671D01*
X137932265Y-88340670D01*
X137804594Y-88313533D01*
X137757391Y-88303500D01*
X137578609Y-88303500D01*
X137547954Y-88310015D01*
X137403733Y-88340670D01*
X137403732Y-88340670D01*
X137395433Y-88344366D01*
X137326183Y-88353649D01*
X137262907Y-88324019D01*
X137225695Y-88264883D01*
X137221000Y-88231085D01*
X137221000Y-87700000D01*
X134420000Y-87700000D01*
X134352961Y-87680315D01*
X134307206Y-87627511D01*
X134296000Y-87576000D01*
X134296000Y-87324000D01*
X134315685Y-87256961D01*
X134368489Y-87211206D01*
X134420000Y-87200000D01*
X137221000Y-87200000D01*
X137221000Y-85227172D01*
X137220999Y-85227155D01*
X137214598Y-85167627D01*
X137214596Y-85167620D01*
X137164354Y-85032913D01*
X137164350Y-85032906D01*
X137078190Y-84917812D01*
X137078187Y-84917809D01*
X136963093Y-84831649D01*
X136963086Y-84831645D01*
X136828379Y-84781403D01*
X136828372Y-84781401D01*
X136768844Y-84775000D01*
X135715701Y-84775000D01*
X135648662Y-84755315D01*
X135602907Y-84702511D01*
X135592963Y-84633353D01*
X135597770Y-84612682D01*
X135618228Y-84549717D01*
X135632497Y-84505803D01*
X135651185Y-84328000D01*
X135632497Y-84150197D01*
X135577250Y-83980165D01*
X135577249Y-83980164D01*
X135577249Y-83980162D01*
X135574924Y-83974940D01*
X135565636Y-83905691D01*
X135595262Y-83842413D01*
X135654395Y-83805197D01*
X135688201Y-83800500D01*
X135914276Y-83800500D01*
X135945539Y-83797568D01*
X135945539Y-83797567D01*
X135945549Y-83797567D01*
X136005048Y-83776746D01*
X136074822Y-83773184D01*
X136086925Y-83776737D01*
X136146451Y-83797567D01*
X136146459Y-83797567D01*
X136146460Y-83797568D01*
X136177724Y-83800500D01*
X136177728Y-83800500D01*
X136414276Y-83800500D01*
X136445539Y-83797568D01*
X136445539Y-83797567D01*
X136445549Y-83797567D01*
X136505048Y-83776746D01*
X136574822Y-83773184D01*
X136586925Y-83776737D01*
X136646451Y-83797567D01*
X136646459Y-83797567D01*
X136646460Y-83797568D01*
X136677724Y-83800500D01*
X136870793Y-83800500D01*
X136937832Y-83820185D01*
X136946277Y-83826122D01*
X136949823Y-83828843D01*
X136949827Y-83828845D01*
X137086654Y-83885520D01*
X137086665Y-83885523D01*
X137170998Y-83896625D01*
X137171000Y-83896624D01*
X137171000Y-83734578D01*
X137190685Y-83667539D01*
X137195247Y-83660922D01*
X137196254Y-83659557D01*
X137251916Y-83617325D01*
X137321574Y-83611890D01*
X137383113Y-83644978D01*
G37*
%TD.AperFunction*%
%TA.AperFunction,Conductor*%
G36*
X131807971Y-85528616D02*
G01*
X131856667Y-85578721D01*
X131870999Y-85636590D01*
X131870999Y-86575409D01*
X131851314Y-86642448D01*
X131798510Y-86688203D01*
X131729352Y-86698147D01*
X131674114Y-86675726D01*
X131635126Y-86647400D01*
X131618595Y-86635389D01*
X131601999Y-86628000D01*
X131455267Y-86562671D01*
X131455265Y-86562670D01*
X131327594Y-86535533D01*
X131280391Y-86525500D01*
X131101609Y-86525500D01*
X131101607Y-86525500D01*
X131025965Y-86541578D01*
X130956298Y-86536262D01*
X130900565Y-86494124D01*
X130876460Y-86428544D01*
X130883144Y-86379334D01*
X130893567Y-86349549D01*
X130896500Y-86318272D01*
X130896500Y-86125206D01*
X130916185Y-86058167D01*
X130922126Y-86049717D01*
X130924844Y-86046174D01*
X130924845Y-86046172D01*
X130981520Y-85909345D01*
X130981521Y-85909341D01*
X130996530Y-85795345D01*
X130998285Y-85795576D01*
X131019860Y-85736741D01*
X131075560Y-85694560D01*
X131119537Y-85686500D01*
X131280389Y-85686500D01*
X131280391Y-85686500D01*
X131455267Y-85649329D01*
X131618593Y-85576612D01*
X131674114Y-85536272D01*
X131739917Y-85512792D01*
X131807971Y-85528616D01*
G37*
%TD.AperFunction*%
%TA.AperFunction,Conductor*%
G36*
X133586925Y-83776737D02*
G01*
X133646451Y-83797567D01*
X133646459Y-83797567D01*
X133646460Y-83797568D01*
X133677724Y-83800500D01*
X133903799Y-83800500D01*
X133970838Y-83820185D01*
X134016593Y-83872989D01*
X134026537Y-83942147D01*
X134017076Y-83974940D01*
X134014750Y-83980162D01*
X133959504Y-84150192D01*
X133959503Y-84150194D01*
X133941130Y-84325000D01*
X133940815Y-84328000D01*
X133945045Y-84368244D01*
X133959503Y-84505805D01*
X133959504Y-84505807D01*
X133994230Y-84612682D01*
X133996225Y-84682523D01*
X133960145Y-84742356D01*
X133897444Y-84773184D01*
X133876299Y-84775000D01*
X132323155Y-84775000D01*
X132263627Y-84781401D01*
X132263616Y-84781403D01*
X132198791Y-84805582D01*
X132129100Y-84810566D01*
X132067777Y-84777080D01*
X132034292Y-84715757D01*
X132032140Y-84702376D01*
X132027497Y-84658197D01*
X131991098Y-84546172D01*
X131972252Y-84488170D01*
X131972249Y-84488164D01*
X131963558Y-84473110D01*
X131882859Y-84333335D01*
X131802126Y-84243672D01*
X131763235Y-84200478D01*
X131763232Y-84200476D01*
X131763231Y-84200475D01*
X131763230Y-84200474D01*
X131652803Y-84120243D01*
X131618592Y-84095387D01*
X131453378Y-84021829D01*
X131400141Y-83976579D01*
X131379820Y-83909730D01*
X131398865Y-83842506D01*
X131451231Y-83796251D01*
X131462837Y-83791517D01*
X131505048Y-83776746D01*
X131574823Y-83773184D01*
X131586925Y-83776737D01*
X131646451Y-83797567D01*
X131646459Y-83797567D01*
X131646460Y-83797568D01*
X131677724Y-83800500D01*
X131677728Y-83800500D01*
X131914276Y-83800500D01*
X131945539Y-83797568D01*
X131945539Y-83797567D01*
X131945549Y-83797567D01*
X132005048Y-83776746D01*
X132074822Y-83773184D01*
X132086925Y-83776737D01*
X132146451Y-83797567D01*
X132146459Y-83797567D01*
X132146460Y-83797568D01*
X132177724Y-83800500D01*
X132177728Y-83800500D01*
X132414276Y-83800500D01*
X132445539Y-83797568D01*
X132445539Y-83797567D01*
X132445549Y-83797567D01*
X132505049Y-83776746D01*
X132574820Y-83773184D01*
X132586936Y-83776741D01*
X132646451Y-83797567D01*
X132646458Y-83797567D01*
X132646460Y-83797568D01*
X132677724Y-83800500D01*
X132677728Y-83800500D01*
X132914276Y-83800500D01*
X132945539Y-83797568D01*
X132945539Y-83797567D01*
X132945549Y-83797567D01*
X133005048Y-83776746D01*
X133074822Y-83773184D01*
X133086925Y-83776737D01*
X133146451Y-83797567D01*
X133146459Y-83797567D01*
X133146460Y-83797568D01*
X133177724Y-83800500D01*
X133177728Y-83800500D01*
X133414276Y-83800500D01*
X133445539Y-83797568D01*
X133445539Y-83797567D01*
X133445549Y-83797567D01*
X133505048Y-83776746D01*
X133574822Y-83773184D01*
X133586925Y-83776737D01*
G37*
%TD.AperFunction*%
%TA.AperFunction,Conductor*%
G36*
X115891255Y-79977702D02*
G01*
X115829436Y-79936396D01*
X115756515Y-79921891D01*
X115707267Y-79921891D01*
X115634346Y-79936396D01*
X115551651Y-79991651D01*
X115496396Y-80074346D01*
X115476993Y-80171891D01*
X115496396Y-80269436D01*
X115537702Y-80331255D01*
X115061373Y-79854925D01*
X115171078Y-79778110D01*
X115338110Y-79611078D01*
X115414926Y-79501373D01*
X115891255Y-79977702D01*
G37*
%TD.AperFunction*%
%TA.AperFunction,Conductor*%
G36*
X113261890Y-79611078D02*
G01*
X113428922Y-79778110D01*
X113538626Y-79854925D01*
X113062298Y-80331253D01*
X113103604Y-80269436D01*
X113123007Y-80171891D01*
X113103604Y-80074346D01*
X113048349Y-79991651D01*
X112965654Y-79936396D01*
X112892733Y-79921891D01*
X112843485Y-79921891D01*
X112770564Y-79936396D01*
X112708738Y-79977706D01*
X113185073Y-79501372D01*
X113261890Y-79611078D01*
G37*
%TD.AperFunction*%
%TA.AperFunction,Conductor*%
G36*
X135069632Y-78066385D02*
G01*
X135109325Y-78107579D01*
X135144371Y-78166839D01*
X135144378Y-78166848D01*
X135258351Y-78280821D01*
X135258355Y-78280824D01*
X135258357Y-78280826D01*
X135258360Y-78280827D01*
X135258359Y-78280827D01*
X135338916Y-78328468D01*
X135386599Y-78379537D01*
X135399103Y-78448278D01*
X135372458Y-78512868D01*
X135338916Y-78541932D01*
X135258359Y-78589572D01*
X135258351Y-78589578D01*
X135144378Y-78703551D01*
X135144369Y-78703563D01*
X135062320Y-78842303D01*
X135062317Y-78842310D01*
X135017346Y-78997097D01*
X135017345Y-78997103D01*
X135014500Y-79033263D01*
X135014501Y-79662134D01*
X135015678Y-79677099D01*
X135001311Y-79745476D01*
X134979741Y-79774504D01*
X134704304Y-80049942D01*
X134642981Y-80083427D01*
X134573290Y-80078443D01*
X134528942Y-80049942D01*
X134510400Y-80031400D01*
X133249400Y-80031400D01*
X133182361Y-80011715D01*
X133136606Y-79958911D01*
X133125400Y-79907400D01*
X133125400Y-79655400D01*
X133145085Y-79588361D01*
X133197889Y-79542606D01*
X133249400Y-79531400D01*
X134510400Y-79531400D01*
X134510400Y-79454172D01*
X134510399Y-79454155D01*
X134503998Y-79394627D01*
X134503996Y-79394620D01*
X134453754Y-79259913D01*
X134453750Y-79259906D01*
X134435348Y-79235324D01*
X134410930Y-79169860D01*
X134410976Y-79157391D01*
X134410900Y-79157391D01*
X134410899Y-78842310D01*
X134410899Y-78530682D01*
X134396046Y-78436896D01*
X134338450Y-78323858D01*
X134338446Y-78323854D01*
X134338445Y-78323852D01*
X134277984Y-78263391D01*
X134244499Y-78202068D01*
X134249483Y-78132376D01*
X134277997Y-78088015D01*
X134283012Y-78083001D01*
X134344343Y-78049529D01*
X134370677Y-78046700D01*
X135002593Y-78046700D01*
X135069632Y-78066385D01*
G37*
%TD.AperFunction*%
%TA.AperFunction,Conductor*%
G36*
X113538626Y-77625074D02*
G01*
X113428922Y-77701890D01*
X113261890Y-77868922D01*
X113185073Y-77978627D01*
X112708739Y-77502294D01*
X112770564Y-77543604D01*
X112843485Y-77558109D01*
X112892733Y-77558109D01*
X112965654Y-77543604D01*
X113048349Y-77488349D01*
X113103604Y-77405654D01*
X113123007Y-77308109D01*
X113103604Y-77210564D01*
X113062298Y-77148745D01*
X113538626Y-77625074D01*
G37*
%TD.AperFunction*%
%TA.AperFunction,Conductor*%
G36*
X115496396Y-77210564D02*
G01*
X115476993Y-77308109D01*
X115496396Y-77405654D01*
X115551651Y-77488349D01*
X115634346Y-77543604D01*
X115707267Y-77558109D01*
X115756515Y-77558109D01*
X115829436Y-77543604D01*
X115891252Y-77502299D01*
X115414925Y-77978626D01*
X115338110Y-77868922D01*
X115171078Y-77701890D01*
X115061371Y-77625072D01*
X115537707Y-77148736D01*
X115496396Y-77210564D01*
G37*
%TD.AperFunction*%
%TD*%
M02*
