%TF.GenerationSoftware,KiCad,Pcbnew,7.0.6*%
%TF.CreationDate,2023-11-01T23:53:57-04:00*%
%TF.ProjectId,FT2232_Board,46543232-3332-45f4-926f-6172642e6b69,rev?*%
%TF.SameCoordinates,Original*%
%TF.FileFunction,Paste,Top*%
%TF.FilePolarity,Positive*%
%FSLAX46Y46*%
G04 Gerber Fmt 4.6, Leading zero omitted, Abs format (unit mm)*
G04 Created by KiCad (PCBNEW 7.0.6) date 2023-11-01 23:53:57*
%MOMM*%
%LPD*%
G01*
G04 APERTURE LIST*
G04 Aperture macros list*
%AMRoundRect*
0 Rectangle with rounded corners*
0 $1 Rounding radius*
0 $2 $3 $4 $5 $6 $7 $8 $9 X,Y pos of 4 corners*
0 Add a 4 corners polygon primitive as box body*
4,1,4,$2,$3,$4,$5,$6,$7,$8,$9,$2,$3,0*
0 Add four circle primitives for the rounded corners*
1,1,$1+$1,$2,$3*
1,1,$1+$1,$4,$5*
1,1,$1+$1,$6,$7*
1,1,$1+$1,$8,$9*
0 Add four rect primitives between the rounded corners*
20,1,$1+$1,$2,$3,$4,$5,0*
20,1,$1+$1,$4,$5,$6,$7,0*
20,1,$1+$1,$6,$7,$8,$9,0*
20,1,$1+$1,$8,$9,$2,$3,0*%
G04 Aperture macros list end*
%ADD10R,1.270000X0.558800*%
%ADD11RoundRect,0.250000X-0.335000X-0.335000X0.335000X-0.335000X0.335000X0.335000X-0.335000X0.335000X0*%
%ADD12RoundRect,0.062500X-0.337500X-0.062500X0.337500X-0.062500X0.337500X0.062500X-0.337500X0.062500X0*%
%ADD13RoundRect,0.062500X-0.062500X-0.337500X0.062500X-0.337500X0.062500X0.337500X-0.062500X0.337500X0*%
%ADD14RoundRect,0.237500X-0.250000X-0.237500X0.250000X-0.237500X0.250000X0.237500X-0.250000X0.237500X0*%
%ADD15RoundRect,0.237500X0.250000X0.237500X-0.250000X0.237500X-0.250000X-0.237500X0.250000X-0.237500X0*%
%ADD16RoundRect,0.237500X0.237500X-0.250000X0.237500X0.250000X-0.237500X0.250000X-0.237500X-0.250000X0*%
%ADD17RoundRect,0.237500X-0.237500X0.250000X-0.237500X-0.250000X0.237500X-0.250000X0.237500X0.250000X0*%
%ADD18R,1.000000X0.520000*%
%ADD19R,1.000000X0.270000*%
%ADD20R,2.000000X1.000000*%
%ADD21RoundRect,0.237500X-0.287500X-0.237500X0.287500X-0.237500X0.287500X0.237500X-0.287500X0.237500X0*%
%ADD22RoundRect,0.237500X0.237500X-0.287500X0.237500X0.287500X-0.237500X0.287500X-0.237500X-0.287500X0*%
%ADD23RoundRect,0.237500X0.237500X-0.300000X0.237500X0.300000X-0.237500X0.300000X-0.237500X-0.300000X0*%
%ADD24RoundRect,0.237500X-0.237500X0.300000X-0.237500X-0.300000X0.237500X-0.300000X0.237500X0.300000X0*%
G04 APERTURE END LIST*
D10*
%TO.C,U1*%
X133375400Y-80721200D03*
X133375400Y-79781400D03*
X133375400Y-78841600D03*
X130784600Y-78841600D03*
X130784600Y-79781400D03*
X130784600Y-80721200D03*
%TD*%
D11*
%TO.C,U2*%
X134546000Y-86000000D03*
X135996000Y-86000000D03*
X133096000Y-88900000D03*
X134546000Y-87450000D03*
X135996000Y-88900000D03*
X133096000Y-87450000D03*
X135996000Y-87450000D03*
X134546000Y-88900000D03*
X133096000Y-86000000D03*
D12*
X130096000Y-83700000D03*
X130096000Y-84200000D03*
X130096000Y-84700000D03*
X130096000Y-85200000D03*
X130096000Y-85700000D03*
X130096000Y-86200000D03*
X130096000Y-86700000D03*
X130096000Y-87200000D03*
X130096000Y-87700000D03*
X130096000Y-88200000D03*
X130096000Y-88700000D03*
X130096000Y-89200000D03*
X130096000Y-89700000D03*
X130096000Y-90200000D03*
X130096000Y-90700000D03*
X130096000Y-91200000D03*
D13*
X130796000Y-91900000D03*
X131296000Y-91900000D03*
X131796000Y-91900000D03*
X132296000Y-91900000D03*
X132796000Y-91900000D03*
X133296000Y-91900000D03*
X133796000Y-91900000D03*
X134296000Y-91900000D03*
X134796000Y-91900000D03*
X135296000Y-91900000D03*
X135796000Y-91900000D03*
X136296000Y-91900000D03*
X136796000Y-91900000D03*
X137296000Y-91900000D03*
X137796000Y-91900000D03*
X138296000Y-91900000D03*
D12*
X138996000Y-91200000D03*
X138996000Y-90700000D03*
X138996000Y-90200000D03*
X138996000Y-89700000D03*
X138996000Y-89200000D03*
X138996000Y-88700000D03*
X138996000Y-88200000D03*
X138996000Y-87700000D03*
X138996000Y-87200000D03*
X138996000Y-86700000D03*
X138996000Y-86200000D03*
X138996000Y-85700000D03*
X138996000Y-85200000D03*
X138996000Y-84700000D03*
X138996000Y-84200000D03*
X138996000Y-83700000D03*
D13*
X138296000Y-83000000D03*
X137796000Y-83000000D03*
X137296000Y-83000000D03*
X136796000Y-83000000D03*
X136296000Y-83000000D03*
X135796000Y-83000000D03*
X135296000Y-83000000D03*
X134796000Y-83000000D03*
X134296000Y-83000000D03*
X133796000Y-83000000D03*
X133296000Y-83000000D03*
X132796000Y-83000000D03*
X132296000Y-83000000D03*
X131796000Y-83000000D03*
X131296000Y-83000000D03*
X130796000Y-83000000D03*
%TD*%
D14*
%TO.C,R1*%
X108307500Y-80264000D03*
X110132500Y-80264000D03*
%TD*%
D15*
%TO.C,R7*%
X142644500Y-78740000D03*
X140819500Y-78740000D03*
%TD*%
D16*
%TO.C,R4*%
X122555000Y-90146500D03*
X122555000Y-91971500D03*
%TD*%
%TO.C,R5*%
X118364000Y-91948000D03*
X118364000Y-90123000D03*
%TD*%
D17*
%TO.C,R2*%
X135890000Y-79347700D03*
X135890000Y-77522700D03*
%TD*%
D15*
%TO.C,R3*%
X125931300Y-85344000D03*
X124106300Y-85344000D03*
%TD*%
D17*
%TO.C,R6*%
X125476000Y-90123000D03*
X125476000Y-91948000D03*
%TD*%
D18*
%TO.C,J1*%
X112898500Y-84528000D03*
X112898500Y-85278000D03*
D19*
X112898500Y-85878000D03*
X112898500Y-86378000D03*
X112898500Y-86878000D03*
X112898500Y-87378000D03*
X112898500Y-87878000D03*
X112898500Y-88378000D03*
X112898500Y-88878000D03*
X112898500Y-89378000D03*
D18*
X112898500Y-89978000D03*
X112898500Y-90728000D03*
D20*
X108698500Y-86228000D03*
X108698500Y-89028000D03*
%TD*%
D21*
%TO.C,D1*%
X110095000Y-78232000D03*
X108345000Y-78232000D03*
%TD*%
D22*
%TO.C,D2*%
X120555000Y-90184000D03*
X120555000Y-91934000D03*
%TD*%
%TO.C,D3*%
X116364000Y-91910500D03*
X116364000Y-90160500D03*
%TD*%
D23*
%TO.C,C1*%
X115570000Y-83592500D03*
X115570000Y-85317500D03*
%TD*%
%TO.C,C2*%
X127203200Y-79756000D03*
X127203200Y-81481000D03*
%TD*%
D24*
%TO.C,C3*%
X127508000Y-91898000D03*
X127508000Y-90173000D03*
%TD*%
M02*
