%TF.GenerationSoftware,KiCad,Pcbnew,7.0.6*%
%TF.CreationDate,2023-11-01T23:53:57-04:00*%
%TF.ProjectId,FT2232_Board,46543232-3332-45f4-926f-6172642e6b69,rev?*%
%TF.SameCoordinates,Original*%
%TF.FileFunction,Copper,L3,Inr*%
%TF.FilePolarity,Positive*%
%FSLAX46Y46*%
G04 Gerber Fmt 4.6, Leading zero omitted, Abs format (unit mm)*
G04 Created by KiCad (PCBNEW 7.0.6) date 2023-11-01 23:53:57*
%MOMM*%
%LPD*%
G01*
G04 APERTURE LIST*
%TA.AperFunction,ComponentPad*%
%ADD10C,0.800000*%
%TD*%
%TA.AperFunction,ComponentPad*%
%ADD11C,5.400000*%
%TD*%
%TA.AperFunction,ComponentPad*%
%ADD12R,1.700000X1.700000*%
%TD*%
%TA.AperFunction,ComponentPad*%
%ADD13O,1.700000X1.700000*%
%TD*%
%TA.AperFunction,ComponentPad*%
%ADD14O,2.316000X1.158000*%
%TD*%
%TA.AperFunction,ComponentPad*%
%ADD15O,2.400000X1.200000*%
%TD*%
%TA.AperFunction,ViaPad*%
%ADD16C,0.900000*%
%TD*%
%TA.AperFunction,Conductor*%
%ADD17C,0.200000*%
%TD*%
%TA.AperFunction,Conductor*%
%ADD18C,0.250000*%
%TD*%
%TA.AperFunction,Conductor*%
%ADD19C,0.300000*%
%TD*%
G04 APERTURE END LIST*
D10*
%TO.N,GND*%
%TO.C,H2*%
X147107309Y-99475891D03*
D11*
X148539200Y-98044000D03*
D10*
X148539200Y-100069000D03*
X149971091Y-96612109D03*
X146514200Y-98044000D03*
X148539200Y-96019000D03*
X150564200Y-98044000D03*
X149971091Y-99475891D03*
X147107309Y-96612109D03*
%TD*%
%TO.N,GND*%
%TO.C,H1*%
X112868109Y-80171891D03*
D11*
X114300000Y-78740000D03*
D10*
X114300000Y-80765000D03*
X115731891Y-77308109D03*
X112275000Y-78740000D03*
X114300000Y-76715000D03*
X116325000Y-78740000D03*
X115731891Y-80171891D03*
X112868109Y-77308109D03*
%TD*%
D12*
%TO.N,/VCCIO*%
%TO.C,J4*%
X147315000Y-76835000D03*
D13*
%TO.N,GND*%
X149855000Y-76835000D03*
%TD*%
D12*
%TO.N,GND*%
%TO.C,J3*%
X127000000Y-99060000D03*
D13*
%TO.N,/VCCIO*%
X127000000Y-96520000D03*
%TO.N,/GPIOL0*%
X129540000Y-99060000D03*
%TO.N,/GPIOH0*%
X129540000Y-96520000D03*
%TO.N,/GPIOL1*%
X132080000Y-99060000D03*
%TO.N,/GPIOH1*%
X132080000Y-96520000D03*
%TO.N,/GPIOL2*%
X134620000Y-99060000D03*
%TO.N,/GPIOH2*%
X134620000Y-96520000D03*
%TO.N,/GPIOL3*%
X137160000Y-99060000D03*
%TO.N,/GPIOH3*%
X137160000Y-96520000D03*
%TO.N,/GPIOH6*%
X139700000Y-99060000D03*
%TO.N,/GPIOH4*%
X139700000Y-96520000D03*
%TO.N,/GPIOH7*%
X142240000Y-99060000D03*
%TO.N,/GPIOH5*%
X142240000Y-96520000D03*
%TD*%
D12*
%TO.N,/UART_TX_OUT*%
%TO.C,J5*%
X149860000Y-92710000D03*
D13*
%TO.N,GND*%
X147320000Y-92710000D03*
%TO.N,/UART_RX_IN*%
X149860000Y-90170000D03*
%TO.N,/TXDEN_OUT*%
X147320000Y-90170000D03*
%TO.N,/UART_RTS_OUT*%
X149860000Y-87630000D03*
%TO.N,/UART_RI_IN*%
X147320000Y-87630000D03*
%TO.N,/UART_CTS_IN*%
X149860000Y-85090000D03*
%TO.N,/UART_DCD_IN*%
X147320000Y-85090000D03*
%TO.N,/UART_DTR_OUT*%
X149860000Y-82550000D03*
%TO.N,/UART_DSR_IN*%
X147320000Y-82550000D03*
%TD*%
D12*
%TO.N,/TCK*%
%TO.C,J2*%
X111760000Y-99060000D03*
D13*
%TO.N,/VCCIO*%
X111760000Y-96520000D03*
%TO.N,GND*%
X114300000Y-99060000D03*
X114300000Y-96520000D03*
%TO.N,/TDI*%
X116840000Y-99060000D03*
%TO.N,GND*%
X116840000Y-96520000D03*
%TO.N,/TMS*%
X119380000Y-99060000D03*
%TO.N,GND*%
X119380000Y-96520000D03*
%TO.N,/TDO*%
X121920000Y-99060000D03*
%TO.N,unconnected-(J102-Pin_10-Pad10)*%
X121920000Y-96520000D03*
%TD*%
D14*
%TO.N,GND*%
%TO.C,J1*%
X112523500Y-83308000D03*
X112523500Y-91948000D03*
D15*
X108698500Y-83308000D03*
X108698500Y-91948000D03*
%TD*%
D16*
%TO.N,GND*%
X140360400Y-93573600D03*
X150571200Y-79908400D03*
X132080000Y-76606400D03*
X108254800Y-100126800D03*
X108356400Y-75641200D03*
%TO.N,Net-(U101-OSCO)*%
X128676400Y-85344000D03*
%TO.N,Net-(U101-OSCI)*%
X128574800Y-84175600D03*
%TO.N,GND*%
X140817600Y-80721200D03*
X117957600Y-81991200D03*
X117602000Y-88442800D03*
X124256800Y-88696800D03*
X120548400Y-93370400D03*
%TO.N,/TX_LED*%
X135763000Y-81407000D03*
%TO.N,/RX_LED*%
X136779000Y-81915000D03*
X122555000Y-93495500D03*
%TO.N,/TX_LED*%
X118364000Y-93472000D03*
%TO.N,/3.3V*%
X124142500Y-91630500D03*
%TO.N,GND*%
X128905000Y-91567000D03*
%TO.N,/GPIOL0*%
X133604000Y-90424000D03*
%TO.N,/GPIOL2*%
X135128000Y-90424000D03*
%TO.N,/GPIOL1*%
X133350000Y-94100500D03*
%TO.N,/GPIOL3*%
X134546500Y-92964000D03*
%TO.N,/TXDEN_OUT*%
X140970000Y-83185000D03*
%TO.N,/UART_RI_IN*%
X142240000Y-82550000D03*
%TO.N,/UART_DCD_IN*%
X142735500Y-83820000D03*
%TO.N,/UART_DSR_IN*%
X143510000Y-82550000D03*
%TO.N,Net-(U101-VPHY)*%
X131191000Y-87376000D03*
X131191000Y-84836000D03*
%TO.N,/3.3V*%
X120650000Y-83058000D03*
X120650000Y-76758800D03*
%TO.N,GND*%
X123190000Y-81991200D03*
%TO.N,/3.3V*%
X108331000Y-81661000D03*
%TO.N,Net-(J101-CC2)*%
X111633000Y-88900000D03*
%TO.N,Net-(J101-CC1)*%
X111633000Y-85852000D03*
%TO.N,GND*%
X108331000Y-87503000D03*
%TO.N,/USB_5V*%
X116840000Y-85278000D03*
X114808000Y-89712800D03*
%TO.N,GND*%
X134620000Y-79781400D03*
%TO.N,/VCCIO*%
X132296000Y-93472000D03*
%TO.N,/1.8V*%
X128778000Y-89200000D03*
X137668000Y-89154000D03*
%TO.N,GND*%
X134620000Y-87376000D03*
X132842000Y-89154000D03*
X136144000Y-89154000D03*
X136144000Y-85852000D03*
X127203200Y-78232000D03*
%TO.N,/1.8V*%
X129794000Y-82550000D03*
%TO.N,/3.3V*%
X129286000Y-80721200D03*
X137796000Y-81026000D03*
%TO.N,/1.8V*%
X139192000Y-81534000D03*
%TO.N,/VCCIO*%
X137796000Y-93472000D03*
X134796000Y-84328000D03*
X141224000Y-86700000D03*
X144272000Y-78740000D03*
%TD*%
D17*
%TO.N,/VCCIO*%
X113538000Y-94742000D02*
X111760000Y-96520000D01*
X127000000Y-94742000D02*
X113538000Y-94742000D01*
D18*
X134796000Y-84328000D02*
X139319000Y-84328000D01*
D19*
X139319000Y-84328000D02*
X139319000Y-86741000D01*
X139319000Y-83439000D02*
X139319000Y-84328000D01*
X140665200Y-82092800D02*
X139319000Y-83439000D01*
X140919200Y-82092800D02*
X140665200Y-82092800D01*
X144272000Y-78740000D02*
X140919200Y-82092800D01*
D17*
%TO.N,/RX_LED*%
X122555000Y-88620600D02*
X122555000Y-93495500D01*
X127762000Y-83413600D02*
X122555000Y-88620600D01*
X135280400Y-83413600D02*
X127762000Y-83413600D01*
X136779000Y-81915000D02*
X135280400Y-83413600D01*
%TO.N,/TX_LED*%
X128637600Y-81471200D02*
X118364000Y-91744800D01*
X118364000Y-91744800D02*
X118364000Y-91846400D01*
X135698800Y-81471200D02*
X128637600Y-81471200D01*
X135763000Y-81407000D02*
X135698800Y-81471200D01*
X118364000Y-91846400D02*
X118364000Y-93472000D01*
%TO.N,/VCCIO*%
X128270000Y-93472000D02*
X132296000Y-93472000D01*
X127000000Y-94742000D02*
X128270000Y-93472000D01*
X127000000Y-96520000D02*
X127000000Y-94742000D01*
D19*
X139319000Y-86741000D02*
X139319000Y-90932000D01*
D18*
X141224000Y-86700000D02*
X139360000Y-86700000D01*
X139360000Y-86700000D02*
X139319000Y-86741000D01*
X137796000Y-93472000D02*
X137796000Y-92201000D01*
D19*
X138049000Y-91948000D02*
X132715000Y-91948000D01*
X138303000Y-91948000D02*
X138049000Y-91948000D01*
D18*
X137796000Y-92201000D02*
X138049000Y-91948000D01*
D19*
X132334000Y-93434000D02*
X132296000Y-93472000D01*
X139319000Y-90932000D02*
X138303000Y-91948000D01*
X132715000Y-91948000D02*
X132334000Y-92329000D01*
X132334000Y-92329000D02*
X132334000Y-93434000D01*
%TD*%
%TA.AperFunction,Conductor*%
%TO.N,/3.3V*%
G36*
X130698336Y-83933785D02*
G01*
X130744091Y-83986589D01*
X130754035Y-84055747D01*
X130725010Y-84119303D01*
X130704184Y-84138416D01*
X130687970Y-84150197D01*
X130618768Y-84200475D01*
X130499140Y-84333336D01*
X130409750Y-84488164D01*
X130409747Y-84488170D01*
X130354504Y-84658192D01*
X130354503Y-84658194D01*
X130335815Y-84836000D01*
X130354503Y-85013805D01*
X130354504Y-85013807D01*
X130409747Y-85183829D01*
X130409750Y-85183835D01*
X130499141Y-85338665D01*
X130540812Y-85384946D01*
X130618764Y-85471521D01*
X130618767Y-85471523D01*
X130618770Y-85471526D01*
X130763407Y-85576612D01*
X130926733Y-85649329D01*
X131101609Y-85686500D01*
X131101610Y-85686500D01*
X131280389Y-85686500D01*
X131280391Y-85686500D01*
X131455267Y-85649329D01*
X131618593Y-85576612D01*
X131763230Y-85471526D01*
X131777386Y-85455805D01*
X131789148Y-85442741D01*
X131882859Y-85338665D01*
X131972250Y-85183835D01*
X132027497Y-85013803D01*
X132046185Y-84836000D01*
X132027497Y-84658197D01*
X131983285Y-84522127D01*
X131972252Y-84488170D01*
X131972249Y-84488164D01*
X131958686Y-84464672D01*
X131882859Y-84333335D01*
X131823617Y-84267540D01*
X131763235Y-84200478D01*
X131763232Y-84200476D01*
X131763231Y-84200475D01*
X131763230Y-84200474D01*
X131677817Y-84138417D01*
X131635152Y-84083087D01*
X131629174Y-84013474D01*
X131661780Y-83951679D01*
X131722619Y-83917322D01*
X131750704Y-83914100D01*
X133865544Y-83914100D01*
X133932583Y-83933785D01*
X133978338Y-83986589D01*
X133988282Y-84055747D01*
X133983475Y-84076418D01*
X133959504Y-84150192D01*
X133959503Y-84150194D01*
X133940815Y-84327999D01*
X133959503Y-84505805D01*
X133959504Y-84505807D01*
X134014747Y-84675829D01*
X134014750Y-84675835D01*
X134104141Y-84830665D01*
X134137211Y-84867393D01*
X134223764Y-84963521D01*
X134223767Y-84963523D01*
X134223770Y-84963526D01*
X134368407Y-85068612D01*
X134531733Y-85141329D01*
X134706609Y-85178500D01*
X134706610Y-85178500D01*
X134885389Y-85178500D01*
X134885391Y-85178500D01*
X135060267Y-85141329D01*
X135223593Y-85068612D01*
X135368230Y-84963526D01*
X135368235Y-84963521D01*
X135430357Y-84894528D01*
X135489844Y-84857879D01*
X135522507Y-84853500D01*
X135712260Y-84853500D01*
X135779299Y-84873185D01*
X135825054Y-84925989D01*
X135834998Y-84995147D01*
X135805973Y-85058703D01*
X135762696Y-85090779D01*
X135716408Y-85111387D01*
X135571768Y-85216475D01*
X135452140Y-85349336D01*
X135362750Y-85504164D01*
X135362747Y-85504170D01*
X135307504Y-85674192D01*
X135307503Y-85674194D01*
X135288815Y-85851999D01*
X135307503Y-86029805D01*
X135307504Y-86029807D01*
X135362747Y-86199829D01*
X135362750Y-86199835D01*
X135452141Y-86354665D01*
X135487372Y-86393793D01*
X135571764Y-86487521D01*
X135571767Y-86487523D01*
X135571770Y-86487526D01*
X135716407Y-86592612D01*
X135879733Y-86665329D01*
X136054609Y-86702500D01*
X136054610Y-86702500D01*
X136233389Y-86702500D01*
X136233391Y-86702500D01*
X136408267Y-86665329D01*
X136571593Y-86592612D01*
X136716230Y-86487526D01*
X136835859Y-86354665D01*
X136925250Y-86199835D01*
X136980497Y-86029803D01*
X136999185Y-85852000D01*
X136980497Y-85674197D01*
X136945477Y-85566416D01*
X136925252Y-85504170D01*
X136925249Y-85504164D01*
X136835859Y-85349335D01*
X136789003Y-85297296D01*
X136716235Y-85216478D01*
X136716232Y-85216476D01*
X136716231Y-85216475D01*
X136716230Y-85216474D01*
X136571593Y-85111388D01*
X136525303Y-85090778D01*
X136472068Y-85045530D01*
X136451746Y-84978681D01*
X136470791Y-84911457D01*
X136523157Y-84865201D01*
X136575740Y-84853500D01*
X138644500Y-84853500D01*
X138711539Y-84873185D01*
X138757294Y-84925989D01*
X138768500Y-84977500D01*
X138768500Y-89121955D01*
X138760005Y-89150884D01*
X138766477Y-89163737D01*
X138768500Y-89186044D01*
X138768500Y-90652612D01*
X138748815Y-90719651D01*
X138732181Y-90740293D01*
X138111294Y-91361181D01*
X138049971Y-91394666D01*
X138023613Y-91397500D01*
X135614993Y-91397500D01*
X135547954Y-91377815D01*
X135502199Y-91325011D01*
X135492255Y-91255853D01*
X135521280Y-91192297D01*
X135552997Y-91166110D01*
X135555583Y-91164616D01*
X135555593Y-91164612D01*
X135700230Y-91059526D01*
X135819859Y-90926665D01*
X135909250Y-90771835D01*
X135964497Y-90601803D01*
X135983185Y-90424000D01*
X135964497Y-90246197D01*
X135938704Y-90166817D01*
X135936710Y-90096977D01*
X135972790Y-90037144D01*
X136035491Y-90006316D01*
X136056636Y-90004500D01*
X136233389Y-90004500D01*
X136233391Y-90004500D01*
X136408267Y-89967329D01*
X136571593Y-89894612D01*
X136716230Y-89789526D01*
X136717176Y-89788476D01*
X136760222Y-89740668D01*
X136813851Y-89681106D01*
X136873335Y-89644460D01*
X136943192Y-89645789D01*
X136998149Y-89681108D01*
X137095764Y-89789521D01*
X137095767Y-89789523D01*
X137095770Y-89789526D01*
X137240407Y-89894612D01*
X137403733Y-89967329D01*
X137578609Y-90004500D01*
X137578610Y-90004500D01*
X137757389Y-90004500D01*
X137757391Y-90004500D01*
X137932267Y-89967329D01*
X138095593Y-89894612D01*
X138240230Y-89789526D01*
X138241176Y-89788476D01*
X138308838Y-89713329D01*
X138359859Y-89656665D01*
X138449250Y-89501835D01*
X138504497Y-89331803D01*
X138521179Y-89173080D01*
X138526936Y-89159089D01*
X138525523Y-89156890D01*
X138521179Y-89134917D01*
X138515712Y-89082900D01*
X138504497Y-88976197D01*
X138468759Y-88866207D01*
X138449252Y-88806170D01*
X138449249Y-88806164D01*
X138359859Y-88651335D01*
X138313003Y-88599296D01*
X138240235Y-88518478D01*
X138240232Y-88518476D01*
X138240231Y-88518475D01*
X138240230Y-88518474D01*
X138095593Y-88413388D01*
X137932267Y-88340671D01*
X137932265Y-88340670D01*
X137804594Y-88313533D01*
X137757391Y-88303500D01*
X137578609Y-88303500D01*
X137547954Y-88310015D01*
X137403733Y-88340670D01*
X137403728Y-88340672D01*
X137240408Y-88413387D01*
X137095771Y-88518473D01*
X137095770Y-88518474D01*
X137003813Y-88620603D01*
X136998150Y-88626892D01*
X136938663Y-88663540D01*
X136868806Y-88662209D01*
X136813850Y-88626891D01*
X136716235Y-88518478D01*
X136716232Y-88518476D01*
X136716231Y-88518475D01*
X136716230Y-88518474D01*
X136571593Y-88413388D01*
X136408267Y-88340671D01*
X136408265Y-88340670D01*
X136280594Y-88313533D01*
X136233391Y-88303500D01*
X136054609Y-88303500D01*
X136023954Y-88310015D01*
X135879733Y-88340670D01*
X135879728Y-88340672D01*
X135716408Y-88413387D01*
X135571768Y-88518475D01*
X135452140Y-88651336D01*
X135362750Y-88806164D01*
X135362747Y-88806170D01*
X135307504Y-88976192D01*
X135307503Y-88976194D01*
X135288815Y-89153999D01*
X135307503Y-89331805D01*
X135307504Y-89331807D01*
X135333295Y-89411182D01*
X135335290Y-89481023D01*
X135299210Y-89540856D01*
X135236509Y-89571684D01*
X135215364Y-89573500D01*
X135038609Y-89573500D01*
X135007954Y-89580015D01*
X134863733Y-89610670D01*
X134863728Y-89610672D01*
X134700408Y-89683387D01*
X134555771Y-89788473D01*
X134555770Y-89788474D01*
X134460205Y-89894610D01*
X134458150Y-89896892D01*
X134398663Y-89933540D01*
X134328806Y-89932209D01*
X134273850Y-89896891D01*
X134176235Y-89788478D01*
X134176232Y-89788476D01*
X134176231Y-89788475D01*
X134176230Y-89788474D01*
X134031593Y-89683388D01*
X133868267Y-89610671D01*
X133868265Y-89610670D01*
X133740706Y-89583557D01*
X133679224Y-89550365D01*
X133645448Y-89489202D01*
X133648555Y-89423952D01*
X133678497Y-89331803D01*
X133697185Y-89154000D01*
X133678497Y-88976197D01*
X133642759Y-88866207D01*
X133623252Y-88806170D01*
X133623249Y-88806164D01*
X133533859Y-88651335D01*
X133487003Y-88599296D01*
X133414235Y-88518478D01*
X133414232Y-88518476D01*
X133414231Y-88518475D01*
X133414230Y-88518474D01*
X133269593Y-88413388D01*
X133106267Y-88340671D01*
X133106265Y-88340670D01*
X132978594Y-88313533D01*
X132931391Y-88303500D01*
X132752609Y-88303500D01*
X132721954Y-88310015D01*
X132577733Y-88340670D01*
X132577728Y-88340672D01*
X132414408Y-88413387D01*
X132269768Y-88518475D01*
X132150140Y-88651336D01*
X132060750Y-88806164D01*
X132060747Y-88806170D01*
X132005504Y-88976192D01*
X132005503Y-88976194D01*
X131986815Y-89154000D01*
X132005503Y-89331805D01*
X132005504Y-89331807D01*
X132060747Y-89501829D01*
X132060750Y-89501835D01*
X132150141Y-89656665D01*
X132183382Y-89693583D01*
X132269764Y-89789521D01*
X132269767Y-89789523D01*
X132269770Y-89789526D01*
X132414407Y-89894612D01*
X132577733Y-89967329D01*
X132577735Y-89967329D01*
X132577736Y-89967330D01*
X132633108Y-89979099D01*
X132705293Y-89994442D01*
X132766774Y-90027634D01*
X132800551Y-90088797D01*
X132797443Y-90154050D01*
X132767504Y-90246192D01*
X132767503Y-90246194D01*
X132758913Y-90327921D01*
X132748815Y-90424000D01*
X132751942Y-90453747D01*
X132767503Y-90601805D01*
X132767504Y-90601807D01*
X132822747Y-90771829D01*
X132822750Y-90771835D01*
X132912141Y-90926665D01*
X132916475Y-90931478D01*
X133031764Y-91059521D01*
X133031767Y-91059523D01*
X133031770Y-91059526D01*
X133176407Y-91164612D01*
X133176412Y-91164614D01*
X133179003Y-91166110D01*
X133180207Y-91167372D01*
X133181665Y-91168432D01*
X133181471Y-91168698D01*
X133227220Y-91216676D01*
X133240446Y-91285282D01*
X133214481Y-91350148D01*
X133157568Y-91390678D01*
X133117007Y-91397500D01*
X132724397Y-91397500D01*
X132658174Y-91395238D01*
X132658173Y-91395238D01*
X132658171Y-91395238D01*
X132615170Y-91405717D01*
X132608930Y-91406902D01*
X132565079Y-91412930D01*
X132548616Y-91420081D01*
X132528575Y-91426820D01*
X132511150Y-91431066D01*
X132511145Y-91431068D01*
X132472567Y-91452758D01*
X132466881Y-91455582D01*
X132426279Y-91473220D01*
X132412357Y-91484546D01*
X132394883Y-91496438D01*
X132379246Y-91505230D01*
X132379239Y-91505235D01*
X132347939Y-91536535D01*
X132343225Y-91540789D01*
X132308891Y-91568722D01*
X132298541Y-91583385D01*
X132284920Y-91599554D01*
X131951383Y-91933092D01*
X131902956Y-91978320D01*
X131902953Y-91978322D01*
X131879955Y-92016139D01*
X131876384Y-92021387D01*
X131849641Y-92056655D01*
X131849636Y-92056663D01*
X131843055Y-92073352D01*
X131833653Y-92092283D01*
X131824327Y-92107619D01*
X131812385Y-92150237D01*
X131810362Y-92156255D01*
X131794122Y-92197440D01*
X131792288Y-92215284D01*
X131788342Y-92236048D01*
X131783501Y-92253328D01*
X131783500Y-92253337D01*
X131783500Y-92297594D01*
X131783175Y-92303935D01*
X131782797Y-92307612D01*
X131778648Y-92347970D01*
X131778648Y-92347975D01*
X131781697Y-92365656D01*
X131783500Y-92386724D01*
X131783500Y-92729896D01*
X131763815Y-92796935D01*
X131732389Y-92830211D01*
X131728569Y-92832987D01*
X131723767Y-92836476D01*
X131723764Y-92836478D01*
X131639133Y-92930472D01*
X131579646Y-92967121D01*
X131546983Y-92971500D01*
X128337143Y-92971500D01*
X128310785Y-92968666D01*
X128306074Y-92967641D01*
X128306070Y-92967641D01*
X128267552Y-92970396D01*
X128254328Y-92971342D01*
X128249906Y-92971500D01*
X128234199Y-92971500D01*
X128218656Y-92973734D01*
X128214260Y-92974207D01*
X128162517Y-92977909D01*
X128162513Y-92977910D01*
X128157986Y-92979598D01*
X128132327Y-92986146D01*
X128127550Y-92986833D01*
X128127543Y-92986835D01*
X128080353Y-93008385D01*
X128076264Y-93010078D01*
X128027675Y-93028200D01*
X128027664Y-93028206D01*
X128023799Y-93031100D01*
X128001020Y-93044615D01*
X127996636Y-93046617D01*
X127996626Y-93046623D01*
X127972676Y-93067375D01*
X127957428Y-93080587D01*
X127953996Y-93083354D01*
X127941402Y-93092781D01*
X127930291Y-93103892D01*
X127927055Y-93106905D01*
X127887861Y-93140867D01*
X127887854Y-93140876D01*
X127885243Y-93144938D01*
X127868616Y-93165568D01*
X126829005Y-94205181D01*
X126767682Y-94238666D01*
X126741324Y-94241500D01*
X123306268Y-94241500D01*
X123239229Y-94221815D01*
X123193474Y-94169011D01*
X123183530Y-94099853D01*
X123212555Y-94036297D01*
X123214118Y-94034528D01*
X123237266Y-94008819D01*
X123246859Y-93998165D01*
X123336250Y-93843335D01*
X123391497Y-93673303D01*
X123410185Y-93495500D01*
X123391497Y-93317697D01*
X123361626Y-93225764D01*
X123336252Y-93147670D01*
X123336249Y-93147664D01*
X123246859Y-92992835D01*
X123188462Y-92927979D01*
X123127235Y-92859978D01*
X123127226Y-92859971D01*
X123106613Y-92844994D01*
X123063947Y-92789664D01*
X123055499Y-92744677D01*
X123055499Y-91567000D01*
X128049815Y-91567000D01*
X128068503Y-91744805D01*
X128068504Y-91744807D01*
X128123747Y-91914829D01*
X128123750Y-91914835D01*
X128213141Y-92069665D01*
X128241244Y-92100876D01*
X128332764Y-92202521D01*
X128332767Y-92202523D01*
X128332770Y-92202526D01*
X128477407Y-92307612D01*
X128640733Y-92380329D01*
X128815609Y-92417500D01*
X128815610Y-92417500D01*
X128994389Y-92417500D01*
X128994391Y-92417500D01*
X129169267Y-92380329D01*
X129332593Y-92307612D01*
X129477230Y-92202526D01*
X129479441Y-92200071D01*
X129503148Y-92173741D01*
X129596859Y-92069665D01*
X129686250Y-91914835D01*
X129741497Y-91744803D01*
X129760185Y-91567000D01*
X129741497Y-91389197D01*
X129704230Y-91274500D01*
X129686252Y-91219170D01*
X129686249Y-91219164D01*
X129677690Y-91204339D01*
X129596859Y-91064335D01*
X129518115Y-90976881D01*
X129477235Y-90931478D01*
X129477232Y-90931476D01*
X129477231Y-90931475D01*
X129477230Y-90931474D01*
X129332593Y-90826388D01*
X129169267Y-90753671D01*
X129169265Y-90753670D01*
X129009215Y-90719651D01*
X128994391Y-90716500D01*
X128815609Y-90716500D01*
X128800785Y-90719651D01*
X128640733Y-90753670D01*
X128640728Y-90753672D01*
X128477408Y-90826387D01*
X128332768Y-90931475D01*
X128213140Y-91064336D01*
X128123750Y-91219164D01*
X128123747Y-91219170D01*
X128068504Y-91389192D01*
X128068503Y-91389194D01*
X128049815Y-91567000D01*
X123055499Y-91567000D01*
X123055499Y-90826387D01*
X123055499Y-88879271D01*
X123075184Y-88812236D01*
X123091805Y-88791607D01*
X123197342Y-88686071D01*
X123258662Y-88652589D01*
X123328354Y-88657573D01*
X123384287Y-88699445D01*
X123408341Y-88760793D01*
X123420303Y-88874604D01*
X123420304Y-88874607D01*
X123475547Y-89044629D01*
X123475550Y-89044635D01*
X123564941Y-89199465D01*
X123606612Y-89245746D01*
X123684564Y-89332321D01*
X123684567Y-89332323D01*
X123684570Y-89332326D01*
X123829207Y-89437412D01*
X123992533Y-89510129D01*
X124167409Y-89547300D01*
X124167410Y-89547300D01*
X124346189Y-89547300D01*
X124346191Y-89547300D01*
X124521067Y-89510129D01*
X124684393Y-89437412D01*
X124829030Y-89332326D01*
X124829498Y-89331807D01*
X124897638Y-89256129D01*
X124948177Y-89200000D01*
X127922815Y-89200000D01*
X127941503Y-89377805D01*
X127941504Y-89377807D01*
X127996747Y-89547829D01*
X127996750Y-89547835D01*
X128086141Y-89702665D01*
X128120359Y-89740668D01*
X128205764Y-89835521D01*
X128205767Y-89835523D01*
X128205770Y-89835526D01*
X128350407Y-89940612D01*
X128513733Y-90013329D01*
X128688609Y-90050500D01*
X128688610Y-90050500D01*
X128867389Y-90050500D01*
X128867391Y-90050500D01*
X129042267Y-90013329D01*
X129205593Y-89940612D01*
X129350230Y-89835526D01*
X129469859Y-89702665D01*
X129559250Y-89547835D01*
X129614497Y-89377803D01*
X129633185Y-89200000D01*
X129614497Y-89022197D01*
X129585773Y-88933793D01*
X129559252Y-88852170D01*
X129559249Y-88852164D01*
X129548641Y-88833790D01*
X129469859Y-88697335D01*
X129400769Y-88620603D01*
X129350235Y-88564478D01*
X129350232Y-88564476D01*
X129350231Y-88564475D01*
X129350230Y-88564474D01*
X129205593Y-88459388D01*
X129042267Y-88386671D01*
X129042265Y-88386670D01*
X128914594Y-88359533D01*
X128867391Y-88349500D01*
X128688609Y-88349500D01*
X128657954Y-88356015D01*
X128513733Y-88386670D01*
X128513728Y-88386672D01*
X128350408Y-88459387D01*
X128205768Y-88564475D01*
X128086140Y-88697336D01*
X127996750Y-88852164D01*
X127996747Y-88852170D01*
X127941504Y-89022192D01*
X127941503Y-89022194D01*
X127922815Y-89200000D01*
X124948177Y-89200000D01*
X124948659Y-89199465D01*
X125038050Y-89044635D01*
X125093297Y-88874603D01*
X125111985Y-88696800D01*
X125093297Y-88518997D01*
X125053767Y-88397336D01*
X125038052Y-88348970D01*
X125038049Y-88348964D01*
X125033261Y-88340671D01*
X124948659Y-88194135D01*
X124878855Y-88116610D01*
X124829035Y-88061278D01*
X124829032Y-88061276D01*
X124829031Y-88061275D01*
X124829030Y-88061274D01*
X124684393Y-87956188D01*
X124521067Y-87883471D01*
X124521065Y-87883470D01*
X124393394Y-87856333D01*
X124346191Y-87846300D01*
X124336475Y-87846300D01*
X124269436Y-87826615D01*
X124223681Y-87773811D01*
X124213737Y-87704653D01*
X124242762Y-87641097D01*
X124248794Y-87634619D01*
X124507414Y-87375999D01*
X130335815Y-87375999D01*
X130354503Y-87553805D01*
X130354504Y-87553807D01*
X130409747Y-87723829D01*
X130409750Y-87723835D01*
X130499141Y-87878665D01*
X130524609Y-87906950D01*
X130618764Y-88011521D01*
X130618767Y-88011523D01*
X130618770Y-88011526D01*
X130763407Y-88116612D01*
X130926733Y-88189329D01*
X131101609Y-88226500D01*
X131101610Y-88226500D01*
X131280389Y-88226500D01*
X131280391Y-88226500D01*
X131455267Y-88189329D01*
X131618593Y-88116612D01*
X131763230Y-88011526D01*
X131768508Y-88005665D01*
X131789148Y-87982741D01*
X131882859Y-87878665D01*
X131972250Y-87723835D01*
X132027497Y-87553803D01*
X132046185Y-87376000D01*
X132046185Y-87375999D01*
X133764815Y-87375999D01*
X133783503Y-87553805D01*
X133783504Y-87553807D01*
X133838747Y-87723829D01*
X133838750Y-87723835D01*
X133928141Y-87878665D01*
X133953609Y-87906950D01*
X134047764Y-88011521D01*
X134047767Y-88011523D01*
X134047770Y-88011526D01*
X134192407Y-88116612D01*
X134355733Y-88189329D01*
X134530609Y-88226500D01*
X134530610Y-88226500D01*
X134709389Y-88226500D01*
X134709391Y-88226500D01*
X134884267Y-88189329D01*
X135047593Y-88116612D01*
X135192230Y-88011526D01*
X135197508Y-88005665D01*
X135218148Y-87982741D01*
X135311859Y-87878665D01*
X135401250Y-87723835D01*
X135456497Y-87553803D01*
X135475185Y-87376000D01*
X135456497Y-87198197D01*
X135407641Y-87047835D01*
X135401252Y-87028170D01*
X135401249Y-87028164D01*
X135311859Y-86873335D01*
X135265003Y-86821296D01*
X135192235Y-86740478D01*
X135192232Y-86740476D01*
X135192231Y-86740475D01*
X135192230Y-86740474D01*
X135047593Y-86635388D01*
X134884267Y-86562671D01*
X134884265Y-86562670D01*
X134756594Y-86535533D01*
X134709391Y-86525500D01*
X134530609Y-86525500D01*
X134499954Y-86532015D01*
X134355733Y-86562670D01*
X134355728Y-86562672D01*
X134192408Y-86635387D01*
X134047768Y-86740475D01*
X133928140Y-86873336D01*
X133838750Y-87028164D01*
X133838747Y-87028170D01*
X133783504Y-87198192D01*
X133783503Y-87198194D01*
X133764815Y-87375999D01*
X132046185Y-87375999D01*
X132027497Y-87198197D01*
X131978641Y-87047835D01*
X131972252Y-87028170D01*
X131972249Y-87028164D01*
X131882859Y-86873335D01*
X131836003Y-86821296D01*
X131763235Y-86740478D01*
X131763232Y-86740476D01*
X131763231Y-86740475D01*
X131763230Y-86740474D01*
X131618593Y-86635388D01*
X131455267Y-86562671D01*
X131455265Y-86562670D01*
X131327594Y-86535533D01*
X131280391Y-86525500D01*
X131101609Y-86525500D01*
X131070954Y-86532015D01*
X130926733Y-86562670D01*
X130926728Y-86562672D01*
X130763408Y-86635387D01*
X130618768Y-86740475D01*
X130499140Y-86873336D01*
X130409750Y-87028164D01*
X130409747Y-87028170D01*
X130354504Y-87198192D01*
X130354503Y-87198194D01*
X130335815Y-87375999D01*
X124507414Y-87375999D01*
X125864803Y-86018610D01*
X127544141Y-84339271D01*
X127605462Y-84305788D01*
X127675154Y-84310772D01*
X127731087Y-84352644D01*
X127749751Y-84388636D01*
X127793547Y-84523429D01*
X127793550Y-84523435D01*
X127882941Y-84678265D01*
X127919937Y-84719353D01*
X127941928Y-84743777D01*
X127972158Y-84806769D01*
X127963533Y-84876104D01*
X127957166Y-84888748D01*
X127895149Y-84996166D01*
X127895147Y-84996170D01*
X127839904Y-85166192D01*
X127839903Y-85166194D01*
X127821215Y-85344000D01*
X127839903Y-85521805D01*
X127839904Y-85521807D01*
X127895147Y-85691829D01*
X127895150Y-85691835D01*
X127984541Y-85846665D01*
X127987094Y-85849500D01*
X128104164Y-85979521D01*
X128104167Y-85979523D01*
X128104170Y-85979526D01*
X128248807Y-86084612D01*
X128412133Y-86157329D01*
X128587009Y-86194500D01*
X128587010Y-86194500D01*
X128765789Y-86194500D01*
X128765791Y-86194500D01*
X128940667Y-86157329D01*
X129103993Y-86084612D01*
X129248630Y-85979526D01*
X129266762Y-85959389D01*
X129274548Y-85950741D01*
X129368259Y-85846665D01*
X129457650Y-85691835D01*
X129512897Y-85521803D01*
X129531585Y-85344000D01*
X129512897Y-85166197D01*
X129469598Y-85032936D01*
X129457652Y-84996170D01*
X129457649Y-84996164D01*
X129456698Y-84994517D01*
X129368259Y-84841335D01*
X129309270Y-84775821D01*
X129279040Y-84712831D01*
X129287665Y-84643496D01*
X129294026Y-84630863D01*
X129356050Y-84523435D01*
X129411297Y-84353403D01*
X129429985Y-84175600D01*
X129416895Y-84051060D01*
X129429464Y-83982332D01*
X129477196Y-83931308D01*
X129540216Y-83914100D01*
X130631297Y-83914100D01*
X130698336Y-83933785D01*
G37*
%TD.AperFunction*%
%TA.AperFunction,Conductor*%
G36*
X151708039Y-74314685D02*
G01*
X151753794Y-74367489D01*
X151765000Y-74419000D01*
X151765000Y-97162874D01*
X151745315Y-97229913D01*
X151692511Y-97275668D01*
X151623353Y-97285612D01*
X151559797Y-97256587D01*
X151522023Y-97197809D01*
X151521846Y-97197202D01*
X151507566Y-97147635D01*
X151470321Y-97018356D01*
X151337055Y-96696624D01*
X151168605Y-96391836D01*
X150967088Y-96107824D01*
X150735039Y-95848161D01*
X150475376Y-95616112D01*
X150191364Y-95414595D01*
X149886576Y-95246145D01*
X149877776Y-95242500D01*
X149819941Y-95218544D01*
X149564844Y-95112879D01*
X149397528Y-95064675D01*
X149230217Y-95016474D01*
X149230209Y-95016472D01*
X148886900Y-94958142D01*
X148886888Y-94958140D01*
X148539200Y-94938615D01*
X148191511Y-94958140D01*
X148191499Y-94958142D01*
X147848190Y-95016472D01*
X147848182Y-95016474D01*
X147513559Y-95112878D01*
X147513556Y-95112879D01*
X147419324Y-95151910D01*
X147191825Y-95246144D01*
X146887035Y-95414595D01*
X146685518Y-95557579D01*
X146603024Y-95616112D01*
X146343361Y-95848161D01*
X146126636Y-96090677D01*
X146111313Y-96107823D01*
X145909795Y-96391835D01*
X145741344Y-96696625D01*
X145724216Y-96737977D01*
X145617167Y-96996417D01*
X145608078Y-97018359D01*
X145511674Y-97352982D01*
X145511672Y-97352990D01*
X145453342Y-97696299D01*
X145453340Y-97696311D01*
X145433815Y-98044000D01*
X145453340Y-98391688D01*
X145453342Y-98391700D01*
X145511672Y-98735009D01*
X145511674Y-98735017D01*
X145539565Y-98831827D01*
X145608079Y-99069644D01*
X145693679Y-99276300D01*
X145739195Y-99386187D01*
X145741345Y-99391376D01*
X145909795Y-99696164D01*
X146111312Y-99980176D01*
X146343361Y-100239839D01*
X146603024Y-100471888D01*
X146887036Y-100673405D01*
X146993910Y-100732472D01*
X147043063Y-100782129D01*
X147057566Y-100850477D01*
X147032816Y-100915816D01*
X146976670Y-100957401D01*
X146933929Y-100965000D01*
X108923051Y-100965000D01*
X108856012Y-100945315D01*
X108810257Y-100892511D01*
X108800313Y-100823353D01*
X108829338Y-100759797D01*
X108830901Y-100758028D01*
X108873533Y-100710678D01*
X108946659Y-100629465D01*
X109036050Y-100474635D01*
X109091297Y-100304603D01*
X109109985Y-100126800D01*
X109091297Y-99948997D01*
X109036050Y-99778965D01*
X108946659Y-99624135D01*
X108899803Y-99572096D01*
X108827035Y-99491278D01*
X108827032Y-99491276D01*
X108827031Y-99491275D01*
X108827030Y-99491274D01*
X108682393Y-99386188D01*
X108519067Y-99313471D01*
X108519065Y-99313470D01*
X108391394Y-99286333D01*
X108344191Y-99276300D01*
X108165409Y-99276300D01*
X108134754Y-99282815D01*
X107990533Y-99313470D01*
X107990528Y-99313472D01*
X107827208Y-99386187D01*
X107682568Y-99491275D01*
X107562940Y-99624136D01*
X107546387Y-99652807D01*
X107495820Y-99701022D01*
X107427213Y-99714246D01*
X107362349Y-99688278D01*
X107321820Y-99631364D01*
X107315000Y-99590807D01*
X107315000Y-96520002D01*
X110504723Y-96520002D01*
X110523793Y-96737975D01*
X110523793Y-96737979D01*
X110580422Y-96949322D01*
X110580424Y-96949326D01*
X110580425Y-96949330D01*
X110612614Y-97018359D01*
X110672897Y-97147638D01*
X110672898Y-97147639D01*
X110798402Y-97326877D01*
X110953123Y-97481598D01*
X111099263Y-97583926D01*
X111142887Y-97638502D01*
X111150081Y-97708000D01*
X111118558Y-97770355D01*
X111058328Y-97805769D01*
X111028140Y-97809500D01*
X110878482Y-97809500D01*
X110797519Y-97822323D01*
X110784696Y-97824354D01*
X110671658Y-97881950D01*
X110671657Y-97881950D01*
X110671657Y-97881951D01*
X110671652Y-97881954D01*
X110581954Y-97971652D01*
X110581951Y-97971657D01*
X110581950Y-97971658D01*
X110562751Y-98009337D01*
X110524352Y-98084698D01*
X110509500Y-98178475D01*
X110509500Y-99941517D01*
X110510685Y-99948997D01*
X110524354Y-100035304D01*
X110581950Y-100148342D01*
X110581952Y-100148344D01*
X110581954Y-100148347D01*
X110671652Y-100238045D01*
X110671654Y-100238046D01*
X110671658Y-100238050D01*
X110784694Y-100295645D01*
X110784698Y-100295647D01*
X110878475Y-100310499D01*
X110878481Y-100310500D01*
X112641518Y-100310499D01*
X112735304Y-100295646D01*
X112848342Y-100238050D01*
X112938050Y-100148342D01*
X112995646Y-100035304D01*
X112995646Y-100035302D01*
X112995647Y-100035301D01*
X113006282Y-99968147D01*
X113010500Y-99941519D01*
X113010499Y-99791859D01*
X113030183Y-99724823D01*
X113082987Y-99679068D01*
X113152145Y-99669124D01*
X113215701Y-99698149D01*
X113236073Y-99720738D01*
X113338402Y-99866877D01*
X113493123Y-100021598D01*
X113672361Y-100147102D01*
X113870670Y-100239575D01*
X113870676Y-100239576D01*
X113870677Y-100239577D01*
X113871655Y-100239839D01*
X114082023Y-100296207D01*
X114264926Y-100312208D01*
X114299998Y-100315277D01*
X114300000Y-100315277D01*
X114300002Y-100315277D01*
X114328254Y-100312805D01*
X114517977Y-100296207D01*
X114729330Y-100239575D01*
X114927639Y-100147102D01*
X115106877Y-100021598D01*
X115261598Y-99866877D01*
X115387102Y-99687639D01*
X115457618Y-99536414D01*
X115503790Y-99483977D01*
X115570984Y-99464825D01*
X115637865Y-99485041D01*
X115682381Y-99536414D01*
X115752898Y-99687639D01*
X115878402Y-99866877D01*
X116033123Y-100021598D01*
X116212361Y-100147102D01*
X116410670Y-100239575D01*
X116410676Y-100239576D01*
X116410677Y-100239577D01*
X116411655Y-100239839D01*
X116622023Y-100296207D01*
X116804926Y-100312208D01*
X116839998Y-100315277D01*
X116840000Y-100315277D01*
X116840002Y-100315277D01*
X116868254Y-100312805D01*
X117057977Y-100296207D01*
X117269330Y-100239575D01*
X117467639Y-100147102D01*
X117646877Y-100021598D01*
X117801598Y-99866877D01*
X117927102Y-99687639D01*
X117997618Y-99536414D01*
X118043790Y-99483977D01*
X118110984Y-99464825D01*
X118177865Y-99485041D01*
X118222381Y-99536414D01*
X118292898Y-99687639D01*
X118418402Y-99866877D01*
X118573123Y-100021598D01*
X118752361Y-100147102D01*
X118950670Y-100239575D01*
X118950676Y-100239576D01*
X118950677Y-100239577D01*
X118951655Y-100239839D01*
X119162023Y-100296207D01*
X119344926Y-100312208D01*
X119379998Y-100315277D01*
X119380000Y-100315277D01*
X119380002Y-100315277D01*
X119408254Y-100312805D01*
X119597977Y-100296207D01*
X119809330Y-100239575D01*
X120007639Y-100147102D01*
X120186877Y-100021598D01*
X120341598Y-99866877D01*
X120467102Y-99687639D01*
X120537619Y-99536414D01*
X120583789Y-99483977D01*
X120650982Y-99464825D01*
X120717863Y-99485040D01*
X120762381Y-99536416D01*
X120832897Y-99687638D01*
X120832898Y-99687639D01*
X120958402Y-99866877D01*
X121113123Y-100021598D01*
X121292361Y-100147102D01*
X121490670Y-100239575D01*
X121490676Y-100239576D01*
X121490677Y-100239577D01*
X121491655Y-100239839D01*
X121702023Y-100296207D01*
X121884926Y-100312208D01*
X121919998Y-100315277D01*
X121920000Y-100315277D01*
X121920002Y-100315277D01*
X121948254Y-100312805D01*
X122137977Y-100296207D01*
X122349330Y-100239575D01*
X122547639Y-100147102D01*
X122726877Y-100021598D01*
X122881598Y-99866877D01*
X123007102Y-99687639D01*
X123099575Y-99489330D01*
X123156207Y-99277977D01*
X123175277Y-99060000D01*
X123156207Y-98842023D01*
X123099575Y-98630670D01*
X123007102Y-98432362D01*
X123007100Y-98432359D01*
X123007099Y-98432357D01*
X122881599Y-98253124D01*
X122806950Y-98178475D01*
X122726877Y-98098402D01*
X122547639Y-97972898D01*
X122396414Y-97902381D01*
X122343977Y-97856210D01*
X122324825Y-97789016D01*
X122345041Y-97722135D01*
X122396414Y-97677618D01*
X122547639Y-97607102D01*
X122726877Y-97481598D01*
X122881598Y-97326877D01*
X123007102Y-97147639D01*
X123099575Y-96949330D01*
X123156207Y-96737977D01*
X123175277Y-96520000D01*
X123156207Y-96302023D01*
X123106141Y-96115174D01*
X123099577Y-96090677D01*
X123099576Y-96090676D01*
X123099575Y-96090670D01*
X123007102Y-95892362D01*
X123007100Y-95892359D01*
X123007099Y-95892357D01*
X122881599Y-95713124D01*
X122881596Y-95713121D01*
X122726877Y-95558402D01*
X122597874Y-95468073D01*
X122554251Y-95413497D01*
X122547059Y-95343999D01*
X122578581Y-95281644D01*
X122638811Y-95246231D01*
X122669000Y-95242500D01*
X126251000Y-95242500D01*
X126318039Y-95262185D01*
X126363794Y-95314989D01*
X126373738Y-95384147D01*
X126344713Y-95447703D01*
X126322123Y-95468075D01*
X126193121Y-95558402D01*
X126038402Y-95713121D01*
X125912900Y-95892357D01*
X125912898Y-95892361D01*
X125820426Y-96090668D01*
X125820422Y-96090677D01*
X125763793Y-96302020D01*
X125763793Y-96302024D01*
X125744723Y-96519997D01*
X125744723Y-96520002D01*
X125763793Y-96737975D01*
X125763793Y-96737979D01*
X125820422Y-96949322D01*
X125820424Y-96949326D01*
X125820425Y-96949330D01*
X125852614Y-97018359D01*
X125912897Y-97147638D01*
X125912898Y-97147639D01*
X126038402Y-97326877D01*
X126193123Y-97481598D01*
X126339263Y-97583926D01*
X126382887Y-97638502D01*
X126390081Y-97708000D01*
X126358558Y-97770355D01*
X126298328Y-97805769D01*
X126268140Y-97809500D01*
X126118482Y-97809500D01*
X126037519Y-97822323D01*
X126024696Y-97824354D01*
X125911658Y-97881950D01*
X125911657Y-97881950D01*
X125911657Y-97881951D01*
X125911652Y-97881954D01*
X125821954Y-97971652D01*
X125821951Y-97971657D01*
X125821950Y-97971658D01*
X125802751Y-98009337D01*
X125764352Y-98084698D01*
X125749500Y-98178475D01*
X125749500Y-99941517D01*
X125750685Y-99948997D01*
X125764354Y-100035304D01*
X125821950Y-100148342D01*
X125821952Y-100148344D01*
X125821954Y-100148347D01*
X125911652Y-100238045D01*
X125911654Y-100238046D01*
X125911658Y-100238050D01*
X126024694Y-100295645D01*
X126024698Y-100295647D01*
X126118475Y-100310499D01*
X126118481Y-100310500D01*
X127881518Y-100310499D01*
X127975304Y-100295646D01*
X128088342Y-100238050D01*
X128178050Y-100148342D01*
X128235646Y-100035304D01*
X128235646Y-100035302D01*
X128235647Y-100035301D01*
X128246282Y-99968147D01*
X128250500Y-99941519D01*
X128250499Y-99791859D01*
X128270183Y-99724823D01*
X128322987Y-99679068D01*
X128392145Y-99669124D01*
X128455701Y-99698149D01*
X128476073Y-99720738D01*
X128578402Y-99866877D01*
X128733123Y-100021598D01*
X128912361Y-100147102D01*
X129110670Y-100239575D01*
X129110676Y-100239576D01*
X129110677Y-100239577D01*
X129111655Y-100239839D01*
X129322023Y-100296207D01*
X129504926Y-100312208D01*
X129539998Y-100315277D01*
X129540000Y-100315277D01*
X129540002Y-100315277D01*
X129568254Y-100312805D01*
X129757977Y-100296207D01*
X129969330Y-100239575D01*
X130167639Y-100147102D01*
X130346877Y-100021598D01*
X130501598Y-99866877D01*
X130627102Y-99687639D01*
X130697618Y-99536414D01*
X130743790Y-99483977D01*
X130810984Y-99464825D01*
X130877865Y-99485041D01*
X130922381Y-99536414D01*
X130992898Y-99687639D01*
X131118402Y-99866877D01*
X131273123Y-100021598D01*
X131452361Y-100147102D01*
X131650670Y-100239575D01*
X131650676Y-100239576D01*
X131650677Y-100239577D01*
X131651655Y-100239839D01*
X131862023Y-100296207D01*
X132044926Y-100312208D01*
X132079998Y-100315277D01*
X132080000Y-100315277D01*
X132080002Y-100315277D01*
X132108254Y-100312805D01*
X132297977Y-100296207D01*
X132509330Y-100239575D01*
X132707639Y-100147102D01*
X132886877Y-100021598D01*
X133041598Y-99866877D01*
X133167102Y-99687639D01*
X133237618Y-99536414D01*
X133283790Y-99483977D01*
X133350984Y-99464825D01*
X133417865Y-99485041D01*
X133462381Y-99536414D01*
X133532898Y-99687639D01*
X133658402Y-99866877D01*
X133813123Y-100021598D01*
X133992361Y-100147102D01*
X134190670Y-100239575D01*
X134190676Y-100239576D01*
X134190677Y-100239577D01*
X134191655Y-100239839D01*
X134402023Y-100296207D01*
X134584926Y-100312208D01*
X134619998Y-100315277D01*
X134620000Y-100315277D01*
X134620002Y-100315277D01*
X134648254Y-100312805D01*
X134837977Y-100296207D01*
X135049330Y-100239575D01*
X135247639Y-100147102D01*
X135426877Y-100021598D01*
X135581598Y-99866877D01*
X135707102Y-99687639D01*
X135777618Y-99536414D01*
X135823790Y-99483977D01*
X135890984Y-99464825D01*
X135957865Y-99485041D01*
X136002381Y-99536414D01*
X136072898Y-99687639D01*
X136198402Y-99866877D01*
X136353123Y-100021598D01*
X136532361Y-100147102D01*
X136730670Y-100239575D01*
X136730676Y-100239576D01*
X136730677Y-100239577D01*
X136731655Y-100239839D01*
X136942023Y-100296207D01*
X137124926Y-100312208D01*
X137159998Y-100315277D01*
X137160000Y-100315277D01*
X137160002Y-100315277D01*
X137188254Y-100312805D01*
X137377977Y-100296207D01*
X137589330Y-100239575D01*
X137787639Y-100147102D01*
X137966877Y-100021598D01*
X138121598Y-99866877D01*
X138247102Y-99687639D01*
X138317618Y-99536414D01*
X138363790Y-99483977D01*
X138430984Y-99464825D01*
X138497865Y-99485041D01*
X138542381Y-99536414D01*
X138612898Y-99687639D01*
X138738402Y-99866877D01*
X138893123Y-100021598D01*
X139072361Y-100147102D01*
X139270670Y-100239575D01*
X139270676Y-100239576D01*
X139270677Y-100239577D01*
X139271655Y-100239839D01*
X139482023Y-100296207D01*
X139664926Y-100312208D01*
X139699998Y-100315277D01*
X139700000Y-100315277D01*
X139700002Y-100315277D01*
X139728254Y-100312805D01*
X139917977Y-100296207D01*
X140129330Y-100239575D01*
X140327639Y-100147102D01*
X140506877Y-100021598D01*
X140661598Y-99866877D01*
X140787102Y-99687639D01*
X140857618Y-99536414D01*
X140903790Y-99483977D01*
X140970984Y-99464825D01*
X141037865Y-99485041D01*
X141082381Y-99536414D01*
X141152898Y-99687639D01*
X141278402Y-99866877D01*
X141433123Y-100021598D01*
X141612361Y-100147102D01*
X141810670Y-100239575D01*
X141810676Y-100239576D01*
X141810677Y-100239577D01*
X141811655Y-100239839D01*
X142022023Y-100296207D01*
X142204926Y-100312208D01*
X142239998Y-100315277D01*
X142240000Y-100315277D01*
X142240002Y-100315277D01*
X142268254Y-100312805D01*
X142457977Y-100296207D01*
X142669330Y-100239575D01*
X142867639Y-100147102D01*
X143046877Y-100021598D01*
X143201598Y-99866877D01*
X143327102Y-99687639D01*
X143419575Y-99489330D01*
X143476207Y-99277977D01*
X143495277Y-99060000D01*
X143476207Y-98842023D01*
X143419575Y-98630670D01*
X143327102Y-98432362D01*
X143327100Y-98432359D01*
X143327099Y-98432357D01*
X143201599Y-98253124D01*
X143126950Y-98178475D01*
X143046877Y-98098402D01*
X142867639Y-97972898D01*
X142716414Y-97902381D01*
X142663977Y-97856210D01*
X142644825Y-97789016D01*
X142665041Y-97722135D01*
X142716414Y-97677618D01*
X142867639Y-97607102D01*
X143046877Y-97481598D01*
X143201598Y-97326877D01*
X143327102Y-97147639D01*
X143419575Y-96949330D01*
X143476207Y-96737977D01*
X143495277Y-96520000D01*
X143476207Y-96302023D01*
X143426141Y-96115174D01*
X143419577Y-96090677D01*
X143419576Y-96090676D01*
X143419575Y-96090670D01*
X143327102Y-95892362D01*
X143327100Y-95892359D01*
X143327099Y-95892357D01*
X143201599Y-95713124D01*
X143201596Y-95713121D01*
X143046877Y-95558402D01*
X142867639Y-95432898D01*
X142867640Y-95432898D01*
X142867638Y-95432897D01*
X142763092Y-95384147D01*
X142669330Y-95340425D01*
X142669326Y-95340424D01*
X142669322Y-95340422D01*
X142457977Y-95283793D01*
X142240002Y-95264723D01*
X142239998Y-95264723D01*
X142094682Y-95277436D01*
X142022023Y-95283793D01*
X142022020Y-95283793D01*
X141810677Y-95340422D01*
X141810668Y-95340426D01*
X141612361Y-95432898D01*
X141612357Y-95432900D01*
X141433121Y-95558402D01*
X141278402Y-95713121D01*
X141152900Y-95892357D01*
X141152898Y-95892361D01*
X141082382Y-96043583D01*
X141036209Y-96096022D01*
X140969016Y-96115174D01*
X140902135Y-96094958D01*
X140857618Y-96043583D01*
X140843118Y-96012488D01*
X140787102Y-95892362D01*
X140787100Y-95892359D01*
X140787099Y-95892357D01*
X140661599Y-95713124D01*
X140661596Y-95713121D01*
X140506877Y-95558402D01*
X140327639Y-95432898D01*
X140327640Y-95432898D01*
X140327638Y-95432897D01*
X140223092Y-95384147D01*
X140129330Y-95340425D01*
X140129326Y-95340424D01*
X140129322Y-95340422D01*
X139917977Y-95283793D01*
X139700002Y-95264723D01*
X139699998Y-95264723D01*
X139554681Y-95277436D01*
X139482023Y-95283793D01*
X139482020Y-95283793D01*
X139270677Y-95340422D01*
X139270668Y-95340426D01*
X139072361Y-95432898D01*
X139072357Y-95432900D01*
X138893121Y-95558402D01*
X138738402Y-95713121D01*
X138612900Y-95892357D01*
X138612898Y-95892361D01*
X138542382Y-96043583D01*
X138496209Y-96096022D01*
X138429016Y-96115174D01*
X138362135Y-96094958D01*
X138317618Y-96043583D01*
X138303118Y-96012488D01*
X138247102Y-95892362D01*
X138247100Y-95892359D01*
X138247099Y-95892357D01*
X138121599Y-95713124D01*
X138121596Y-95713121D01*
X137966877Y-95558402D01*
X137787639Y-95432898D01*
X137787640Y-95432898D01*
X137787638Y-95432897D01*
X137683092Y-95384147D01*
X137589330Y-95340425D01*
X137589326Y-95340424D01*
X137589322Y-95340422D01*
X137377977Y-95283793D01*
X137160002Y-95264723D01*
X137159998Y-95264723D01*
X137014681Y-95277436D01*
X136942023Y-95283793D01*
X136942020Y-95283793D01*
X136730677Y-95340422D01*
X136730668Y-95340426D01*
X136532361Y-95432898D01*
X136532357Y-95432900D01*
X136353121Y-95558402D01*
X136198402Y-95713121D01*
X136072900Y-95892357D01*
X136072898Y-95892361D01*
X136002382Y-96043583D01*
X135956209Y-96096022D01*
X135889016Y-96115174D01*
X135822135Y-96094958D01*
X135777618Y-96043583D01*
X135763118Y-96012488D01*
X135707102Y-95892362D01*
X135707100Y-95892359D01*
X135707099Y-95892357D01*
X135581599Y-95713124D01*
X135581596Y-95713121D01*
X135426877Y-95558402D01*
X135247639Y-95432898D01*
X135247640Y-95432898D01*
X135247638Y-95432897D01*
X135143092Y-95384147D01*
X135049330Y-95340425D01*
X135049326Y-95340424D01*
X135049322Y-95340422D01*
X134837977Y-95283793D01*
X134620002Y-95264723D01*
X134619998Y-95264723D01*
X134474681Y-95277436D01*
X134402023Y-95283793D01*
X134402020Y-95283793D01*
X134190677Y-95340422D01*
X134190668Y-95340426D01*
X133992361Y-95432898D01*
X133992357Y-95432900D01*
X133813121Y-95558402D01*
X133658402Y-95713121D01*
X133532900Y-95892357D01*
X133532898Y-95892361D01*
X133462382Y-96043583D01*
X133416209Y-96096022D01*
X133349016Y-96115174D01*
X133282135Y-96094958D01*
X133237618Y-96043583D01*
X133223118Y-96012488D01*
X133167102Y-95892362D01*
X133167100Y-95892359D01*
X133167099Y-95892357D01*
X133041599Y-95713124D01*
X133041596Y-95713121D01*
X132886877Y-95558402D01*
X132707639Y-95432898D01*
X132707640Y-95432898D01*
X132707638Y-95432897D01*
X132603092Y-95384147D01*
X132509330Y-95340425D01*
X132509326Y-95340424D01*
X132509322Y-95340422D01*
X132297977Y-95283793D01*
X132080002Y-95264723D01*
X132079998Y-95264723D01*
X131934682Y-95277436D01*
X131862023Y-95283793D01*
X131862020Y-95283793D01*
X131650677Y-95340422D01*
X131650668Y-95340426D01*
X131452361Y-95432898D01*
X131452357Y-95432900D01*
X131273121Y-95558402D01*
X131118402Y-95713121D01*
X130992900Y-95892357D01*
X130992898Y-95892361D01*
X130922382Y-96043583D01*
X130876209Y-96096022D01*
X130809016Y-96115174D01*
X130742135Y-96094958D01*
X130697618Y-96043583D01*
X130683118Y-96012488D01*
X130627102Y-95892362D01*
X130627100Y-95892359D01*
X130627099Y-95892357D01*
X130501599Y-95713124D01*
X130501596Y-95713121D01*
X130346877Y-95558402D01*
X130167639Y-95432898D01*
X130167640Y-95432898D01*
X130167638Y-95432897D01*
X130063092Y-95384147D01*
X129969330Y-95340425D01*
X129969326Y-95340424D01*
X129969322Y-95340422D01*
X129757977Y-95283793D01*
X129540002Y-95264723D01*
X129539998Y-95264723D01*
X129394682Y-95277436D01*
X129322023Y-95283793D01*
X129322020Y-95283793D01*
X129110677Y-95340422D01*
X129110668Y-95340426D01*
X128912361Y-95432898D01*
X128912357Y-95432900D01*
X128733121Y-95558402D01*
X128578402Y-95713121D01*
X128452900Y-95892357D01*
X128452898Y-95892361D01*
X128382382Y-96043583D01*
X128336209Y-96096022D01*
X128269016Y-96115174D01*
X128202135Y-96094958D01*
X128157618Y-96043583D01*
X128143118Y-96012488D01*
X128087102Y-95892362D01*
X128087100Y-95892359D01*
X128087099Y-95892357D01*
X127961599Y-95713124D01*
X127961596Y-95713121D01*
X127806877Y-95558402D01*
X127627639Y-95432898D01*
X127627640Y-95432898D01*
X127627638Y-95432897D01*
X127572094Y-95406997D01*
X127519655Y-95360824D01*
X127500499Y-95294617D01*
X127500499Y-95000674D01*
X127520184Y-94933636D01*
X127536813Y-94912999D01*
X128440994Y-94008819D01*
X128502318Y-93975334D01*
X128528676Y-93972500D01*
X131546983Y-93972500D01*
X131614022Y-93992185D01*
X131639133Y-94013528D01*
X131723764Y-94107521D01*
X131723767Y-94107523D01*
X131723770Y-94107526D01*
X131868407Y-94212612D01*
X132031733Y-94285329D01*
X132206609Y-94322500D01*
X132206610Y-94322500D01*
X132385390Y-94322500D01*
X132385391Y-94322500D01*
X132409449Y-94317386D01*
X132479115Y-94322701D01*
X132534849Y-94364838D01*
X132553161Y-94400358D01*
X132568747Y-94448328D01*
X132568750Y-94448335D01*
X132658141Y-94603165D01*
X132699812Y-94649446D01*
X132777764Y-94736021D01*
X132777767Y-94736023D01*
X132777770Y-94736026D01*
X132922407Y-94841112D01*
X133085733Y-94913829D01*
X133260609Y-94951000D01*
X133260610Y-94951000D01*
X133439389Y-94951000D01*
X133439391Y-94951000D01*
X133614267Y-94913829D01*
X133777593Y-94841112D01*
X133922230Y-94736026D01*
X134041859Y-94603165D01*
X134131250Y-94448335D01*
X134186497Y-94278303D01*
X134205185Y-94100500D01*
X134186520Y-93922924D01*
X134199089Y-93854199D01*
X134246821Y-93803175D01*
X134314561Y-93786057D01*
X134335620Y-93788676D01*
X134457109Y-93814500D01*
X134457110Y-93814500D01*
X134635889Y-93814500D01*
X134635891Y-93814500D01*
X134810767Y-93777329D01*
X134974093Y-93704612D01*
X135118730Y-93599526D01*
X135125941Y-93591518D01*
X135164938Y-93548207D01*
X135238359Y-93466665D01*
X135327750Y-93311835D01*
X135382997Y-93141803D01*
X135401685Y-92964000D01*
X135382997Y-92786197D01*
X135342259Y-92660818D01*
X135340264Y-92590977D01*
X135376344Y-92531144D01*
X135439045Y-92500316D01*
X135460190Y-92498500D01*
X137146500Y-92498500D01*
X137213539Y-92518185D01*
X137259294Y-92570989D01*
X137270500Y-92622500D01*
X137270500Y-92739341D01*
X137250815Y-92806380D01*
X137227580Y-92830994D01*
X137228599Y-92832126D01*
X137223769Y-92836474D01*
X137104140Y-92969336D01*
X137014750Y-93124164D01*
X137014747Y-93124170D01*
X136959504Y-93294192D01*
X136959503Y-93294194D01*
X136940815Y-93472000D01*
X136959503Y-93649805D01*
X136959504Y-93649807D01*
X137014747Y-93819829D01*
X137014750Y-93819835D01*
X137104141Y-93974665D01*
X137125300Y-93998164D01*
X137223764Y-94107521D01*
X137223767Y-94107523D01*
X137223770Y-94107526D01*
X137368407Y-94212612D01*
X137531733Y-94285329D01*
X137706609Y-94322500D01*
X137706610Y-94322500D01*
X137885389Y-94322500D01*
X137885391Y-94322500D01*
X138060267Y-94285329D01*
X138223593Y-94212612D01*
X138368230Y-94107526D01*
X138374557Y-94100500D01*
X138399756Y-94072513D01*
X138487859Y-93974665D01*
X138577250Y-93819835D01*
X138632497Y-93649803D01*
X138640506Y-93573599D01*
X139505215Y-93573599D01*
X139523903Y-93751405D01*
X139523904Y-93751407D01*
X139579147Y-93921429D01*
X139579150Y-93921435D01*
X139668541Y-94076265D01*
X139710212Y-94122546D01*
X139788164Y-94209121D01*
X139788167Y-94209123D01*
X139788170Y-94209126D01*
X139932807Y-94314212D01*
X140096133Y-94386929D01*
X140271009Y-94424100D01*
X140271010Y-94424100D01*
X140449789Y-94424100D01*
X140449791Y-94424100D01*
X140624667Y-94386929D01*
X140787993Y-94314212D01*
X140932630Y-94209126D01*
X140936183Y-94205181D01*
X140992957Y-94142126D01*
X141052259Y-94076265D01*
X141141650Y-93921435D01*
X141196897Y-93751403D01*
X141215585Y-93573600D01*
X141196897Y-93395797D01*
X141151186Y-93255114D01*
X141141652Y-93225770D01*
X141141649Y-93225764D01*
X141122500Y-93192597D01*
X141052259Y-93070935D01*
X140995939Y-93008385D01*
X140932635Y-92938078D01*
X140932632Y-92938076D01*
X140932631Y-92938075D01*
X140932630Y-92938074D01*
X140787993Y-92832988D01*
X140624667Y-92760271D01*
X140624665Y-92760270D01*
X140496994Y-92733133D01*
X140449791Y-92723100D01*
X140271009Y-92723100D01*
X140240354Y-92729615D01*
X140096133Y-92760270D01*
X140096128Y-92760272D01*
X139932808Y-92832987D01*
X139788168Y-92938075D01*
X139668540Y-93070936D01*
X139579150Y-93225764D01*
X139579147Y-93225770D01*
X139523904Y-93395792D01*
X139523903Y-93395794D01*
X139505215Y-93573599D01*
X138640506Y-93573599D01*
X138651185Y-93472000D01*
X138632497Y-93294197D01*
X138590703Y-93165568D01*
X138577252Y-93124170D01*
X138577250Y-93124167D01*
X138577250Y-93124165D01*
X138487859Y-92969335D01*
X138368230Y-92836474D01*
X138363401Y-92832126D01*
X138365226Y-92830098D01*
X138329924Y-92784266D01*
X138321500Y-92739341D01*
X138321500Y-92710002D01*
X146064723Y-92710002D01*
X146071897Y-92792001D01*
X146077843Y-92859972D01*
X146083793Y-92927975D01*
X146083793Y-92927979D01*
X146140422Y-93139322D01*
X146140424Y-93139326D01*
X146140425Y-93139330D01*
X146173519Y-93210300D01*
X146232897Y-93337638D01*
X146257998Y-93373486D01*
X146358402Y-93516877D01*
X146513123Y-93671598D01*
X146692361Y-93797102D01*
X146890670Y-93889575D01*
X147102023Y-93946207D01*
X147284926Y-93962208D01*
X147319998Y-93965277D01*
X147320000Y-93965277D01*
X147320002Y-93965277D01*
X147348254Y-93962805D01*
X147537977Y-93946207D01*
X147749330Y-93889575D01*
X147947639Y-93797102D01*
X148126877Y-93671598D01*
X148281598Y-93516877D01*
X148383928Y-93370734D01*
X148438502Y-93327112D01*
X148508000Y-93319918D01*
X148570355Y-93351441D01*
X148605769Y-93411670D01*
X148609500Y-93441859D01*
X148609500Y-93591517D01*
X148618732Y-93649803D01*
X148624354Y-93685304D01*
X148681950Y-93798342D01*
X148681952Y-93798344D01*
X148681954Y-93798347D01*
X148771652Y-93888045D01*
X148771654Y-93888046D01*
X148771658Y-93888050D01*
X148884694Y-93945645D01*
X148884698Y-93945647D01*
X148978475Y-93960499D01*
X148978481Y-93960500D01*
X150741518Y-93960499D01*
X150835304Y-93945646D01*
X150948342Y-93888050D01*
X151038050Y-93798342D01*
X151095646Y-93685304D01*
X151095646Y-93685302D01*
X151095647Y-93685301D01*
X151109232Y-93599523D01*
X151110500Y-93591519D01*
X151110499Y-91828482D01*
X151095646Y-91734696D01*
X151038050Y-91621658D01*
X151038046Y-91621654D01*
X151038045Y-91621652D01*
X150948347Y-91531954D01*
X150948344Y-91531952D01*
X150948342Y-91531950D01*
X150871517Y-91492805D01*
X150835301Y-91474352D01*
X150741524Y-91459500D01*
X150591862Y-91459500D01*
X150524823Y-91439815D01*
X150479068Y-91387011D01*
X150469124Y-91317853D01*
X150498149Y-91254297D01*
X150520734Y-91233928D01*
X150666877Y-91131598D01*
X150821598Y-90976877D01*
X150947102Y-90797639D01*
X151039575Y-90599330D01*
X151096207Y-90387977D01*
X151115277Y-90170000D01*
X151113591Y-90150733D01*
X151111511Y-90126949D01*
X151096207Y-89952023D01*
X151039575Y-89740670D01*
X150947102Y-89542362D01*
X150947100Y-89542359D01*
X150947099Y-89542357D01*
X150821599Y-89363124D01*
X150751775Y-89293300D01*
X150666877Y-89208402D01*
X150487639Y-89082898D01*
X150336414Y-89012381D01*
X150283977Y-88966210D01*
X150264825Y-88899016D01*
X150285041Y-88832135D01*
X150336414Y-88787618D01*
X150487639Y-88717102D01*
X150666877Y-88591598D01*
X150821598Y-88436877D01*
X150947102Y-88257639D01*
X151039575Y-88059330D01*
X151096207Y-87847977D01*
X151115277Y-87630000D01*
X151096207Y-87412023D01*
X151040724Y-87204958D01*
X151039577Y-87200677D01*
X151039576Y-87200676D01*
X151039575Y-87200670D01*
X150947102Y-87002362D01*
X150947100Y-87002359D01*
X150947099Y-87002357D01*
X150821599Y-86823124D01*
X150760862Y-86762387D01*
X150666877Y-86668402D01*
X150487639Y-86542898D01*
X150336414Y-86472381D01*
X150283977Y-86426210D01*
X150264825Y-86359016D01*
X150285041Y-86292135D01*
X150336414Y-86247618D01*
X150487639Y-86177102D01*
X150666877Y-86051598D01*
X150821598Y-85896877D01*
X150947102Y-85717639D01*
X151039575Y-85519330D01*
X151096207Y-85307977D01*
X151115277Y-85090000D01*
X151096207Y-84872023D01*
X151044289Y-84678263D01*
X151039577Y-84660677D01*
X151039576Y-84660676D01*
X151039575Y-84660670D01*
X150947102Y-84462362D01*
X150947100Y-84462359D01*
X150947099Y-84462357D01*
X150821599Y-84283124D01*
X150751234Y-84212759D01*
X150666877Y-84128402D01*
X150487639Y-84002898D01*
X150336414Y-83932381D01*
X150283977Y-83886210D01*
X150264825Y-83819016D01*
X150285041Y-83752135D01*
X150336414Y-83707618D01*
X150487639Y-83637102D01*
X150666877Y-83511598D01*
X150821598Y-83356877D01*
X150947102Y-83177639D01*
X151039575Y-82979330D01*
X151096207Y-82767977D01*
X151115231Y-82550523D01*
X151115277Y-82550002D01*
X151115277Y-82549997D01*
X151111313Y-82504689D01*
X151096207Y-82332023D01*
X151039575Y-82120670D01*
X150947102Y-81922362D01*
X150947100Y-81922359D01*
X150947099Y-81922357D01*
X150821599Y-81743124D01*
X150745649Y-81667174D01*
X150666877Y-81588402D01*
X150487639Y-81462898D01*
X150487640Y-81462898D01*
X150487638Y-81462897D01*
X150339091Y-81393629D01*
X150289330Y-81370425D01*
X150289326Y-81370424D01*
X150289322Y-81370422D01*
X150077977Y-81313793D01*
X149860002Y-81294723D01*
X149859998Y-81294723D01*
X149714681Y-81307436D01*
X149642023Y-81313793D01*
X149642020Y-81313793D01*
X149430677Y-81370422D01*
X149430668Y-81370426D01*
X149232361Y-81462898D01*
X149232357Y-81462900D01*
X149053121Y-81588402D01*
X148898402Y-81743121D01*
X148772900Y-81922357D01*
X148772898Y-81922361D01*
X148702382Y-82073583D01*
X148656209Y-82126022D01*
X148589016Y-82145174D01*
X148522135Y-82124958D01*
X148477618Y-82073583D01*
X148454391Y-82023773D01*
X148407102Y-81922362D01*
X148407100Y-81922359D01*
X148407099Y-81922357D01*
X148281599Y-81743124D01*
X148205649Y-81667174D01*
X148126877Y-81588402D01*
X147947639Y-81462898D01*
X147947640Y-81462898D01*
X147947638Y-81462897D01*
X147799091Y-81393629D01*
X147749330Y-81370425D01*
X147749326Y-81370424D01*
X147749322Y-81370422D01*
X147537977Y-81313793D01*
X147320002Y-81294723D01*
X147319998Y-81294723D01*
X147174681Y-81307436D01*
X147102023Y-81313793D01*
X147102020Y-81313793D01*
X146890677Y-81370422D01*
X146890668Y-81370426D01*
X146692361Y-81462898D01*
X146692357Y-81462900D01*
X146513121Y-81588402D01*
X146358402Y-81743121D01*
X146232900Y-81922357D01*
X146232898Y-81922361D01*
X146140426Y-82120668D01*
X146140422Y-82120677D01*
X146083793Y-82332020D01*
X146083793Y-82332024D01*
X146064723Y-82549997D01*
X146064723Y-82550002D01*
X146083793Y-82767975D01*
X146083793Y-82767979D01*
X146140422Y-82979322D01*
X146140424Y-82979326D01*
X146140425Y-82979330D01*
X146162382Y-83026416D01*
X146232897Y-83177638D01*
X146250154Y-83202283D01*
X146358402Y-83356877D01*
X146513123Y-83511598D01*
X146635514Y-83597297D01*
X146692361Y-83637102D01*
X146843583Y-83707618D01*
X146896022Y-83753790D01*
X146915174Y-83820984D01*
X146894958Y-83887865D01*
X146843583Y-83932382D01*
X146692361Y-84002898D01*
X146692357Y-84002900D01*
X146513121Y-84128402D01*
X146358402Y-84283121D01*
X146232900Y-84462357D01*
X146232898Y-84462361D01*
X146140426Y-84660668D01*
X146140422Y-84660677D01*
X146083793Y-84872020D01*
X146083793Y-84872024D01*
X146064723Y-85089997D01*
X146064723Y-85090002D01*
X146071389Y-85166192D01*
X146081170Y-85278000D01*
X146083793Y-85307975D01*
X146083793Y-85307979D01*
X146140422Y-85519322D01*
X146140424Y-85519326D01*
X146140425Y-85519330D01*
X146162382Y-85566416D01*
X146232897Y-85717638D01*
X146232898Y-85717639D01*
X146358402Y-85896877D01*
X146513123Y-86051598D01*
X146682391Y-86170121D01*
X146692361Y-86177102D01*
X146843583Y-86247618D01*
X146896022Y-86293790D01*
X146915174Y-86360984D01*
X146894958Y-86427865D01*
X146843583Y-86472382D01*
X146692361Y-86542898D01*
X146692357Y-86542900D01*
X146513121Y-86668402D01*
X146358402Y-86823121D01*
X146232900Y-87002357D01*
X146232898Y-87002361D01*
X146140426Y-87200668D01*
X146140422Y-87200677D01*
X146083793Y-87412020D01*
X146083793Y-87412024D01*
X146064723Y-87629997D01*
X146064723Y-87630002D01*
X146071254Y-87704653D01*
X146080232Y-87807278D01*
X146083793Y-87847975D01*
X146083793Y-87847979D01*
X146140422Y-88059322D01*
X146140424Y-88059326D01*
X146140425Y-88059330D01*
X146162382Y-88106416D01*
X146232897Y-88257638D01*
X146238048Y-88264994D01*
X146358402Y-88436877D01*
X146513123Y-88591598D01*
X146692360Y-88717101D01*
X146692361Y-88717102D01*
X146843583Y-88787618D01*
X146896022Y-88833790D01*
X146915174Y-88900984D01*
X146894958Y-88967865D01*
X146843583Y-89012382D01*
X146692361Y-89082898D01*
X146692357Y-89082900D01*
X146513121Y-89208402D01*
X146358402Y-89363121D01*
X146232900Y-89542357D01*
X146232898Y-89542361D01*
X146140426Y-89740668D01*
X146140422Y-89740677D01*
X146083793Y-89952020D01*
X146083793Y-89952024D01*
X146064723Y-90169997D01*
X146064723Y-90170002D01*
X146083793Y-90387975D01*
X146083793Y-90387979D01*
X146140422Y-90599322D01*
X146140424Y-90599326D01*
X146140425Y-90599330D01*
X146162382Y-90646416D01*
X146232897Y-90797638D01*
X146232898Y-90797639D01*
X146358402Y-90976877D01*
X146513123Y-91131598D01*
X146688355Y-91254297D01*
X146692361Y-91257102D01*
X146843583Y-91327618D01*
X146896022Y-91373790D01*
X146915174Y-91440984D01*
X146894958Y-91507865D01*
X146843583Y-91552382D01*
X146692361Y-91622898D01*
X146692357Y-91622900D01*
X146513121Y-91748402D01*
X146358402Y-91903121D01*
X146232900Y-92082357D01*
X146232898Y-92082361D01*
X146140426Y-92280668D01*
X146140422Y-92280677D01*
X146083793Y-92492020D01*
X146083793Y-92492023D01*
X146082246Y-92509706D01*
X146064723Y-92709997D01*
X146064723Y-92710002D01*
X138321500Y-92710002D01*
X138321500Y-92609254D01*
X138341185Y-92542215D01*
X138393989Y-92496460D01*
X138428612Y-92486410D01*
X138452920Y-92483070D01*
X138469383Y-92475918D01*
X138489416Y-92469181D01*
X138506852Y-92464933D01*
X138545465Y-92443221D01*
X138551090Y-92440427D01*
X138591720Y-92422780D01*
X138605632Y-92411460D01*
X138623123Y-92399557D01*
X138638759Y-92390766D01*
X138670059Y-92359464D01*
X138674771Y-92355211D01*
X138709108Y-92327278D01*
X138719456Y-92312616D01*
X138733074Y-92296449D01*
X139701618Y-91327906D01*
X139750044Y-91282680D01*
X139773049Y-91244847D01*
X139776606Y-91239622D01*
X139803361Y-91204342D01*
X139809943Y-91187648D01*
X139819344Y-91168719D01*
X139828672Y-91153382D01*
X139840619Y-91110739D01*
X139842632Y-91104753D01*
X139858876Y-91063564D01*
X139858966Y-91062694D01*
X139860711Y-91045716D01*
X139864658Y-91024944D01*
X139869500Y-91007665D01*
X139869500Y-90963404D01*
X139869825Y-90957060D01*
X139872455Y-90931476D01*
X139874352Y-90913028D01*
X139871303Y-90895343D01*
X139869500Y-90874275D01*
X139869500Y-87349500D01*
X139889185Y-87282461D01*
X139941989Y-87236706D01*
X139993500Y-87225500D01*
X140497493Y-87225500D01*
X140564532Y-87245185D01*
X140589643Y-87266528D01*
X140651764Y-87335521D01*
X140651767Y-87335523D01*
X140651770Y-87335526D01*
X140796407Y-87440612D01*
X140959733Y-87513329D01*
X141134609Y-87550500D01*
X141134610Y-87550500D01*
X141313389Y-87550500D01*
X141313391Y-87550500D01*
X141488267Y-87513329D01*
X141651593Y-87440612D01*
X141796230Y-87335526D01*
X141805531Y-87325197D01*
X141858356Y-87266528D01*
X141915859Y-87202665D01*
X142005250Y-87047835D01*
X142060497Y-86877803D01*
X142079185Y-86700000D01*
X142060497Y-86522197D01*
X142012580Y-86374723D01*
X142005252Y-86352170D01*
X142005249Y-86352164D01*
X141971547Y-86293790D01*
X141915859Y-86197335D01*
X141869003Y-86145296D01*
X141796235Y-86064478D01*
X141796232Y-86064476D01*
X141796231Y-86064475D01*
X141796230Y-86064474D01*
X141651593Y-85959388D01*
X141488267Y-85886671D01*
X141488265Y-85886670D01*
X141360594Y-85859533D01*
X141313391Y-85849500D01*
X141134609Y-85849500D01*
X141103954Y-85856015D01*
X140959733Y-85886670D01*
X140959728Y-85886672D01*
X140796408Y-85959387D01*
X140651767Y-86064476D01*
X140651764Y-86064478D01*
X140589643Y-86133472D01*
X140530156Y-86170121D01*
X140497493Y-86174500D01*
X139993500Y-86174500D01*
X139926461Y-86154815D01*
X139880706Y-86102011D01*
X139869500Y-86050500D01*
X139869500Y-83718386D01*
X139889185Y-83651347D01*
X139905813Y-83630710D01*
X140006747Y-83529776D01*
X140068066Y-83496294D01*
X140137758Y-83501278D01*
X140193692Y-83543149D01*
X140201812Y-83555460D01*
X140256360Y-83649940D01*
X140278141Y-83687665D01*
X140315770Y-83729456D01*
X140397764Y-83820521D01*
X140397767Y-83820523D01*
X140397770Y-83820526D01*
X140542407Y-83925612D01*
X140705733Y-83998329D01*
X140880609Y-84035500D01*
X140880610Y-84035500D01*
X141059389Y-84035500D01*
X141059391Y-84035500D01*
X141234267Y-83998329D01*
X141397593Y-83925612D01*
X141542230Y-83820526D01*
X141555961Y-83805277D01*
X141666207Y-83682836D01*
X141667217Y-83683745D01*
X141716832Y-83645480D01*
X141786445Y-83639495D01*
X141848243Y-83672096D01*
X141882605Y-83732931D01*
X141885151Y-83773988D01*
X141880315Y-83820000D01*
X141882413Y-83839958D01*
X141899003Y-83997805D01*
X141899004Y-83997807D01*
X141954247Y-84167829D01*
X141954250Y-84167835D01*
X142043641Y-84322665D01*
X142085312Y-84368946D01*
X142163264Y-84455521D01*
X142163267Y-84455523D01*
X142163270Y-84455526D01*
X142307907Y-84560612D01*
X142471233Y-84633329D01*
X142646109Y-84670500D01*
X142646110Y-84670500D01*
X142824889Y-84670500D01*
X142824891Y-84670500D01*
X142999767Y-84633329D01*
X143163093Y-84560612D01*
X143307730Y-84455526D01*
X143309978Y-84453030D01*
X143367984Y-84388607D01*
X143427359Y-84322665D01*
X143516750Y-84167835D01*
X143571997Y-83997803D01*
X143590685Y-83820000D01*
X143571997Y-83642197D01*
X143542864Y-83552535D01*
X143540869Y-83482694D01*
X143576949Y-83422861D01*
X143635008Y-83392929D01*
X143774267Y-83363329D01*
X143937593Y-83290612D01*
X144082230Y-83185526D01*
X144084188Y-83183352D01*
X144130976Y-83131388D01*
X144201859Y-83052665D01*
X144291250Y-82897835D01*
X144346497Y-82727803D01*
X144365185Y-82550000D01*
X144346497Y-82372197D01*
X144307722Y-82252859D01*
X144291252Y-82202170D01*
X144291249Y-82202164D01*
X144201859Y-82047335D01*
X144141754Y-81980582D01*
X144082235Y-81914478D01*
X144082232Y-81914476D01*
X144082231Y-81914475D01*
X144082230Y-81914474D01*
X143937593Y-81809388D01*
X143774267Y-81736671D01*
X143774265Y-81736670D01*
X143626193Y-81705197D01*
X143599391Y-81699500D01*
X143420609Y-81699500D01*
X143393807Y-81705197D01*
X143245733Y-81736670D01*
X143245728Y-81736672D01*
X143082408Y-81809388D01*
X143082403Y-81809390D01*
X142947885Y-81907124D01*
X142882079Y-81930604D01*
X142814025Y-81914778D01*
X142802114Y-81907124D01*
X142673111Y-81813397D01*
X142667593Y-81809388D01*
X142504267Y-81736671D01*
X142504265Y-81736670D01*
X142504264Y-81736670D01*
X142356197Y-81705197D01*
X142294715Y-81672004D01*
X142260939Y-81610841D01*
X142265591Y-81541127D01*
X142294295Y-81496228D01*
X143882124Y-79908400D01*
X149716015Y-79908400D01*
X149734703Y-80086205D01*
X149734704Y-80086207D01*
X149789947Y-80256229D01*
X149789950Y-80256235D01*
X149879341Y-80411065D01*
X149919776Y-80455972D01*
X149998964Y-80543921D01*
X149998967Y-80543923D01*
X149998970Y-80543926D01*
X150143607Y-80649012D01*
X150306933Y-80721729D01*
X150481809Y-80758900D01*
X150481810Y-80758900D01*
X150660589Y-80758900D01*
X150660591Y-80758900D01*
X150835467Y-80721729D01*
X150998793Y-80649012D01*
X151143430Y-80543926D01*
X151143907Y-80543397D01*
X151169348Y-80515141D01*
X151263059Y-80411065D01*
X151352450Y-80256235D01*
X151407697Y-80086203D01*
X151426385Y-79908400D01*
X151407697Y-79730597D01*
X151366431Y-79603594D01*
X151352452Y-79560570D01*
X151352449Y-79560564D01*
X151306288Y-79480610D01*
X151263059Y-79405735D01*
X151216203Y-79353696D01*
X151143435Y-79272878D01*
X151143432Y-79272876D01*
X151143431Y-79272875D01*
X151143430Y-79272874D01*
X150998793Y-79167788D01*
X150835467Y-79095071D01*
X150835465Y-79095070D01*
X150707794Y-79067933D01*
X150660591Y-79057900D01*
X150481809Y-79057900D01*
X150451154Y-79064415D01*
X150306933Y-79095070D01*
X150306928Y-79095072D01*
X150143608Y-79167787D01*
X149998968Y-79272875D01*
X149879340Y-79405736D01*
X149789950Y-79560564D01*
X149789947Y-79560570D01*
X149734704Y-79730592D01*
X149734703Y-79730594D01*
X149716015Y-79908400D01*
X143882124Y-79908400D01*
X144163705Y-79626819D01*
X144225028Y-79593334D01*
X144251386Y-79590500D01*
X144361389Y-79590500D01*
X144361391Y-79590500D01*
X144536267Y-79553329D01*
X144699593Y-79480612D01*
X144844230Y-79375526D01*
X144963859Y-79242665D01*
X145053250Y-79087835D01*
X145108497Y-78917803D01*
X145127185Y-78740000D01*
X145108497Y-78562197D01*
X145080873Y-78477181D01*
X145053252Y-78392170D01*
X145053249Y-78392164D01*
X144963859Y-78237335D01*
X144917003Y-78185296D01*
X144844235Y-78104478D01*
X144844232Y-78104476D01*
X144844231Y-78104475D01*
X144844230Y-78104474D01*
X144699593Y-77999388D01*
X144536267Y-77926671D01*
X144536265Y-77926670D01*
X144408594Y-77899533D01*
X144361391Y-77889500D01*
X144182609Y-77889500D01*
X144151954Y-77896015D01*
X144007733Y-77926670D01*
X144007728Y-77926672D01*
X143844408Y-77999387D01*
X143699768Y-78104475D01*
X143580140Y-78237336D01*
X143490750Y-78392164D01*
X143490747Y-78392170D01*
X143435504Y-78562192D01*
X143435503Y-78562194D01*
X143416815Y-78740002D01*
X143416815Y-78740007D01*
X143417923Y-78750555D01*
X143405351Y-78819284D01*
X143382283Y-78851191D01*
X141806003Y-80427471D01*
X141744680Y-80460956D01*
X141674988Y-80455972D01*
X141619055Y-80414100D01*
X141600390Y-80378104D01*
X141598852Y-80373371D01*
X141598851Y-80373370D01*
X141598850Y-80373365D01*
X141509459Y-80218535D01*
X141429053Y-80129235D01*
X141389835Y-80085678D01*
X141389832Y-80085676D01*
X141389831Y-80085675D01*
X141389830Y-80085674D01*
X141245193Y-79980588D01*
X141081867Y-79907871D01*
X141081865Y-79907870D01*
X140954194Y-79880733D01*
X140906991Y-79870700D01*
X140728209Y-79870700D01*
X140697554Y-79877215D01*
X140553333Y-79907870D01*
X140553328Y-79907872D01*
X140390008Y-79980587D01*
X140245368Y-80085675D01*
X140125740Y-80218536D01*
X140036350Y-80373364D01*
X140036347Y-80373370D01*
X139981104Y-80543392D01*
X139981103Y-80543394D01*
X139970002Y-80649012D01*
X139962415Y-80721200D01*
X139967699Y-80771478D01*
X139969945Y-80792842D01*
X139957375Y-80861571D01*
X139909643Y-80912595D01*
X139841903Y-80929713D01*
X139775662Y-80907491D01*
X139765135Y-80899132D01*
X139764231Y-80898475D01*
X139764230Y-80898474D01*
X139619593Y-80793388D01*
X139456267Y-80720671D01*
X139456265Y-80720670D01*
X139328594Y-80693533D01*
X139281391Y-80683500D01*
X139102609Y-80683500D01*
X139071954Y-80690015D01*
X138927733Y-80720670D01*
X138927728Y-80720672D01*
X138764408Y-80793387D01*
X138619768Y-80898475D01*
X138500140Y-81031336D01*
X138410750Y-81186164D01*
X138410747Y-81186170D01*
X138355504Y-81356192D01*
X138355503Y-81356194D01*
X138336815Y-81534000D01*
X138355503Y-81711805D01*
X138355504Y-81711807D01*
X138410747Y-81881829D01*
X138410750Y-81881835D01*
X138500141Y-82036665D01*
X138533382Y-82073583D01*
X138619764Y-82169521D01*
X138619767Y-82169523D01*
X138619770Y-82169526D01*
X138764407Y-82274612D01*
X138927733Y-82347329D01*
X139102609Y-82384500D01*
X139102610Y-82384500D01*
X139281383Y-82384500D01*
X139281391Y-82384500D01*
X139281398Y-82384498D01*
X139283540Y-82384273D01*
X139284782Y-82384500D01*
X139287890Y-82384500D01*
X139287890Y-82385067D01*
X139352272Y-82396833D01*
X139403302Y-82444558D01*
X139420429Y-82512296D01*
X139398215Y-82578541D01*
X139384199Y-82595273D01*
X138936382Y-83043092D01*
X138887957Y-83088317D01*
X138864956Y-83126139D01*
X138861384Y-83131388D01*
X138834639Y-83166658D01*
X138834636Y-83166663D01*
X138828055Y-83183352D01*
X138818653Y-83202283D01*
X138809327Y-83217619D01*
X138797385Y-83260237D01*
X138795362Y-83266255D01*
X138779122Y-83307440D01*
X138777288Y-83325284D01*
X138773342Y-83346048D01*
X138768501Y-83363328D01*
X138768500Y-83363337D01*
X138768500Y-83407594D01*
X138768175Y-83413939D01*
X138763648Y-83457970D01*
X138763648Y-83457975D01*
X138766697Y-83475656D01*
X138768500Y-83496724D01*
X138768500Y-83678500D01*
X138748815Y-83745539D01*
X138696011Y-83791294D01*
X138644500Y-83802500D01*
X135898675Y-83802500D01*
X135831636Y-83782815D01*
X135785881Y-83730011D01*
X135775937Y-83660853D01*
X135804962Y-83597297D01*
X135810994Y-83590819D01*
X136599994Y-82801819D01*
X136661317Y-82768334D01*
X136687675Y-82765500D01*
X136868389Y-82765500D01*
X136868391Y-82765500D01*
X137043267Y-82728329D01*
X137206593Y-82655612D01*
X137351230Y-82550526D01*
X137351707Y-82549997D01*
X137383261Y-82514952D01*
X137470859Y-82417665D01*
X137560250Y-82262835D01*
X137615497Y-82092803D01*
X137634185Y-81915000D01*
X137615497Y-81737197D01*
X137567151Y-81588403D01*
X137560252Y-81567170D01*
X137560249Y-81567164D01*
X137470859Y-81412335D01*
X137420309Y-81356194D01*
X137351235Y-81279478D01*
X137351232Y-81279476D01*
X137351231Y-81279475D01*
X137351230Y-81279474D01*
X137206593Y-81174388D01*
X137043267Y-81101671D01*
X137043265Y-81101670D01*
X136906997Y-81072706D01*
X136868391Y-81064500D01*
X136689609Y-81064500D01*
X136651002Y-81072706D01*
X136581335Y-81067388D01*
X136525602Y-81025250D01*
X136517836Y-81013415D01*
X136515001Y-81008505D01*
X136454859Y-80904335D01*
X136408003Y-80852296D01*
X136335235Y-80771478D01*
X136335232Y-80771476D01*
X136335231Y-80771475D01*
X136335230Y-80771474D01*
X136190593Y-80666388D01*
X136027267Y-80593671D01*
X136027265Y-80593670D01*
X135899594Y-80566533D01*
X135852391Y-80556500D01*
X135673609Y-80556500D01*
X135642954Y-80563015D01*
X135498733Y-80593670D01*
X135498728Y-80593672D01*
X135335408Y-80666387D01*
X135190768Y-80771475D01*
X135071139Y-80904336D01*
X135068623Y-80908696D01*
X135018058Y-80956914D01*
X134961234Y-80970700D01*
X128704738Y-80970700D01*
X128678381Y-80967866D01*
X128673676Y-80966842D01*
X128673668Y-80966842D01*
X128628957Y-80970040D01*
X128621937Y-80970542D01*
X128617515Y-80970700D01*
X128601799Y-80970700D01*
X128586246Y-80972936D01*
X128581850Y-80973408D01*
X128530117Y-80977109D01*
X128530114Y-80977110D01*
X128525596Y-80978795D01*
X128499920Y-80985348D01*
X128495141Y-80986035D01*
X128447955Y-81007584D01*
X128443867Y-81009277D01*
X128395268Y-81027405D01*
X128395267Y-81027406D01*
X128391402Y-81030299D01*
X128368620Y-81043816D01*
X128364231Y-81045820D01*
X128364230Y-81045821D01*
X128364228Y-81045822D01*
X128364227Y-81045823D01*
X128349794Y-81058328D01*
X128325017Y-81079797D01*
X128321573Y-81082572D01*
X128309006Y-81091980D01*
X128309002Y-81091983D01*
X128309003Y-81091983D01*
X128297890Y-81103093D01*
X128294656Y-81106104D01*
X128255462Y-81140066D01*
X128255454Y-81140076D01*
X128252843Y-81144138D01*
X128236216Y-81164768D01*
X118057568Y-91343416D01*
X118036938Y-91360043D01*
X118032876Y-91362654D01*
X118032867Y-91362661D01*
X117998905Y-91401855D01*
X117995892Y-91405091D01*
X117984781Y-91416202D01*
X117975354Y-91428796D01*
X117972587Y-91432228D01*
X117966014Y-91439815D01*
X117938623Y-91471426D01*
X117938617Y-91471436D01*
X117936615Y-91475820D01*
X117923100Y-91498599D01*
X117920206Y-91502464D01*
X117920200Y-91502475D01*
X117902078Y-91551064D01*
X117900385Y-91555153D01*
X117878835Y-91602343D01*
X117878833Y-91602350D01*
X117878146Y-91607127D01*
X117871598Y-91632786D01*
X117869910Y-91637313D01*
X117869909Y-91637317D01*
X117866207Y-91689060D01*
X117865734Y-91693456D01*
X117863500Y-91708999D01*
X117863500Y-91724704D01*
X117863342Y-91729129D01*
X117859640Y-91780870D01*
X117859641Y-91780873D01*
X117860666Y-91785588D01*
X117863499Y-91811939D01*
X117863499Y-91835262D01*
X117863500Y-91835267D01*
X117863500Y-92721177D01*
X117843815Y-92788216D01*
X117812388Y-92821493D01*
X117791771Y-92836472D01*
X117791769Y-92836474D01*
X117672140Y-92969336D01*
X117582750Y-93124164D01*
X117582747Y-93124170D01*
X117527504Y-93294192D01*
X117527503Y-93294194D01*
X117508815Y-93472000D01*
X117527503Y-93649805D01*
X117527504Y-93649807D01*
X117582747Y-93819829D01*
X117582750Y-93819835D01*
X117672141Y-93974665D01*
X117693300Y-93998164D01*
X117726042Y-94034528D01*
X117756272Y-94097519D01*
X117747647Y-94166855D01*
X117702905Y-94220520D01*
X117636253Y-94241478D01*
X117633892Y-94241500D01*
X113605143Y-94241500D01*
X113578785Y-94238666D01*
X113574074Y-94237641D01*
X113574070Y-94237641D01*
X113535552Y-94240396D01*
X113522328Y-94241342D01*
X113517906Y-94241500D01*
X113502199Y-94241500D01*
X113486656Y-94243734D01*
X113482260Y-94244207D01*
X113430517Y-94247909D01*
X113430513Y-94247910D01*
X113425986Y-94249598D01*
X113400327Y-94256146D01*
X113395550Y-94256833D01*
X113395543Y-94256835D01*
X113348353Y-94278385D01*
X113344264Y-94280078D01*
X113295675Y-94298200D01*
X113295664Y-94298206D01*
X113291799Y-94301100D01*
X113269020Y-94314615D01*
X113264636Y-94316617D01*
X113264626Y-94316623D01*
X113257844Y-94322500D01*
X113225428Y-94350587D01*
X113221996Y-94353354D01*
X113209402Y-94362781D01*
X113198291Y-94373892D01*
X113195055Y-94376905D01*
X113155861Y-94410867D01*
X113155854Y-94410876D01*
X113153243Y-94414938D01*
X113136616Y-94435568D01*
X112273416Y-95298768D01*
X112212093Y-95332253D01*
X112153642Y-95330862D01*
X111977977Y-95283793D01*
X111760002Y-95264723D01*
X111759998Y-95264723D01*
X111614681Y-95277436D01*
X111542023Y-95283793D01*
X111542020Y-95283793D01*
X111330677Y-95340422D01*
X111330668Y-95340426D01*
X111132361Y-95432898D01*
X111132357Y-95432900D01*
X110953121Y-95558402D01*
X110798402Y-95713121D01*
X110672900Y-95892357D01*
X110672898Y-95892361D01*
X110580426Y-96090668D01*
X110580422Y-96090677D01*
X110523793Y-96302020D01*
X110523793Y-96302024D01*
X110504723Y-96519997D01*
X110504723Y-96520002D01*
X107315000Y-96520002D01*
X107315000Y-92859040D01*
X107334685Y-92792001D01*
X107387489Y-92746246D01*
X107456647Y-92736302D01*
X107509836Y-92757265D01*
X107610451Y-92827295D01*
X107797442Y-92907540D01*
X107996759Y-92948500D01*
X109349243Y-92948500D01*
X109500939Y-92933074D01*
X109695079Y-92872162D01*
X109695080Y-92872161D01*
X109695088Y-92872159D01*
X109873002Y-92773409D01*
X110027395Y-92640866D01*
X110151948Y-92479958D01*
X110241560Y-92297271D01*
X110292563Y-92100285D01*
X110297757Y-91997868D01*
X110961213Y-91997868D01*
X110991377Y-92194772D01*
X110991380Y-92194784D01*
X111060564Y-92381586D01*
X111060566Y-92381591D01*
X111165941Y-92550650D01*
X111165942Y-92550651D01*
X111165944Y-92550654D01*
X111303187Y-92695033D01*
X111303191Y-92695036D01*
X111466695Y-92808839D01*
X111649762Y-92887399D01*
X111844895Y-92927500D01*
X113152171Y-92927500D01*
X113300690Y-92912397D01*
X113490754Y-92852764D01*
X113490754Y-92852763D01*
X113490763Y-92852761D01*
X113664943Y-92756083D01*
X113816095Y-92626323D01*
X113938034Y-92468792D01*
X114025765Y-92289940D01*
X114075697Y-92097088D01*
X114085787Y-91898133D01*
X114055621Y-91701220D01*
X113986434Y-91514409D01*
X113881059Y-91345350D01*
X113881056Y-91345347D01*
X113881055Y-91345345D01*
X113743812Y-91200966D01*
X113743808Y-91200963D01*
X113580305Y-91087161D01*
X113397238Y-91008601D01*
X113202105Y-90968500D01*
X112400243Y-90968500D01*
X112333204Y-90948815D01*
X112287449Y-90896011D01*
X112277505Y-90826853D01*
X112283403Y-90802975D01*
X112307962Y-90733872D01*
X112307962Y-90733870D01*
X112307963Y-90733868D01*
X112317634Y-90592490D01*
X112288803Y-90453746D01*
X112223608Y-90327926D01*
X112223604Y-90327921D01*
X112126884Y-90224360D01*
X112005809Y-90150733D01*
X112005808Y-90150732D01*
X112005807Y-90150732D01*
X111869354Y-90112500D01*
X111763236Y-90112500D01*
X111763235Y-90112500D01*
X111658111Y-90126949D01*
X111528137Y-90183404D01*
X111418211Y-90272836D01*
X111418207Y-90272841D01*
X111336492Y-90388604D01*
X111336491Y-90388605D01*
X111289037Y-90522127D01*
X111289037Y-90522130D01*
X111284050Y-90595041D01*
X111279366Y-90663510D01*
X111290377Y-90716500D01*
X111308196Y-90802252D01*
X111308196Y-90802253D01*
X111308197Y-90802254D01*
X111373392Y-90928074D01*
X111373395Y-90928077D01*
X111373395Y-90928078D01*
X111398994Y-90955487D01*
X111430366Y-91017917D01*
X111423006Y-91087398D01*
X111385423Y-91134184D01*
X111386828Y-91135821D01*
X111230906Y-91269675D01*
X111230904Y-91269677D01*
X111108968Y-91427203D01*
X111108967Y-91427206D01*
X111023055Y-91602350D01*
X111021235Y-91606060D01*
X111016875Y-91622900D01*
X110971303Y-91798910D01*
X110961213Y-91997868D01*
X110297757Y-91997868D01*
X110302869Y-91897064D01*
X110272056Y-91695929D01*
X110214599Y-91540789D01*
X110201388Y-91505118D01*
X110201387Y-91505117D01*
X110201386Y-91505113D01*
X110093752Y-91332429D01*
X109971997Y-91204344D01*
X109953561Y-91184949D01*
X109953560Y-91184948D01*
X109953559Y-91184947D01*
X109829630Y-91098690D01*
X109786550Y-91068705D01*
X109599556Y-90988459D01*
X109400241Y-90947500D01*
X108047758Y-90947500D01*
X108047757Y-90947500D01*
X107896060Y-90962925D01*
X107701920Y-91023837D01*
X107701905Y-91023844D01*
X107524000Y-91122589D01*
X107523996Y-91122592D01*
X107519768Y-91126222D01*
X107456078Y-91154952D01*
X107386967Y-91144689D01*
X107334375Y-91098690D01*
X107315000Y-91032134D01*
X107315000Y-88900000D01*
X110777815Y-88900000D01*
X110781367Y-88933793D01*
X110796503Y-89077805D01*
X110796504Y-89077807D01*
X110851747Y-89247829D01*
X110851750Y-89247835D01*
X110941141Y-89402665D01*
X110982812Y-89448946D01*
X111060764Y-89535521D01*
X111060767Y-89535523D01*
X111060770Y-89535526D01*
X111205407Y-89640612D01*
X111368733Y-89713329D01*
X111543609Y-89750500D01*
X111543610Y-89750500D01*
X111722389Y-89750500D01*
X111722391Y-89750500D01*
X111897267Y-89713329D01*
X111898455Y-89712800D01*
X113952815Y-89712800D01*
X113971503Y-89890605D01*
X113971504Y-89890607D01*
X114026747Y-90060629D01*
X114026750Y-90060635D01*
X114116141Y-90215465D01*
X114157812Y-90261746D01*
X114235764Y-90348321D01*
X114235767Y-90348323D01*
X114235770Y-90348326D01*
X114380407Y-90453412D01*
X114543733Y-90526129D01*
X114718609Y-90563300D01*
X114718610Y-90563300D01*
X114897389Y-90563300D01*
X114897391Y-90563300D01*
X115072267Y-90526129D01*
X115235593Y-90453412D01*
X115380230Y-90348326D01*
X115499859Y-90215465D01*
X115589250Y-90060635D01*
X115644497Y-89890603D01*
X115663185Y-89712800D01*
X115644497Y-89534997D01*
X115593422Y-89377805D01*
X115589252Y-89364970D01*
X115589249Y-89364964D01*
X115588187Y-89363124D01*
X115499859Y-89210135D01*
X115446509Y-89150884D01*
X115380235Y-89077278D01*
X115380232Y-89077276D01*
X115380231Y-89077275D01*
X115380230Y-89077274D01*
X115235593Y-88972188D01*
X115072267Y-88899471D01*
X115072265Y-88899470D01*
X114944594Y-88872333D01*
X114897391Y-88862300D01*
X114718609Y-88862300D01*
X114700228Y-88866207D01*
X114543733Y-88899470D01*
X114543728Y-88899472D01*
X114380408Y-88972187D01*
X114235768Y-89077275D01*
X114116140Y-89210136D01*
X114026750Y-89364964D01*
X114026747Y-89364970D01*
X113971504Y-89534992D01*
X113971503Y-89534994D01*
X113952815Y-89712800D01*
X111898455Y-89712800D01*
X112060593Y-89640612D01*
X112205230Y-89535526D01*
X112205545Y-89535177D01*
X112246940Y-89489202D01*
X112324859Y-89402665D01*
X112414250Y-89247835D01*
X112469497Y-89077803D01*
X112488185Y-88900000D01*
X112469497Y-88722197D01*
X112418250Y-88564475D01*
X112414252Y-88552170D01*
X112414249Y-88552164D01*
X112395100Y-88518997D01*
X112351108Y-88442800D01*
X116746815Y-88442800D01*
X116765503Y-88620605D01*
X116765504Y-88620607D01*
X116820747Y-88790629D01*
X116820750Y-88790635D01*
X116910141Y-88945465D01*
X116947689Y-88987166D01*
X117029764Y-89078321D01*
X117029767Y-89078323D01*
X117029770Y-89078326D01*
X117174407Y-89183412D01*
X117337733Y-89256129D01*
X117512609Y-89293300D01*
X117512610Y-89293300D01*
X117691389Y-89293300D01*
X117691391Y-89293300D01*
X117866267Y-89256129D01*
X118029593Y-89183412D01*
X118174230Y-89078326D01*
X118174698Y-89077807D01*
X118204571Y-89044629D01*
X118293859Y-88945465D01*
X118383250Y-88790635D01*
X118438497Y-88620603D01*
X118457185Y-88442800D01*
X118438497Y-88264997D01*
X118383250Y-88094965D01*
X118293859Y-87940135D01*
X118242838Y-87883471D01*
X118174235Y-87807278D01*
X118174232Y-87807276D01*
X118174231Y-87807275D01*
X118174230Y-87807274D01*
X118029593Y-87702188D01*
X117866267Y-87629471D01*
X117866265Y-87629470D01*
X117738594Y-87602333D01*
X117691391Y-87592300D01*
X117512609Y-87592300D01*
X117481954Y-87598815D01*
X117337733Y-87629470D01*
X117337728Y-87629472D01*
X117174408Y-87702187D01*
X117029768Y-87807275D01*
X116910140Y-87940136D01*
X116820750Y-88094964D01*
X116820747Y-88094970D01*
X116765504Y-88264992D01*
X116765503Y-88264994D01*
X116746815Y-88442800D01*
X112351108Y-88442800D01*
X112324859Y-88397335D01*
X112273838Y-88340671D01*
X112205235Y-88264478D01*
X112205232Y-88264476D01*
X112205231Y-88264475D01*
X112205230Y-88264474D01*
X112060593Y-88159388D01*
X111897267Y-88086671D01*
X111897265Y-88086670D01*
X111748459Y-88055041D01*
X111722391Y-88049500D01*
X111543609Y-88049500D01*
X111517541Y-88055041D01*
X111368733Y-88086670D01*
X111368728Y-88086672D01*
X111205408Y-88159387D01*
X111060768Y-88264475D01*
X110941140Y-88397336D01*
X110851750Y-88552164D01*
X110851747Y-88552170D01*
X110796504Y-88722192D01*
X110796503Y-88722194D01*
X110777870Y-88899472D01*
X110777815Y-88900000D01*
X107315000Y-88900000D01*
X107315000Y-87906950D01*
X107334685Y-87839911D01*
X107387489Y-87794156D01*
X107456647Y-87784212D01*
X107520203Y-87813237D01*
X107544653Y-87846273D01*
X107546501Y-87845207D01*
X107549749Y-87850833D01*
X107549750Y-87850835D01*
X107639141Y-88005665D01*
X107665397Y-88034825D01*
X107758764Y-88138521D01*
X107758767Y-88138523D01*
X107758770Y-88138526D01*
X107903407Y-88243612D01*
X108066733Y-88316329D01*
X108241609Y-88353500D01*
X108241610Y-88353500D01*
X108420389Y-88353500D01*
X108420391Y-88353500D01*
X108595267Y-88316329D01*
X108758593Y-88243612D01*
X108903230Y-88138526D01*
X109022859Y-88005665D01*
X109112250Y-87850835D01*
X109167497Y-87680803D01*
X109186185Y-87503000D01*
X109167497Y-87325197D01*
X109126231Y-87198194D01*
X109112252Y-87155170D01*
X109112249Y-87155164D01*
X109022859Y-87000335D01*
X108976003Y-86948296D01*
X108903235Y-86867478D01*
X108903232Y-86867476D01*
X108903231Y-86867475D01*
X108903230Y-86867474D01*
X108758593Y-86762388D01*
X108595267Y-86689671D01*
X108595265Y-86689670D01*
X108467594Y-86662533D01*
X108420391Y-86652500D01*
X108241609Y-86652500D01*
X108210954Y-86659015D01*
X108066733Y-86689670D01*
X108066728Y-86689672D01*
X107903408Y-86762387D01*
X107758768Y-86867475D01*
X107639140Y-87000336D01*
X107623074Y-87028164D01*
X107550664Y-87153583D01*
X107546501Y-87160793D01*
X107543930Y-87159308D01*
X107507022Y-87202726D01*
X107440172Y-87223043D01*
X107372949Y-87203993D01*
X107326697Y-87151624D01*
X107315000Y-87099049D01*
X107315000Y-85851999D01*
X110777815Y-85851999D01*
X110796503Y-86029805D01*
X110796504Y-86029807D01*
X110851747Y-86199829D01*
X110851750Y-86199835D01*
X110941141Y-86354665D01*
X110976372Y-86393793D01*
X111060764Y-86487521D01*
X111060767Y-86487523D01*
X111060770Y-86487526D01*
X111205407Y-86592612D01*
X111368733Y-86665329D01*
X111543609Y-86702500D01*
X111543610Y-86702500D01*
X111722389Y-86702500D01*
X111722391Y-86702500D01*
X111897267Y-86665329D01*
X112060593Y-86592612D01*
X112205230Y-86487526D01*
X112324859Y-86354665D01*
X112414250Y-86199835D01*
X112469497Y-86029803D01*
X112488185Y-85852000D01*
X112469497Y-85674197D01*
X112434477Y-85566416D01*
X112414252Y-85504170D01*
X112414249Y-85504164D01*
X112324859Y-85349335D01*
X112278003Y-85297296D01*
X112260628Y-85277999D01*
X115984815Y-85277999D01*
X116003503Y-85455805D01*
X116003504Y-85455807D01*
X116058747Y-85625829D01*
X116058750Y-85625835D01*
X116148141Y-85780665D01*
X116189812Y-85826946D01*
X116267764Y-85913521D01*
X116267767Y-85913523D01*
X116267770Y-85913526D01*
X116412407Y-86018612D01*
X116575733Y-86091329D01*
X116750609Y-86128500D01*
X116750610Y-86128500D01*
X116929389Y-86128500D01*
X116929391Y-86128500D01*
X117104267Y-86091329D01*
X117267593Y-86018612D01*
X117412230Y-85913526D01*
X117531859Y-85780665D01*
X117621250Y-85625835D01*
X117676497Y-85455803D01*
X117695185Y-85278000D01*
X117676497Y-85100197D01*
X117644428Y-85001500D01*
X117621252Y-84930170D01*
X117621249Y-84930164D01*
X117531859Y-84775335D01*
X117468029Y-84704445D01*
X117412235Y-84642478D01*
X117412232Y-84642476D01*
X117412231Y-84642475D01*
X117412230Y-84642474D01*
X117267593Y-84537388D01*
X117104267Y-84464671D01*
X117104265Y-84464670D01*
X116976594Y-84437533D01*
X116929391Y-84427500D01*
X116750609Y-84427500D01*
X116719954Y-84434015D01*
X116575733Y-84464670D01*
X116575728Y-84464672D01*
X116412408Y-84537387D01*
X116267768Y-84642475D01*
X116148140Y-84775336D01*
X116058750Y-84930164D01*
X116058747Y-84930170D01*
X116003504Y-85100192D01*
X116003503Y-85100194D01*
X115984815Y-85277999D01*
X112260628Y-85277999D01*
X112205235Y-85216478D01*
X112205232Y-85216476D01*
X112205231Y-85216475D01*
X112205230Y-85216474D01*
X112170200Y-85191023D01*
X112127535Y-85135693D01*
X112121557Y-85066080D01*
X112154163Y-85004285D01*
X112164833Y-84994517D01*
X112178788Y-84983164D01*
X112216199Y-84930165D01*
X112260507Y-84867395D01*
X112260508Y-84867394D01*
X112307962Y-84733872D01*
X112307962Y-84733870D01*
X112307963Y-84733868D01*
X112317634Y-84592490D01*
X112288803Y-84453746D01*
X112288801Y-84453743D01*
X112288548Y-84453030D01*
X112288508Y-84452331D01*
X112287077Y-84445441D01*
X112288111Y-84445226D01*
X112284643Y-84383269D01*
X112319074Y-84322472D01*
X112380908Y-84289940D01*
X112405387Y-84287500D01*
X113152171Y-84287500D01*
X113300690Y-84272397D01*
X113490754Y-84212764D01*
X113490754Y-84212763D01*
X113490763Y-84212761D01*
X113664943Y-84116083D01*
X113816095Y-83986323D01*
X113938034Y-83828792D01*
X114025765Y-83649940D01*
X114075697Y-83457088D01*
X114085787Y-83258133D01*
X114055621Y-83061220D01*
X113986434Y-82874409D01*
X113881059Y-82705350D01*
X113881056Y-82705347D01*
X113881055Y-82705345D01*
X113743812Y-82560966D01*
X113743808Y-82560963D01*
X113580305Y-82447161D01*
X113397238Y-82368601D01*
X113202105Y-82328500D01*
X111894830Y-82328500D01*
X111894829Y-82328500D01*
X111746309Y-82343602D01*
X111556245Y-82403235D01*
X111556235Y-82403240D01*
X111382055Y-82499918D01*
X111382054Y-82499918D01*
X111230906Y-82629675D01*
X111230904Y-82629677D01*
X111108968Y-82787203D01*
X111108967Y-82787206D01*
X111021236Y-82966057D01*
X110971303Y-83158910D01*
X110961213Y-83357868D01*
X110991377Y-83554772D01*
X110991380Y-83554784D01*
X111039142Y-83683745D01*
X111060566Y-83741591D01*
X111165941Y-83910650D01*
X111165942Y-83910651D01*
X111165944Y-83910654D01*
X111303187Y-84055033D01*
X111303191Y-84055036D01*
X111380960Y-84109166D01*
X111424738Y-84163620D01*
X111432126Y-84233098D01*
X111411426Y-84282448D01*
X111336492Y-84388604D01*
X111336491Y-84388605D01*
X111289037Y-84522127D01*
X111289037Y-84522130D01*
X111279730Y-84658194D01*
X111279366Y-84663510D01*
X111308197Y-84802254D01*
X111341950Y-84867394D01*
X111358554Y-84899438D01*
X111371919Y-84968017D01*
X111346085Y-85032936D01*
X111298893Y-85069765D01*
X111205406Y-85111388D01*
X111060768Y-85216475D01*
X110941140Y-85349336D01*
X110851750Y-85504164D01*
X110851747Y-85504170D01*
X110796504Y-85674192D01*
X110796503Y-85674194D01*
X110777815Y-85851999D01*
X107315000Y-85851999D01*
X107315000Y-84219040D01*
X107334685Y-84152001D01*
X107387489Y-84106246D01*
X107456647Y-84096302D01*
X107509836Y-84117265D01*
X107610451Y-84187295D01*
X107797442Y-84267540D01*
X107996759Y-84308500D01*
X109349243Y-84308500D01*
X109500939Y-84293074D01*
X109695079Y-84232162D01*
X109695080Y-84232161D01*
X109695088Y-84232159D01*
X109873002Y-84133409D01*
X110027395Y-84000866D01*
X110151948Y-83839958D01*
X110241560Y-83657271D01*
X110292563Y-83460285D01*
X110302869Y-83257064D01*
X110272056Y-83055929D01*
X110201386Y-82865113D01*
X110101803Y-82705345D01*
X110093754Y-82692432D01*
X110093750Y-82692427D01*
X109953561Y-82544949D01*
X109953560Y-82544948D01*
X109953559Y-82544947D01*
X109808056Y-82443674D01*
X109786550Y-82428705D01*
X109599556Y-82348459D01*
X109400241Y-82307500D01*
X108047758Y-82307500D01*
X108047757Y-82307500D01*
X107896060Y-82322925D01*
X107701920Y-82383837D01*
X107701905Y-82383844D01*
X107524000Y-82482589D01*
X107523996Y-82482592D01*
X107519768Y-82486222D01*
X107456078Y-82514952D01*
X107386967Y-82504689D01*
X107334375Y-82458690D01*
X107315000Y-82392134D01*
X107315000Y-81991200D01*
X117102415Y-81991200D01*
X117121103Y-82169005D01*
X117121104Y-82169007D01*
X117176347Y-82339029D01*
X117176350Y-82339035D01*
X117265741Y-82493865D01*
X117284728Y-82514952D01*
X117385364Y-82626721D01*
X117385367Y-82626723D01*
X117385370Y-82626726D01*
X117530007Y-82731812D01*
X117693333Y-82804529D01*
X117868209Y-82841700D01*
X117868210Y-82841700D01*
X118046989Y-82841700D01*
X118046991Y-82841700D01*
X118221867Y-82804529D01*
X118385193Y-82731812D01*
X118529830Y-82626726D01*
X118649459Y-82493865D01*
X118738850Y-82339035D01*
X118794097Y-82169003D01*
X118812785Y-81991200D01*
X122334815Y-81991200D01*
X122336583Y-82008019D01*
X122353503Y-82169005D01*
X122353504Y-82169007D01*
X122408747Y-82339029D01*
X122408750Y-82339035D01*
X122498141Y-82493865D01*
X122517128Y-82514952D01*
X122617764Y-82626721D01*
X122617767Y-82626723D01*
X122617770Y-82626726D01*
X122762407Y-82731812D01*
X122925733Y-82804529D01*
X123100609Y-82841700D01*
X123100610Y-82841700D01*
X123279389Y-82841700D01*
X123279391Y-82841700D01*
X123454267Y-82804529D01*
X123617593Y-82731812D01*
X123762230Y-82626726D01*
X123881859Y-82493865D01*
X123971250Y-82339035D01*
X124026497Y-82169003D01*
X124045185Y-81991200D01*
X124026497Y-81813397D01*
X123994046Y-81713524D01*
X123971252Y-81643370D01*
X123971249Y-81643364D01*
X123967021Y-81636041D01*
X123881859Y-81488535D01*
X123813248Y-81412335D01*
X123762235Y-81355678D01*
X123762232Y-81355676D01*
X123762231Y-81355675D01*
X123762230Y-81355674D01*
X123617593Y-81250588D01*
X123454267Y-81177871D01*
X123454265Y-81177870D01*
X123326594Y-81150733D01*
X123279391Y-81140700D01*
X123100609Y-81140700D01*
X123069954Y-81147215D01*
X122925733Y-81177870D01*
X122925728Y-81177872D01*
X122762408Y-81250587D01*
X122617768Y-81355675D01*
X122498140Y-81488536D01*
X122408750Y-81643364D01*
X122408747Y-81643370D01*
X122353504Y-81813392D01*
X122353503Y-81813394D01*
X122336567Y-81974534D01*
X122334815Y-81991200D01*
X118812785Y-81991200D01*
X118794097Y-81813397D01*
X118761646Y-81713524D01*
X118738852Y-81643370D01*
X118738849Y-81643364D01*
X118734621Y-81636041D01*
X118649459Y-81488535D01*
X118580848Y-81412335D01*
X118529835Y-81355678D01*
X118529832Y-81355676D01*
X118529831Y-81355675D01*
X118529830Y-81355674D01*
X118385193Y-81250588D01*
X118221867Y-81177871D01*
X118221865Y-81177870D01*
X118094194Y-81150733D01*
X118046991Y-81140700D01*
X117868209Y-81140700D01*
X117837554Y-81147215D01*
X117693333Y-81177870D01*
X117693328Y-81177872D01*
X117530008Y-81250587D01*
X117385368Y-81355675D01*
X117265740Y-81488536D01*
X117176350Y-81643364D01*
X117176347Y-81643370D01*
X117121104Y-81813392D01*
X117121103Y-81813394D01*
X117102415Y-81991200D01*
X107315000Y-81991200D01*
X107315000Y-78740000D01*
X111194615Y-78740000D01*
X111214140Y-79087688D01*
X111214142Y-79087700D01*
X111263044Y-79375521D01*
X111272473Y-79431013D01*
X111368879Y-79765644D01*
X111457912Y-79980588D01*
X111501441Y-80085678D01*
X111502145Y-80087376D01*
X111670595Y-80392164D01*
X111872112Y-80676176D01*
X112104161Y-80935839D01*
X112363824Y-81167888D01*
X112647836Y-81369405D01*
X112952624Y-81537855D01*
X113274356Y-81671121D01*
X113608987Y-81767527D01*
X113952307Y-81825859D01*
X114300000Y-81845385D01*
X114647693Y-81825859D01*
X114991013Y-81767527D01*
X115325644Y-81671121D01*
X115647376Y-81537855D01*
X115952164Y-81369405D01*
X116236176Y-81167888D01*
X116495839Y-80935839D01*
X116727888Y-80676176D01*
X116929405Y-80392164D01*
X117097855Y-80087376D01*
X117224595Y-79781400D01*
X133764815Y-79781400D01*
X133783503Y-79959205D01*
X133783504Y-79959207D01*
X133838747Y-80129229D01*
X133838750Y-80129235D01*
X133928141Y-80284065D01*
X133969812Y-80330346D01*
X134047764Y-80416921D01*
X134047767Y-80416923D01*
X134047770Y-80416926D01*
X134192407Y-80522012D01*
X134355733Y-80594729D01*
X134530609Y-80631900D01*
X134530610Y-80631900D01*
X134709389Y-80631900D01*
X134709391Y-80631900D01*
X134884267Y-80594729D01*
X135047593Y-80522012D01*
X135192230Y-80416926D01*
X135197508Y-80411065D01*
X135218148Y-80388141D01*
X135311859Y-80284065D01*
X135401250Y-80129235D01*
X135456497Y-79959203D01*
X135475185Y-79781400D01*
X135456497Y-79603597D01*
X135401250Y-79433565D01*
X135311859Y-79278735D01*
X135265003Y-79226696D01*
X135192235Y-79145878D01*
X135192232Y-79145876D01*
X135192231Y-79145875D01*
X135192230Y-79145874D01*
X135047593Y-79040788D01*
X134884267Y-78968071D01*
X134884265Y-78968070D01*
X134756594Y-78940933D01*
X134709391Y-78930900D01*
X134530609Y-78930900D01*
X134499954Y-78937415D01*
X134355733Y-78968070D01*
X134355728Y-78968072D01*
X134192408Y-79040787D01*
X134047768Y-79145875D01*
X133928140Y-79278736D01*
X133838750Y-79433564D01*
X133838747Y-79433570D01*
X133783504Y-79603592D01*
X133783503Y-79603594D01*
X133764815Y-79781400D01*
X117224595Y-79781400D01*
X117231121Y-79765644D01*
X117327527Y-79431013D01*
X117385859Y-79087693D01*
X117405385Y-78740000D01*
X117385859Y-78392307D01*
X117358622Y-78231999D01*
X126348015Y-78231999D01*
X126366703Y-78409805D01*
X126366704Y-78409807D01*
X126421947Y-78579829D01*
X126421950Y-78579835D01*
X126511341Y-78734665D01*
X126553012Y-78780946D01*
X126630964Y-78867521D01*
X126630967Y-78867523D01*
X126630970Y-78867526D01*
X126775607Y-78972612D01*
X126938933Y-79045329D01*
X127113809Y-79082500D01*
X127113810Y-79082500D01*
X127292589Y-79082500D01*
X127292591Y-79082500D01*
X127467467Y-79045329D01*
X127630793Y-78972612D01*
X127775430Y-78867526D01*
X127895059Y-78734665D01*
X127984450Y-78579835D01*
X128039697Y-78409803D01*
X128058385Y-78232000D01*
X128039697Y-78054197D01*
X128012073Y-77969181D01*
X127984452Y-77884170D01*
X127984449Y-77884164D01*
X127941805Y-77810302D01*
X127895059Y-77729335D01*
X127883518Y-77716517D01*
X146064500Y-77716517D01*
X146075292Y-77784657D01*
X146079354Y-77810304D01*
X146136950Y-77923342D01*
X146136952Y-77923344D01*
X146136954Y-77923347D01*
X146226652Y-78013045D01*
X146226654Y-78013046D01*
X146226658Y-78013050D01*
X146339694Y-78070645D01*
X146339698Y-78070647D01*
X146433475Y-78085499D01*
X146433481Y-78085500D01*
X148196518Y-78085499D01*
X148290304Y-78070646D01*
X148403342Y-78013050D01*
X148493050Y-77923342D01*
X148550646Y-77810304D01*
X148550646Y-77810302D01*
X148550647Y-77810301D01*
X148565499Y-77716524D01*
X148565500Y-77716519D01*
X148565499Y-77566859D01*
X148585183Y-77499823D01*
X148637987Y-77454068D01*
X148707145Y-77444124D01*
X148770701Y-77473149D01*
X148791073Y-77495738D01*
X148861613Y-77596478D01*
X148893402Y-77641877D01*
X149048123Y-77796598D01*
X149227361Y-77922102D01*
X149425670Y-78014575D01*
X149637023Y-78071207D01*
X149819926Y-78087208D01*
X149854998Y-78090277D01*
X149855000Y-78090277D01*
X149855002Y-78090277D01*
X149883254Y-78087805D01*
X150072977Y-78071207D01*
X150284330Y-78014575D01*
X150482639Y-77922102D01*
X150661877Y-77796598D01*
X150816598Y-77641877D01*
X150942102Y-77462639D01*
X151034575Y-77264330D01*
X151091207Y-77052977D01*
X151110277Y-76835000D01*
X151107549Y-76803823D01*
X151105833Y-76784203D01*
X151091207Y-76617023D01*
X151040718Y-76428597D01*
X151034577Y-76405677D01*
X151034576Y-76405676D01*
X151034575Y-76405670D01*
X150942102Y-76207362D01*
X150942100Y-76207359D01*
X150942099Y-76207357D01*
X150816599Y-76028124D01*
X150741950Y-75953475D01*
X150661877Y-75873402D01*
X150482639Y-75747898D01*
X150482640Y-75747898D01*
X150482638Y-75747897D01*
X150383484Y-75701661D01*
X150284330Y-75655425D01*
X150284326Y-75655424D01*
X150284322Y-75655422D01*
X150072977Y-75598793D01*
X149855002Y-75579723D01*
X149854998Y-75579723D01*
X149709681Y-75592436D01*
X149637023Y-75598793D01*
X149637020Y-75598793D01*
X149425677Y-75655422D01*
X149425670Y-75655424D01*
X149425670Y-75655425D01*
X149422391Y-75656954D01*
X149227361Y-75747898D01*
X149227357Y-75747900D01*
X149048121Y-75873402D01*
X148893402Y-76028121D01*
X148791074Y-76174262D01*
X148736497Y-76217887D01*
X148666999Y-76225081D01*
X148604644Y-76193558D01*
X148569230Y-76133328D01*
X148565499Y-76103139D01*
X148565499Y-75953482D01*
X148565498Y-75953475D01*
X148550646Y-75859696D01*
X148493050Y-75746658D01*
X148493046Y-75746654D01*
X148493045Y-75746652D01*
X148403347Y-75656954D01*
X148403344Y-75656952D01*
X148403342Y-75656950D01*
X148326517Y-75617805D01*
X148290301Y-75599352D01*
X148196524Y-75584500D01*
X146433482Y-75584500D01*
X146352519Y-75597323D01*
X146339696Y-75599354D01*
X146226658Y-75656950D01*
X146226657Y-75656950D01*
X146226657Y-75656951D01*
X146226652Y-75656954D01*
X146136954Y-75746652D01*
X146136951Y-75746657D01*
X146136950Y-75746658D01*
X146132241Y-75755900D01*
X146079352Y-75859698D01*
X146064500Y-75953475D01*
X146064500Y-77716517D01*
X127883518Y-77716517D01*
X127816315Y-77641881D01*
X127775435Y-77596478D01*
X127775432Y-77596476D01*
X127775431Y-77596475D01*
X127775430Y-77596474D01*
X127630793Y-77491388D01*
X127467467Y-77418671D01*
X127467465Y-77418670D01*
X127339794Y-77391533D01*
X127292591Y-77381500D01*
X127113809Y-77381500D01*
X127083154Y-77388015D01*
X126938933Y-77418670D01*
X126938928Y-77418672D01*
X126775608Y-77491387D01*
X126630968Y-77596475D01*
X126511340Y-77729336D01*
X126421950Y-77884164D01*
X126421947Y-77884170D01*
X126366704Y-78054192D01*
X126366703Y-78054194D01*
X126348015Y-78231999D01*
X117358622Y-78231999D01*
X117327527Y-78048987D01*
X117231121Y-77714356D01*
X117097855Y-77392624D01*
X116929405Y-77087836D01*
X116727888Y-76803824D01*
X116551458Y-76606399D01*
X131224815Y-76606399D01*
X131243503Y-76784205D01*
X131243504Y-76784207D01*
X131298747Y-76954229D01*
X131298750Y-76954235D01*
X131388141Y-77109065D01*
X131429812Y-77155346D01*
X131507764Y-77241921D01*
X131507767Y-77241923D01*
X131507770Y-77241926D01*
X131652407Y-77347012D01*
X131815733Y-77419729D01*
X131990609Y-77456900D01*
X131990610Y-77456900D01*
X132169389Y-77456900D01*
X132169391Y-77456900D01*
X132344267Y-77419729D01*
X132507593Y-77347012D01*
X132652230Y-77241926D01*
X132771859Y-77109065D01*
X132861250Y-76954235D01*
X132916497Y-76784203D01*
X132935185Y-76606400D01*
X132916497Y-76428597D01*
X132867150Y-76276723D01*
X132861252Y-76258570D01*
X132861249Y-76258564D01*
X132841918Y-76225081D01*
X132771859Y-76103735D01*
X132725003Y-76051696D01*
X132652235Y-75970878D01*
X132652232Y-75970876D01*
X132652231Y-75970875D01*
X132652230Y-75970874D01*
X132507593Y-75865788D01*
X132344267Y-75793071D01*
X132344265Y-75793070D01*
X132216594Y-75765933D01*
X132169391Y-75755900D01*
X131990609Y-75755900D01*
X131959954Y-75762415D01*
X131815733Y-75793070D01*
X131815728Y-75793072D01*
X131652408Y-75865787D01*
X131507768Y-75970875D01*
X131388140Y-76103736D01*
X131298750Y-76258564D01*
X131298747Y-76258570D01*
X131243504Y-76428592D01*
X131243503Y-76428594D01*
X131224815Y-76606399D01*
X116551458Y-76606399D01*
X116495839Y-76544161D01*
X116236176Y-76312112D01*
X115952164Y-76110595D01*
X115647376Y-75942145D01*
X115325644Y-75808879D01*
X115109668Y-75746657D01*
X114991017Y-75712474D01*
X114991009Y-75712472D01*
X114647700Y-75654142D01*
X114647688Y-75654140D01*
X114300000Y-75634615D01*
X113952311Y-75654140D01*
X113952299Y-75654142D01*
X113608990Y-75712472D01*
X113608982Y-75712474D01*
X113274359Y-75808878D01*
X113274356Y-75808879D01*
X113249915Y-75819003D01*
X112952625Y-75942144D01*
X112647835Y-76110595D01*
X112496622Y-76217887D01*
X112363824Y-76312112D01*
X112104161Y-76544161D01*
X111872112Y-76803824D01*
X111849990Y-76835002D01*
X111670595Y-77087835D01*
X111502144Y-77392625D01*
X111368878Y-77714359D01*
X111272474Y-78048982D01*
X111272472Y-78048990D01*
X111214142Y-78392299D01*
X111214140Y-78392311D01*
X111194615Y-78740000D01*
X107315000Y-78740000D01*
X107315000Y-75971281D01*
X107334685Y-75904242D01*
X107387489Y-75858487D01*
X107456647Y-75848543D01*
X107520203Y-75877568D01*
X107556931Y-75932963D01*
X107575147Y-75989029D01*
X107575150Y-75989035D01*
X107664541Y-76143865D01*
X107691911Y-76174262D01*
X107784164Y-76276721D01*
X107784167Y-76276723D01*
X107784170Y-76276726D01*
X107928807Y-76381812D01*
X108092133Y-76454529D01*
X108267009Y-76491700D01*
X108267010Y-76491700D01*
X108445789Y-76491700D01*
X108445791Y-76491700D01*
X108620667Y-76454529D01*
X108783993Y-76381812D01*
X108928630Y-76276726D01*
X109048259Y-76143865D01*
X109137650Y-75989035D01*
X109192897Y-75819003D01*
X109211585Y-75641200D01*
X109192897Y-75463397D01*
X109155869Y-75349436D01*
X109137652Y-75293370D01*
X109137649Y-75293364D01*
X109048259Y-75138535D01*
X109001403Y-75086496D01*
X108928635Y-75005678D01*
X108928632Y-75005676D01*
X108928631Y-75005675D01*
X108928630Y-75005674D01*
X108783993Y-74900588D01*
X108620667Y-74827871D01*
X108620665Y-74827870D01*
X108492994Y-74800733D01*
X108445791Y-74790700D01*
X108267009Y-74790700D01*
X108236354Y-74797215D01*
X108092133Y-74827870D01*
X108092128Y-74827872D01*
X107928808Y-74900587D01*
X107784168Y-75005675D01*
X107664540Y-75138536D01*
X107575150Y-75293364D01*
X107575147Y-75293371D01*
X107556931Y-75349436D01*
X107517493Y-75407112D01*
X107453135Y-75434310D01*
X107384288Y-75422395D01*
X107332813Y-75375151D01*
X107315000Y-75311118D01*
X107315000Y-74419000D01*
X107334685Y-74351961D01*
X107387489Y-74306206D01*
X107439000Y-74295000D01*
X151641000Y-74295000D01*
X151708039Y-74314685D01*
G37*
%TD.AperFunction*%
%TD*%
M02*
